<svg width="72" height="72" viewBox="0 0 72 72" fill="none" xmlns="http://www.w3.org/2000/svg">
<rect width="72" height="72" rx="20" fill="#F2A842"/>
<path fill-rule="evenodd" clip-rule="evenodd" d="M16.2058 16.2H27.0887C27.5361 20.4527 31.3333 23.7693 35.9527 23.7693C40.572 23.7693 44.3749 20.4475 44.8167 16.2H55.8002V33.9517H44.8782C44.3301 29.8047 40.5832 26.5886 36.0365 26.5886C31.4899 26.5886 27.743 29.7994 27.1949 33.9517H16.2002V16.2H16.2058Z" fill="#1A1A1A"/>
<path fill-rule="evenodd" clip-rule="evenodd" d="M16.2002 36.6829H27.1461C27.6383 41.2115 31.4138 44.7319 36.0002 44.7319C40.5866 44.7319 44.3621 41.2115 44.8543 36.6829H55.8002V55.8001H44.7816C44.3397 51.2202 40.5363 47.6485 35.9163 47.6485C31.2963 47.6485 27.4929 51.2259 27.051 55.8001H16.2002V36.6829Z" fill="#1A1A1A"/>
</svg>
