<svg xmlns="http://www.w3.org/2000/svg" fill="none" viewBox="0 0 1680 586">
  <g class="circle">
    <circle cx="293" cy="293" r="292.5" stroke="#4D4D4D" />
    <path fill="#fff"
      d="M171.359 260.809h-2.027v-1.442h1.945c.86 0 1.555-.121 2.086-.363.532-.242.918-.578 1.16-1.008.243-.43.364-.926.364-1.488 0-.539-.133-1.031-.399-1.477-.265-.453-.676-.812-1.23-1.078-.555-.273-1.27-.41-2.145-.41-.656 0-1.25.125-1.781.375-.531.242-.953.582-1.266 1.02-.312.429-.468.925-.468 1.488h-2.262c0-.727.152-1.379.457-1.957.305-.586.723-1.082 1.254-1.489.531-.414 1.144-.73 1.84-.949.703-.219 1.445-.328 2.226-.328.914 0 1.742.106 2.485.317.742.203 1.379.507 1.91.914.531.406.937.91 1.219 1.511.281.602.421 1.301.421 2.098 0 .586-.136 1.137-.41 1.652-.273.516-.664.969-1.172 1.36-.507.39-1.117.699-1.828.925-.711.219-1.504.329-2.379.329Zm-2.027-.997h2.027c.961 0 1.817.098 2.567.293.75.196 1.383.481 1.898.856.516.375.906.84 1.172 1.394.274.547.41 1.176.41 1.887 0 .797-.156 1.504-.468 2.121-.305.617-.739 1.141-1.301 1.571-.563.429-1.231.754-2.004.972-.766.219-1.606.328-2.52.328a8.571 8.571 0 0 1-2.179-.281c-.711-.195-1.356-.492-1.934-.891-.578-.406-1.043-.921-1.395-1.546-.343-.625-.515-1.375-.515-2.25h2.262c0 .57.156 1.093.468 1.57.321.476.762.859 1.325 1.148.562.282 1.218.422 1.968.422.86 0 1.586-.133 2.18-.398.602-.274 1.059-.645 1.371-1.113.32-.477.481-1.012.481-1.606 0-.523-.086-.977-.258-1.359-.164-.391-.41-.711-.739-.961-.32-.25-.722-.434-1.207-.551-.476-.125-1.031-.188-1.664-.188h-1.945v-1.418Zm19.324 2.004v1.758h-6.703v-1.758h6.703Zm-6.246-5.496V269h-2.168v-12.68h2.168Zm8.004 0V269h-2.18v-12.68h2.18Zm10.969 10.512v-6.527c0-.5-.102-.934-.305-1.301-.195-.375-.492-.664-.89-.867-.399-.203-.891-.305-1.477-.305-.547 0-1.027.094-1.441.281-.407.188-.727.434-.961.739-.227.304-.34.632-.34.984h-2.168c0-.453.117-.902.351-1.348.235-.445.571-.847 1.008-1.207.445-.367.977-.656 1.594-.867.625-.219 1.32-.328 2.086-.328.922 0 1.734.156 2.437.469.711.312 1.266.785 1.664 1.418.407.625.61 1.41.61 2.355v5.906c0 .422.035.871.105 1.348.078.477.192.887.34 1.23V269h-2.262c-.109-.25-.195-.582-.257-.996-.063-.422-.094-.813-.094-1.172Zm.375-5.52.023 1.524h-2.191c-.617 0-1.168.051-1.652.152-.485.094-.891.239-1.219.434-.328.195-.578.441-.75.738-.172.289-.258.629-.258 1.02 0 .398.09.761.269 1.09.18.328.45.589.809.785.367.187.816.281 1.348.281.664 0 1.25-.141 1.758-.422.507-.281.91-.625 1.207-1.031.304-.406.468-.801.492-1.184l.926 1.043c-.055.328-.204.692-.446 1.09-.242.398-.566.781-.972 1.148-.399.36-.875.661-1.43.903-.547.234-1.164.351-1.852.351-.859 0-1.613-.168-2.261-.504-.641-.335-1.141-.785-1.5-1.347-.352-.571-.528-1.207-.528-1.91 0-.68.133-1.278.399-1.793.265-.524.648-.957 1.148-1.301.5-.352 1.102-.617 1.805-.797.703-.18 1.488-.27 2.355-.27h2.52Zm10.465 7.922c-.883 0-1.684-.148-2.403-.445-.711-.305-1.324-.73-1.84-1.277-.507-.547-.898-1.196-1.171-1.946-.274-.75-.411-1.57-.411-2.461v-.492c0-1.031.153-1.949.457-2.754.305-.812.719-1.5 1.243-2.062.523-.563 1.117-.988 1.781-1.277.664-.29 1.351-.434 2.062-.434.907 0 1.688.156 2.344.469.664.312 1.207.75 1.629 1.312.422.555.734 1.211.938 1.969.203.75.304 1.57.304 2.461v.973h-9.468v-1.77h7.3v-.164a5.4065 5.4065 0 0 0-.351-1.641c-.196-.531-.508-.968-.938-1.312-.429-.344-1.015-.516-1.758-.516-.492 0-.945.106-1.359.317-.414.203-.77.507-1.066.914-.297.406-.528.902-.692 1.488-.164.586-.246 1.262-.246 2.027v.492c0 .602.082 1.168.246 1.7.172.523.418.984.738 1.383.329.398.723.71 1.184.937.469.227 1 .34 1.594.34.765 0 1.414-.156 1.945-.469.531-.312.996-.73 1.395-1.254l1.312 1.043c-.273.414-.621.809-1.043 1.184-.422.375-.941.679-1.558.914-.61.234-1.332.351-2.168.351Zm14.754-3.117 4.312-9.797h2.086L227.727 269h-1.5l-5.625-12.68h2.086l4.289 9.797Zm-4.922-9.797V269h-2.168v-12.68h2.168Zm9.773 12.68v-12.68h2.18V269h-2.18Zm7.641-2.578v1.746c0 .711-.18 1.461-.539 2.25-.36.797-.864 1.461-1.512 1.992l-1.23-.855c.25-.344.46-.696.632-1.055.172-.352.301-.719.387-1.102.094-.375.141-.773.141-1.195v-1.781h2.121Zm11.074-10.102V269h-2.168v-12.68h2.168Zm8.32 0-6.011 7.266h-3.036l-.328-1.898h2.485l4.254-5.368h2.636ZM256.531 269l-4.664-5.742 1.395-1.57 6.023 7.312h-2.754Zm12.117-2.168v-6.527c0-.5-.101-.934-.304-1.301-.196-.375-.492-.664-.891-.867-.398-.203-.891-.305-1.476-.305-.547 0-1.028.094-1.442.281-.406.188-.726.434-.961.739-.226.304-.34.632-.34.984h-2.168c0-.453.118-.902.352-1.348.234-.445.57-.847 1.008-1.207.445-.367.976-.656 1.594-.867.625-.219 1.32-.328 2.085-.328.922 0 1.735.156 2.438.469.711.312 1.266.785 1.664 1.418.406.625.609 1.41.609 2.355v5.906c0 .422.036.871.106 1.348.078.477.191.887.34 1.23V269H269c-.109-.25-.195-.582-.258-.996-.062-.422-.094-.813-.094-1.172Zm.375-5.52.024 1.524h-2.192c-.617 0-1.167.051-1.652.152-.484.094-.891.239-1.219.434-.328.195-.578.441-.75.738-.172.289-.257.629-.257 1.02 0 .398.089.761.269 1.09.18.328.449.589.809.785.367.187.816.281 1.347.281.664 0 1.25-.141 1.758-.422s.91-.625 1.207-1.031c.305-.406.469-.801.492-1.184l.926 1.043c-.055.328-.203.692-.445 1.09-.242.398-.567.781-.973 1.148-.398.36-.875.661-1.429.903-.547.234-1.165.351-1.852.351-.859 0-1.613-.168-2.262-.504-.64-.335-1.14-.785-1.5-1.347-.351-.571-.527-1.207-.527-1.91 0-.68.133-1.278.398-1.793.266-.524.649-.957 1.149-1.301.5-.352 1.101-.617 1.804-.797.704-.18 1.489-.27 2.356-.27h2.519Zm7.559-4.992V269h-2.168v-12.68h2.168Zm8.32 0-6.011 7.266h-3.036l-.328-1.898h2.485l4.254-5.368h2.636ZM282.57 269l-4.664-5.742 1.395-1.57 6.023 7.312h-2.754Zm10.02-6.199v-.27c0-.914.133-1.761.398-2.543.266-.789.649-1.472 1.149-2.05.5-.586 1.105-1.04 1.816-1.36.711-.328 1.508-.492 2.391-.492.89 0 1.691.164 2.402.492.719.32 1.328.774 1.828 1.36.508.578.895 1.261 1.16 2.05.266.782.399 1.629.399 2.543v.27c0 .914-.133 1.761-.399 2.543-.265.781-.652 1.465-1.16 2.051-.5.578-1.105 1.031-1.816 1.359-.703.32-1.5.48-2.391.48-.89 0-1.691-.16-2.402-.48-.711-.328-1.32-.781-1.828-1.359-.5-.586-.883-1.27-1.149-2.051-.265-.782-.398-1.629-.398-2.543Zm2.168-.27v.27c0 .633.074 1.23.222 1.793.149.554.372 1.047.668 1.476.305.43.684.77 1.137 1.02.453.242.981.363 1.582.363.594 0 1.113-.121 1.559-.363.453-.25.828-.59 1.125-1.02.297-.429.519-.922.668-1.476.156-.563.234-1.16.234-1.793v-.27c0-.625-.078-1.215-.234-1.769-.149-.563-.375-1.059-.68-1.489-.297-.437-.672-.781-1.125-1.031-.445-.25-.969-.375-1.57-.375-.594 0-1.117.125-1.571.375-.445.25-.82.594-1.125 1.031-.296.43-.519.926-.668 1.489-.148.554-.222 1.144-.222 1.769Zm20.226-11.73h1.782c0 .765-.118 1.375-.352 1.828-.234.445-.555.789-.961 1.031-.398.242-.851.426-1.359.551-.5.125-1.02.246-1.559.363-.672.141-1.297.364-1.875.668-.57.297-1.062.719-1.476 1.266-.407.547-.707 1.258-.903 2.133-.187.875-.238 1.957-.152 3.246v1.078h-1.781v-1.078c0-1.446.136-2.707.41-3.785.281-1.079.676-1.989 1.183-2.731.508-.742 1.11-1.332 1.805-1.769.703-.438 1.477-.739 2.32-.903.61-.117 1.133-.242 1.571-.375.437-.14.769-.328.996-.562.234-.235.351-.555.351-.961Zm-2.566 6.246c.828 0 1.566.144 2.215.433.648.29 1.199.692 1.652 1.208.453.515.797 1.124 1.031 1.828.243.695.364 1.453.364 2.273v.258c0 .883-.129 1.703-.387 2.461-.25.75-.621 1.406-1.113 1.969-.485.554-1.078.988-1.782 1.3-.695.313-1.488.469-2.378.469-.891 0-1.688-.156-2.391-.469-.695-.312-1.289-.746-1.781-1.3-.493-.563-.868-1.219-1.125-1.969-.25-.758-.375-1.578-.375-2.461v-.258c0-.195.035-.387.105-.574.07-.188.156-.379.258-.574.109-.196.207-.403.293-.621.289-.704.684-1.356 1.184-1.958.507-.601 1.113-1.085 1.816-1.453.711-.375 1.516-.562 2.414-.562Zm-.422 1.769c-.797 0-1.453.184-1.969.551-.507.367-.886.856-1.136 1.465-.25.602-.375 1.254-.375 1.957v.258c0 .594.07 1.156.211 1.687.14.532.351 1.004.632 1.418.289.407.653.727 1.09.961.446.235.969.352 1.571.352.601 0 1.121-.117 1.558-.352.438-.234.797-.554 1.078-.961.282-.414.492-.886.633-1.418.141-.531.211-1.093.211-1.687v-.258c0-.531-.07-1.035-.211-1.512-.141-.476-.355-.898-.644-1.265-.282-.367-.645-.657-1.09-.867-.438-.219-.957-.329-1.559-.329Zm13.406 10.418c-.882 0-1.683-.148-2.402-.445-.711-.305-1.324-.73-1.84-1.277-.508-.547-.898-1.196-1.172-1.946-.273-.75-.41-1.57-.41-2.461v-.492c0-1.031.152-1.949.457-2.754.305-.812.719-1.5 1.242-2.062.524-.563 1.118-.988 1.782-1.277.664-.29 1.351-.434 2.062-.434.906 0 1.688.156 2.344.469.664.312 1.207.75 1.629 1.312.422.555.734 1.211.937 1.969.203.75.305 1.57.305 2.461v.973h-9.469v-1.77h7.301v-.164a5.3782 5.3782 0 0 0-.352-1.641c-.195-.531-.507-.968-.937-1.312-.43-.344-1.016-.516-1.758-.516-.492 0-.945.106-1.359.317-.414.203-.77.507-1.067.914-.297.406-.527.902-.691 1.488-.164.586-.246 1.262-.246 2.027v.492c0 .602.082 1.168.246 1.7.172.523.418.984.738 1.383.328.398.723.71 1.184.937.469.227 1 .34 1.594.34.765 0 1.414-.156 1.945-.469.531-.312.996-.73 1.394-1.254l1.313 1.043c-.274.414-.621.809-1.043 1.184-.422.375-.941.679-1.559.914-.609.234-1.332.351-2.168.351Zm12.539-1.781c.516 0 .993-.105 1.43-.316.438-.211.797-.5 1.078-.867.281-.375.442-.801.481-1.278h2.062c-.039.75-.293 1.449-.762 2.098-.46.64-1.066 1.16-1.816 1.558-.75.391-1.574.586-2.473.586-.953 0-1.785-.168-2.496-.504-.703-.335-1.289-.796-1.757-1.382-.461-.586-.809-1.258-1.043-2.016-.227-.766-.34-1.574-.34-2.426v-.492c0-.852.113-1.656.34-2.414.234-.766.582-1.441 1.043-2.027.468-.586 1.054-1.047 1.757-1.383.711-.336 1.543-.504 2.496-.504.993 0 1.86.203 2.602.609.742.399 1.324.946 1.746 1.641.43.687.664 1.469.703 2.344h-2.062c-.039-.524-.188-.996-.446-1.418-.25-.422-.593-.758-1.031-1.008-.43-.258-.933-.387-1.512-.387-.664 0-1.222.133-1.675.399-.446.257-.801.609-1.067 1.054-.258.438-.445.926-.562 1.465-.11.531-.164 1.074-.164 1.629v.492c0 .555.054 1.102.164 1.641.109.539.293 1.027.551 1.465.265.437.621.789 1.066 1.054.453.258 1.016.387 1.687.387Zm15.938-11.133v1.793h-6.41v-1.793h6.41Zm-6.094 0V269h-2.168v-12.68h2.168Zm8.016 0V269h-2.18v-12.68h2.18Zm8.742 12.914c-.883 0-1.684-.148-2.402-.445-.711-.305-1.325-.73-1.84-1.277-.508-.547-.899-1.196-1.172-1.946-.274-.75-.41-1.57-.41-2.461v-.492c0-1.031.152-1.949.457-2.754.304-.812.719-1.5 1.242-2.062.523-.563 1.117-.988 1.781-1.277.664-.29 1.352-.434 2.063-.434.906 0 1.687.156 2.343.469.665.312 1.207.75 1.629 1.312.422.555.735 1.211.938 1.969.203.75.305 1.57.305 2.461v.973h-9.469v-1.77h7.301v-.164a5.438 5.438 0 0 0-.352-1.641c-.195-.531-.508-.968-.937-1.312-.43-.344-1.016-.516-1.758-.516-.492 0-.946.106-1.36.317-.414.203-.769.507-1.066.914-.297.406-.527.902-.691 1.488-.165.586-.247 1.262-.247 2.027v.492c0 .602.082 1.168.247 1.7.171.523.417.984.738 1.383.328.398.722.71 1.183.937.469.227 1 .34 1.594.34.766 0 1.414-.156 1.945-.469.532-.312.997-.73 1.395-1.254l1.312 1.043c-.273.414-.621.809-1.042 1.184-.422.375-.942.679-1.559.914-.609.234-1.332.351-2.168.351Zm17.027-12.914V269h-2.168v-12.68h2.168Zm-.738 5.825v1.781c-.437.164-.883.312-1.336.445-.445.125-.918.227-1.418.305-.492.07-1.027.105-1.605.105-1 0-1.868-.172-2.602-.515-.734-.352-1.301-.879-1.699-1.582-.399-.711-.598-1.606-.598-2.684v-3.703h2.168V260c0 .703.106 1.273.317 1.711.211.437.519.762.925.973.407.203.903.304 1.489.304.562 0 1.089-.035 1.582-.105.5-.078.976-.18 1.429-.305.461-.125.911-.269 1.348-.433Zm6.574 3.421 5.848-9.246h2.18V269h-2.18v-9.246L387.406 269h-2.156v-12.68h2.156v9.246Zm16.676-9.246V269h-2.18v-12.68h2.18Zm4.254 0v1.758H397.73v-1.758h10.606Zm3.914 4.36h3.809c1.023 0 1.886.179 2.589.539.704.351 1.235.84 1.594 1.465.367.617.551 1.32.551 2.109 0 .586-.102 1.137-.305 1.652-.203.508-.508.953-.914 1.336-.398.383-.894.684-1.488.903-.586.211-1.262.316-2.027.316h-5.391v-12.68h2.168v10.899h3.223c.625 0 1.125-.114 1.5-.34.375-.227.644-.52.808-.879.164-.359.246-.734.246-1.125 0-.383-.082-.758-.246-1.125-.164-.367-.433-.672-.808-.914-.375-.25-.875-.375-1.5-.375h-3.809v-1.781Zm-261.082 27.64V301H149v-12.68h2.168Zm8.32 0-6.011 7.266h-3.036l-.328-1.898h2.485l4.254-5.368h2.636ZM157.156 301l-4.664-5.742 1.395-1.57L159.91 301h-2.754Zm12.117-2.168v-6.527c0-.5-.101-.934-.304-1.301-.196-.375-.492-.664-.891-.867-.398-.203-.89-.305-1.476-.305-.547 0-1.028.094-1.442.281-.406.188-.726.434-.961.739-.226.304-.34.632-.34.984h-2.168c0-.453.118-.902.352-1.348.234-.445.57-.847 1.008-1.207.445-.367.976-.656 1.594-.867.625-.219 1.32-.328 2.085-.328.922 0 1.735.156 2.438.469.711.312 1.266.785 1.664 1.418.406.625.609 1.41.609 2.355v5.906c0 .422.036.871.106 1.348.078.477.191.887.34 1.23V301h-2.262c-.109-.25-.195-.582-.258-.996-.062-.422-.094-.813-.094-1.172Zm.375-5.52.024 1.524h-2.192c-.617 0-1.168.051-1.652.152-.484.094-.89.239-1.219.434-.328.195-.578.441-.75.738-.171.289-.257.629-.257 1.02 0 .398.089.761.269 1.09.18.328.449.589.809.785.367.187.816.281 1.347.281.664 0 1.25-.141 1.758-.422s.91-.625 1.207-1.031c.305-.406.469-.801.492-1.184l.926 1.043c-.055.328-.203.692-.445 1.09-.242.398-.567.781-.973 1.148-.398.36-.875.661-1.43.903-.546.234-1.164.351-1.851.351-.859 0-1.613-.168-2.262-.504-.64-.335-1.14-.785-1.5-1.347-.351-.571-.527-1.207-.527-1.91 0-.68.133-1.278.398-1.793.266-.524.649-.957 1.149-1.301.5-.352 1.101-.617 1.804-.797.704-.18 1.489-.27 2.356-.27h2.519Zm14.766-4.992V301h-2.168v-12.68h2.168Zm-.738 5.825v1.781c-.438.164-.883.312-1.336.445-.445.125-.918.227-1.418.305-.492.07-1.027.105-1.606.105-1 0-1.867-.172-2.601-.515-.735-.352-1.301-.879-1.699-1.582-.399-.711-.598-1.606-.598-2.684v-3.703h2.168V292c0 .703.105 1.273.316 1.711.211.437.52.762.926.973.406.203.902.304 1.488.304.563 0 1.09-.035 1.582-.105.5-.078.977-.18 1.43-.305.461-.125.91-.269 1.348-.433Zm9.492 7.089c-.883 0-1.684-.148-2.402-.445-.711-.305-1.325-.73-1.84-1.277-.508-.547-.899-1.196-1.172-1.946-.274-.75-.41-1.57-.41-2.461v-.492c0-1.031.152-1.949.457-2.754.304-.812.719-1.5 1.242-2.062.523-.563 1.117-.988 1.781-1.277.664-.29 1.352-.434 2.063-.434.906 0 1.687.156 2.343.469.665.312 1.208.75 1.629 1.312.422.555.735 1.211.938 1.969.203.75.305 1.57.305 2.461v.973h-9.469v-1.77h7.301v-.164a5.438 5.438 0 0 0-.352-1.641c-.195-.531-.508-.968-.937-1.312-.43-.344-1.016-.516-1.758-.516-.492 0-.946.106-1.36.317-.414.203-.769.507-1.066.914-.297.406-.527.902-.691 1.488-.165.586-.247 1.262-.247 2.027v.492c0 .602.082 1.168.247 1.7.171.523.418.984.738 1.383.328.398.722.71 1.183.937.469.227 1 .34 1.594.34.766 0 1.414-.156 1.945-.469.532-.312.997-.73 1.395-1.254l1.313 1.043c-.274.414-.622.809-1.043 1.184-.422.375-.942.679-1.559.914-.609.234-1.332.351-2.168.351Zm12.539-1.781c.516 0 .992-.105 1.43-.316.437-.211.797-.5 1.078-.867.281-.375.441-.801.48-1.278h2.063c-.039.75-.293 1.449-.762 2.098-.461.64-1.066 1.16-1.816 1.558-.75.391-1.575.586-2.473.586-.953 0-1.785-.168-2.496-.504-.703-.335-1.289-.796-1.758-1.382-.461-.586-.808-1.258-1.043-2.016-.226-.766-.34-1.574-.34-2.426v-.492c0-.852.114-1.656.34-2.414.235-.766.582-1.441 1.043-2.027.469-.586 1.055-1.047 1.758-1.383.711-.336 1.543-.504 2.496-.504.992 0 1.859.203 2.602.609.742.399 1.324.946 1.746 1.641.429.687.664 1.469.703 2.344h-2.063c-.039-.524-.187-.996-.445-1.418-.25-.422-.594-.758-1.031-1.008-.43-.258-.934-.387-1.512-.387-.664 0-1.223.133-1.676.399-.445.257-.801.609-1.066 1.054-.258.438-.445.926-.563 1.465a8.0806 8.0806 0 0 0-.164 1.629v.492c0 .555.055 1.102.164 1.641.11.539.293 1.027.551 1.465.266.437.621.789 1.067 1.054.453.258 1.015.387 1.687.387Zm12.656-11.133V301h-2.179v-12.68h2.179Zm4.254 0v1.758h-10.605v-1.758h10.605Zm8.086 7.102h-4.16l-.023-1.734h3.398c.672 0 1.23-.067 1.676-.2.453-.133.793-.332 1.019-.597.227-.266.34-.594.34-.985 0-.304-.066-.57-.199-.797-.125-.234-.316-.425-.574-.574-.258-.156-.578-.269-.961-.34-.375-.078-.817-.117-1.324-.117h-2.778V301h-2.168v-12.68h4.946c.804 0 1.527.071 2.167.211.649.141 1.2.356 1.653.645.461.281.812.64 1.055 1.078.242.437.363.953.363 1.547 0 .383-.078.746-.235 1.09-.156.343-.386.648-.691.914-.305.265-.68.484-1.125.656-.445.164-.957.269-1.535.316l-.844.645Zm0 5.578h-4.945l1.078-1.758h3.867c.602 0 1.102-.074 1.5-.222.399-.157.695-.375.891-.657.203-.289.304-.633.304-1.031 0-.398-.101-.738-.304-1.02-.196-.289-.492-.507-.891-.656-.398-.156-.898-.234-1.5-.234h-3.293l.024-1.734h4.113l.785.656c.695.054 1.285.226 1.77.515.484.289.851.657 1.101 1.102.25.437.375.914.375 1.43 0 .593-.113 1.117-.34 1.57-.218.453-.539.832-.961 1.137-.422.297-.933.523-1.535.679-.601.149-1.281.223-2.039.223Zm13.043.234c-.883 0-1.684-.148-2.402-.445-.711-.305-1.324-.73-1.84-1.277-.508-.547-.899-1.196-1.172-1.946-.273-.75-.41-1.57-.41-2.461v-.492c0-1.031.152-1.949.457-2.754.305-.812.719-1.5 1.242-2.062.524-.563 1.117-.988 1.781-1.277.664-.29 1.352-.434 2.063-.434.906 0 1.687.156 2.344.469.664.312 1.207.75 1.629 1.312.421.555.734 1.211.937 1.969.203.75.305 1.57.305 2.461v.973h-9.469v-1.77h7.301v-.164a5.438 5.438 0 0 0-.352-1.641c-.195-.531-.508-.968-.937-1.312-.43-.344-1.016-.516-1.758-.516-.492 0-.945.106-1.36.317-.414.203-.769.507-1.066.914-.297.406-.527.902-.691 1.488-.164.586-.246 1.262-.246 2.027v.492c0 .602.082 1.168.246 1.7.172.523.418.984.738 1.383.328.398.723.71 1.184.937.468.227 1 .34 1.593.34.766 0 1.414-.156 1.946-.469.531-.312.996-.73 1.394-1.254l1.313 1.043c-.274.414-.621.809-1.043 1.184-.422.375-.942.679-1.559.914-.609.234-1.332.351-2.168.351Zm16.066-7.418v1.758h-6.703v-1.758h6.703Zm-6.246-5.496V301h-2.168v-12.68h2.168Zm8.004 0V301h-2.179v-12.68h2.179Zm12.094 5.496v1.758h-6.703v-1.758h6.703Zm-6.246-5.496V301h-2.168v-12.68h2.168Zm8.004 0V301h-2.18v-12.68h2.18Zm7.055 11.368 3.527-11.368h2.32l-5.086 14.637c-.117.313-.273.648-.468 1.008-.188.367-.43.715-.727 1.043-.297.328-.656.594-1.078.797-.414.211-.91.316-1.488.316-.172 0-.391-.023-.657-.07-.265-.047-.453-.086-.562-.117l-.012-1.758c.063.008.16.015.293.023.141.016.238.024.293.024.492 0 .91-.067 1.254-.2.344-.125.633-.339.867-.644.242-.297.449-.707.621-1.231l.903-2.46Zm-2.59-11.368 3.293 9.844.562 2.285-1.558.797-4.664-12.926h2.367Zm17.613 5.379v1.77h-6.738v-1.77h6.738Zm-4.852-5.379V301h-2.168v-12.68h2.168Zm3 6.481v-.27c0-.914.133-1.761.399-2.543.265-.789.648-1.472 1.148-2.05.508-.586 1.114-1.04 1.817-1.36.711-.328 1.508-.492 2.39-.492.899 0 1.703.164 2.414.492.711.32 1.317.774 1.817 1.36.508.578.894 1.261 1.16 2.05.266.782.398 1.629.398 2.543v.27c0 .914-.132 1.761-.398 2.543-.266.781-.648 1.465-1.148 2.051-.5.578-1.106 1.031-1.817 1.359-.711.32-1.512.48-2.402.48-.891 0-1.692-.16-2.403-.48-.711-.328-1.32-.781-1.828-1.359-.5-.586-.883-1.27-1.148-2.051-.266-.782-.399-1.629-.399-2.543Zm2.18-.27v.27c0 .633.074 1.23.223 1.793.148.554.371 1.047.668 1.476.304.43.679.77 1.125 1.02.453.242.98.363 1.582.363.601 0 1.125-.121 1.57-.363.453-.25.828-.59 1.125-1.02.297-.429.52-.922.668-1.476.156-.563.234-1.16.234-1.793v-.27c0-.625-.078-1.215-.234-1.769-.148-.563-.375-1.059-.68-1.489-.297-.437-.671-.781-1.125-1.031-.453-.25-.98-.375-1.582-.375-.593 0-1.113.125-1.558.375-.446.25-.821.594-1.125 1.031-.297.43-.52.926-.668 1.489-.149.554-.223 1.144-.223 1.769Zm26.449-6.211v1.793h-6.41v-1.793h6.41Zm-6.093 0V301h-2.168v-12.68h2.168Zm8.015 0V301h-2.179v-12.68h2.179Zm2.906 6.481v-.27c0-.914.133-1.761.399-2.543.266-.789.648-1.472 1.148-2.05.5-.586 1.106-1.04 1.817-1.36.711-.328 1.508-.492 2.39-.492.891 0 1.692.164 2.403.492.718.32 1.328.774 1.828 1.36.508.578.894 1.261 1.16 2.05.266.782.398 1.629.398 2.543v.27c0 .914-.132 1.761-.398 2.543-.266.781-.652 1.465-1.16 2.051-.5.578-1.106 1.031-1.817 1.359-.703.32-1.5.48-2.39.48-.891 0-1.692-.16-2.403-.48-.71-.328-1.32-.781-1.828-1.359-.5-.586-.882-1.27-1.148-2.051-.266-.782-.399-1.629-.399-2.543Zm2.168-.27v.27c0 .633.075 1.23.223 1.793.149.554.371 1.047.668 1.476.305.43.684.77 1.137 1.02.453.242.98.363 1.582.363.594 0 1.113-.121 1.558-.363.454-.25.829-.59 1.125-1.02.297-.429.52-.922.668-1.476.157-.563.235-1.16.235-1.793v-.27c0-.625-.078-1.215-.235-1.769-.148-.563-.375-1.059-.679-1.489-.297-.437-.672-.781-1.125-1.031-.446-.25-.969-.375-1.571-.375-.593 0-1.117.125-1.57.375-.445.25-.82.594-1.125 1.031-.297.43-.519.926-.668 1.489-.148.554-.223 1.144-.223 1.769Zm13.536-6.211h2.168l-.188 4.746c-.047 1.204-.184 2.243-.41 3.118-.227.875-.516 1.621-.867 2.238-.352.609-.746 1.121-1.184 1.535-.43.414-.875.762-1.336 1.043h-1.078l.059-1.77.445-.011c.258-.305.508-.617.75-.938.242-.328.465-.715.668-1.16.203-.453.371-1.004.504-1.652.14-.657.23-1.457.269-2.403l.2-4.746Zm.539 0h7.629V301h-2.168v-10.676h-5.461v-2.004Zm-3.926 10.899h13.183v5.519h-2.167V301h-8.848v3.738h-2.18l.012-5.519Zm18.105-10.899h2.168l-.187 4.746c-.047 1.204-.184 2.243-.41 3.118-.227.875-.516 1.621-.868 2.238-.351.609-.746 1.121-1.183 1.535-.43.414-.875.762-1.336 1.043h-1.078l.058-1.77.446-.011c.258-.305.508-.617.75-.938.242-.328.465-.715.668-1.16.203-.453.371-1.004.504-1.652.14-.657.23-1.457.269-2.403l.199-4.746Zm.539 0h7.629V301h-2.168v-10.676h-5.461v-2.004Zm-3.925 10.899h13.183v5.519h-2.168V301h-8.847v3.738h-2.18l.012-5.519Zm20.847 2.015c-.883 0-1.683-.148-2.402-.445-.711-.305-1.324-.73-1.84-1.277-.508-.547-.898-1.196-1.172-1.946-.273-.75-.41-1.57-.41-2.461v-.492c0-1.031.152-1.949.457-2.754.305-.812.719-1.5 1.242-2.062.524-.563 1.117-.988 1.782-1.277.664-.29 1.351-.434 2.062-.434.906 0 1.688.156 2.344.469.664.312 1.207.75 1.629 1.312.422.555.734 1.211.937 1.969.203.75.305 1.57.305 2.461v.973h-9.469v-1.77h7.301v-.164c-.031-.563-.149-1.109-.352-1.641-.195-.531-.507-.968-.937-1.312-.43-.344-1.016-.516-1.758-.516-.492 0-.945.106-1.359.317-.414.203-.77.507-1.067.914-.297.406-.527.902-.691 1.488-.164.586-.246 1.262-.246 2.027v.492c0 .602.082 1.168.246 1.7.172.523.418.984.738 1.383.328.398.723.71 1.184.937.468.227 1 .34 1.593.34.766 0 1.415-.156 1.946-.469.531-.312.996-.73 1.394-1.254l1.313 1.043c-.274.414-.621.809-1.043 1.184-.422.375-.942.679-1.559.914-.609.234-1.332.351-2.168.351Zm9.633-10.476v15.117h-2.18V288.32h1.993l.187 2.438Zm8.543 3.797v.246c0 .922-.109 1.777-.328 2.566-.219.781-.539 1.461-.961 2.039-.414.578-.926 1.028-1.535 1.348-.61.32-1.309.48-2.098.48-.804 0-1.515-.132-2.133-.398-.617-.266-1.14-.652-1.57-1.16-.43-.508-.773-1.117-1.031-1.828-.25-.711-.422-1.512-.516-2.403v-1.312c.094-.938.27-1.778.528-2.52.257-.742.597-1.375 1.019-1.898.43-.531.949-.934 1.559-1.207.609-.281 1.312-.422 2.109-.422.797 0 1.504.156 2.121.469.617.304 1.137.742 1.559 1.312.422.571.738 1.254.949 2.051.219.789.328 1.668.328 2.637Zm-2.18.246v-.246c0-.633-.066-1.227-.199-1.782-.133-.562-.34-1.054-.621-1.476-.273-.43-.625-.766-1.055-1.008-.429-.25-.941-.375-1.535-.375-.547 0-1.023.094-1.429.281-.399.188-.739.442-1.02.762-.281.313-.512.672-.691 1.078a6.214 6.214 0 0 0-.387 1.242v3.035c.156.547.375 1.063.656 1.547.281.477.656.864 1.125 1.161.469.289 1.059.433 1.77.433.586 0 1.09-.121 1.511-.363.43-.25.782-.59 1.055-1.02.281-.429.488-.922.621-1.476.133-.563.199-1.16.199-1.793Zm8.602.679-4.805-7.16h2.614l3.281 5.25h2.531l-.316 1.91h-3.305Zm1.184-.222L399.09 301h-2.742l5.05-7.312 1.372 1.57Zm3.55-6.938V301h-2.168v-12.68h2.168Zm7.395 0-4.805 7.16h-3.305l-.339-1.91h2.543l3.281-5.25h2.625Zm-2.32 12.68-3.692-5.742 1.395-1.57 5.039 7.312h-2.742Zm7.101-12.68V301h-2.168v-12.68h2.168Zm8.32 0-6.011 7.266h-3.035l-.329-1.898h2.485l4.254-5.368h2.636ZM424.484 301l-4.664-5.742 1.395-1.57 6.023 7.312h-2.754Zm8.204-1.312 3.527-11.368h2.32l-5.086 14.637c-.117.313-.273.648-.469 1.008-.187.367-.429.715-.726 1.043-.297.328-.656.594-1.078.797-.414.211-.91.316-1.488.316-.172 0-.391-.023-.657-.07-.265-.047-.453-.086-.562-.117l-.012-1.758c.063.008.16.015.293.023.141.016.238.024.293.024.492 0 .91-.067 1.254-.2.344-.125.633-.339.867-.644.242-.297.449-.707.621-1.231l.903-2.46Zm-2.59-11.368 3.293 9.844.562 2.285-1.558.797-4.665-12.926h2.368Zm-230.145 41.246 5.848-9.246h2.179V333h-2.179v-9.246L199.953 333h-2.156v-12.68h2.156v9.246Zm19.629-6.808v15.117h-2.18V320.32h1.993l.187 2.438Zm8.543 3.797v.246c0 .922-.109 1.777-.328 2.566-.219.781-.539 1.461-.961 2.039-.414.578-.926 1.028-1.535 1.348-.61.32-1.309.48-2.098.48-.805 0-1.515-.132-2.133-.398-.617-.266-1.14-.652-1.57-1.16-.43-.508-.773-1.117-1.031-1.828-.25-.711-.422-1.512-.516-2.403v-1.312c.094-.938.27-1.778.527-2.52.258-.742.598-1.375 1.02-1.898.43-.531.949-.934 1.559-1.207.609-.281 1.312-.422 2.109-.422.797 0 1.504.156 2.121.469.617.304 1.137.742 1.559 1.312.422.571.738 1.254.949 2.051.219.789.328 1.668.328 2.637Zm-2.18.246v-.246c0-.633-.066-1.227-.199-1.782-.133-.562-.34-1.054-.621-1.476-.273-.43-.625-.766-1.055-1.008-.429-.25-.941-.375-1.535-.375-.547 0-1.023.094-1.43.281-.398.188-.738.442-1.019.762-.281.313-.512.672-.691 1.078a6.214 6.214 0 0 0-.387 1.242v3.035c.156.547.375 1.063.656 1.547.281.477.656.864 1.125 1.161.469.289 1.059.433 1.77.433.586 0 1.089-.121 1.511-.363.43-.25.782-.59 1.055-1.02.281-.429.488-.922.621-1.476.133-.563.199-1.16.199-1.793Zm12.422 4.031v-6.527c0-.5-.101-.934-.305-1.301-.195-.375-.492-.664-.89-.867-.399-.203-.891-.305-1.477-.305-.547 0-1.027.094-1.441.281-.406.188-.727.434-.961.739-.227.304-.34.632-.34.984h-2.168c0-.453.117-.902.352-1.348.234-.445.57-.847 1.008-1.207.445-.367.976-.656 1.593-.867.625-.219 1.321-.328 2.086-.328.922 0 1.735.156 2.438.469.711.312 1.265.785 1.664 1.418.406.625.609 1.41.609 2.355v5.906c0 .422.035.871.106 1.348.078.477.191.887.339 1.23V333h-2.261c-.11-.25-.196-.582-.258-.996-.063-.422-.094-.813-.094-1.172Zm.375-5.52.024 1.524h-2.192c-.617 0-1.168.051-1.652.152-.484.094-.891.239-1.219.434-.328.195-.578.441-.75.738-.172.289-.258.629-.258 1.02 0 .398.09.761.27 1.09.18.328.449.589.808.785.368.187.817.281 1.348.281.664 0 1.25-.141 1.758-.422s.91-.625 1.207-1.031c.305-.406.469-.801.492-1.184l.926 1.043c-.055.328-.203.692-.445 1.09-.243.398-.567.781-.973 1.148-.398.36-.875.661-1.43.903-.547.234-1.164.351-1.851.351-.86 0-1.614-.168-2.262-.504-.641-.335-1.141-.785-1.5-1.347-.352-.571-.527-1.207-.527-1.91 0-.68.132-1.278.398-1.793.266-.524.648-.957 1.148-1.301.5-.352 1.102-.617 1.805-.797.703-.18 1.488-.27 2.356-.27h2.519Zm9.938 1.629h-2.332v-1.336h2.156c.601 0 1.078-.074 1.43-.222.351-.156.601-.371.75-.645.148-.273.222-.593.222-.961 0-.328-.086-.636-.258-.925-.164-.297-.429-.536-.796-.715-.368-.188-.86-.282-1.477-.282-.5 0-.953.09-1.359.27-.407.172-.731.41-.973.715-.234.297-.352.633-.352 1.008h-2.168c0-.774.219-1.438.657-1.993.445-.562 1.035-.996 1.769-1.3.742-.305 1.551-.457 2.426-.457.734 0 1.391.082 1.969.246.586.156 1.082.39 1.488.703.406.305.715.687.926 1.148.219.453.328.981.328 1.582 0 .43-.102.836-.305 1.219-.203.383-.496.723-.879 1.02-.382.289-.847.515-1.394.679-.539.164-1.149.246-1.828.246Zm-2.332-.82h2.332c.758 0 1.425.074 2.004.223.578.14 1.062.351 1.453.633.39.281.683.628.879 1.043.203.406.304.875.304 1.406 0 .594-.121 1.129-.363 1.605-.234.469-.57.867-1.008 1.196-.437.328-.961.578-1.57.75-.602.171-1.27.257-2.004.257-.82 0-1.617-.14-2.391-.422-.773-.281-1.41-.714-1.91-1.3-.5-.594-.75-1.348-.75-2.262h2.168c0 .383.121.746.363 1.09.243.344.579.621 1.008.832.438.211.942.316 1.512.316.609 0 1.117-.093 1.523-.281.407-.187.711-.437.914-.75.211-.312.317-.652.317-1.019 0-.477-.094-.86-.281-1.149-.188-.289-.477-.5-.868-.633-.382-.14-.875-.211-1.476-.211h-2.156v-1.324Zm15.738 1.301h-4.16l-.024-1.734h3.399c.672 0 1.23-.067 1.676-.2.453-.133.793-.332 1.019-.597.227-.266.34-.594.34-.985 0-.304-.066-.57-.199-.797-.125-.234-.317-.425-.575-.574-.257-.156-.578-.269-.96-.34-.375-.078-.817-.117-1.325-.117H258.5V333h-2.168v-12.68h4.945c.805 0 1.528.071 2.168.211.649.141 1.2.356 1.653.645.461.281.812.64 1.054 1.078.243.437.364.953.364 1.547 0 .383-.078.746-.235 1.09-.156.343-.386.648-.691.914-.305.265-.68.484-1.125.656-.445.164-.957.269-1.535.316l-.844.645Zm0 5.578h-4.945l1.078-1.758h3.867c.602 0 1.102-.074 1.5-.222.398-.157.695-.375.891-.657.203-.289.304-.633.304-1.031 0-.398-.101-.738-.304-1.02-.196-.289-.493-.507-.891-.656-.398-.156-.898-.234-1.5-.234h-3.293l.023-1.734h4.114l.785.656c.695.054 1.285.226 1.769.515.485.289.852.657 1.102 1.102.25.437.375.914.375 1.43 0 .593-.113 1.117-.34 1.57-.219.453-.539.832-.961 1.137-.422.297-.933.523-1.535.679-.602.149-1.281.223-2.039.223Zm10.125-3.434 5.848-9.246h2.179V333h-2.179v-9.246L272.211 333h-2.156v-12.68h2.156v9.246Zm16.676-9.246V333h-2.18v-12.68h2.18Zm4.254 0v1.758h-10.606v-1.758h10.606Zm4.476 9.246 5.848-9.246h2.18V333h-2.18v-9.246L297.617 333h-2.156v-12.68h2.156v9.246Zm16.77 3.668c-.883 0-1.684-.148-2.403-.445-.711-.305-1.324-.73-1.839-1.277-.508-.547-.899-1.196-1.172-1.946-.274-.75-.411-1.57-.411-2.461v-.492c0-1.031.153-1.949.458-2.754.304-.812.718-1.5 1.242-2.062.523-.563 1.117-.988 1.781-1.277.664-.29 1.352-.434 2.062-.434.907 0 1.688.156 2.344.469.664.312 1.207.75 1.629 1.312.422.555.734 1.211.938 1.969.203.75.304 1.57.304 2.461v.973h-9.468v-1.77h7.3v-.164a5.4065 5.4065 0 0 0-.351-1.641c-.196-.531-.508-.968-.938-1.312-.429-.344-1.015-.516-1.758-.516-.492 0-.945.106-1.359.317-.414.203-.769.507-1.066.914-.297.406-.528.902-.692 1.488-.164.586-.246 1.262-.246 2.027v.492c0 .602.082 1.168.246 1.7.172.523.418.984.739 1.383.328.398.722.71 1.183.937.469.227 1 .34 1.594.34.766 0 1.414-.156 1.945-.469.531-.312.996-.73 1.395-1.254l1.312 1.043c-.273.414-.621.809-1.043 1.184-.422.375-.941.679-1.558.914-.61.234-1.332.351-2.168.351Zm18.492-1.781c.516 0 .992-.105 1.43-.316.437-.211.796-.5 1.078-.867.281-.375.441-.801.48-1.278h2.063c-.039.75-.293 1.449-.762 2.098-.461.64-1.066 1.16-1.816 1.558-.75.391-1.575.586-2.473.586-.953 0-1.785-.168-2.496-.504-.703-.335-1.289-.796-1.758-1.382-.461-.586-.809-1.258-1.043-2.016-.227-.766-.34-1.574-.34-2.426v-.492c0-.852.113-1.656.34-2.414.234-.766.582-1.441 1.043-2.027.469-.586 1.055-1.047 1.758-1.383.711-.336 1.543-.504 2.496-.504.992 0 1.859.203 2.601.609.743.399 1.325.946 1.747 1.641.429.687.664 1.469.703 2.344h-2.063c-.039-.524-.187-.996-.445-1.418-.25-.422-.594-.758-1.031-1.008-.43-.258-.934-.387-1.512-.387-.664 0-1.223.133-1.676.399-.445.257-.801.609-1.066 1.054-.258.438-.446.926-.563 1.465a8.0806 8.0806 0 0 0-.164 1.629v.492c0 .555.055 1.102.164 1.641.11.539.293 1.027.551 1.465.266.437.621.789 1.066 1.054.454.258 1.016.387 1.688.387Zm14.965-.621v-6.527c0-.5-.102-.934-.305-1.301-.195-.375-.492-.664-.891-.867-.398-.203-.89-.305-1.476-.305-.547 0-1.027.094-1.442.281-.406.188-.726.434-.96.739-.227.304-.34.632-.34.984h-2.168c0-.453.117-.902.351-1.348.235-.445.571-.847 1.008-1.207.445-.367.977-.656 1.594-.867.625-.219 1.32-.328 2.086-.328.922 0 1.734.156 2.437.469.711.312 1.266.785 1.664 1.418.407.625.61 1.41.61 2.355v5.906c0 .422.035.871.105 1.348.078.477.192.887.34 1.23V333h-2.262c-.109-.25-.195-.582-.257-.996-.063-.422-.094-.813-.094-1.172Zm.375-5.52.023 1.524h-2.191c-.617 0-1.168.051-1.653.152-.484.094-.89.239-1.218.434-.328.195-.578.441-.75.738-.172.289-.258.629-.258 1.02 0 .398.09.761.269 1.09.18.328.45.589.809.785.367.187.816.281 1.348.281.664 0 1.25-.141 1.757-.422.508-.281.911-.625 1.207-1.031.305-.406.469-.801.493-1.184l.925 1.043c-.054.328-.203.692-.445 1.09-.242.398-.566.781-.973 1.148-.398.36-.874.661-1.429.903-.547.234-1.164.351-1.852.351-.859 0-1.613-.168-2.261-.504-.641-.335-1.141-.785-1.5-1.347-.352-.571-.528-1.207-.528-1.91 0-.68.133-1.278.399-1.793.265-.524.648-.957 1.148-1.301.5-.352 1.102-.617 1.805-.797.703-.18 1.488-.27 2.355-.27h2.52Zm7.547 4.254 5.847-9.246h2.18V333h-2.18v-9.246L355.766 333h-2.157v-12.68h2.157v9.246Zm4.664-13.839h1.758c0 .609-.141 1.152-.422 1.628-.282.469-.684.836-1.207 1.102-.524.266-1.145.398-1.864.398-1.086 0-1.945-.289-2.578-.867-.625-.586-.937-1.34-.937-2.261h1.758c0 .461.132.867.398 1.218.266.352.719.528 1.359.528.625 0 1.071-.176 1.336-.528.266-.351.399-.757.399-1.218Zm12.011 4.593V333h-2.179v-12.68h2.179Zm4.254 0v1.758H366.09v-1.758h10.605Zm9.422 10.512v-6.527c0-.5-.101-.934-.305-1.301-.195-.375-.492-.664-.89-.867-.399-.203-.891-.305-1.477-.305-.547 0-1.027.094-1.441.281-.406.188-.727.434-.961.739-.227.304-.34.632-.34.984h-2.168c0-.453.117-.902.352-1.348.234-.445.57-.847 1.008-1.207.445-.367.976-.656 1.593-.867.625-.219 1.321-.328 2.086-.328.922 0 1.735.156 2.438.469.711.312 1.265.785 1.664 1.418.406.625.609 1.41.609 2.355v5.906c0 .422.035.871.106 1.348.078.477.191.887.339 1.23V333h-2.261c-.11-.25-.196-.582-.258-.996-.063-.422-.094-.813-.094-1.172Zm.375-5.52.024 1.524h-2.192c-.617 0-1.168.051-1.652.152-.484.094-.891.239-1.219.434-.328.195-.578.441-.75.738-.172.289-.258.629-.258 1.02 0 .398.09.761.27 1.09.18.328.449.589.808.785.368.187.817.281 1.348.281.664 0 1.25-.141 1.758-.422s.91-.625 1.207-1.031c.305-.406.469-.801.492-1.184l.926 1.043c-.055.328-.203.692-.445 1.09-.243.398-.567.781-.973 1.148-.398.36-.875.661-1.43.903-.547.234-1.164.351-1.851.351-.86 0-1.614-.168-2.262-.504-.641-.335-1.141-.785-1.5-1.347-.352-.571-.527-1.207-.527-1.91 0-.68.132-1.278.398-1.793.266-.524.648-.957 1.148-1.301.5-.352 1.102-.617 1.805-.797.703-.18 1.488-.27 2.356-.27h2.519Z" />
  </g>
  <g class="circle">
    <circle cx="840" cy="293" r="292.5" stroke="#4D4D4D" />
    <path fill="#fff"
      d="M698.316 261.02h-4.324l-.023-1.817h3.926c.648 0 1.214-.109 1.699-.328.484-.219.859-.531 1.125-.937.273-.415.41-.907.41-1.477 0-.625-.121-1.133-.363-1.523-.235-.399-.598-.688-1.09-.868-.485-.187-1.102-.281-1.852-.281h-3.328V269h-2.262v-17.062h5.59c.875 0 1.656.089 2.344.269.687.172 1.27.445 1.746.82.484.368.852.836 1.102 1.407.25.57.375 1.254.375 2.05 0 .704-.18 1.34-.539 1.911-.36.562-.86 1.023-1.5 1.382-.633.36-1.375.59-2.227.692l-.809.551Zm-.105 7.98h-5.109l1.277-1.84h3.832c.719 0 1.328-.125 1.828-.375.508-.25.895-.601 1.16-1.055.266-.46.399-1.003.399-1.628 0-.633-.114-1.18-.34-1.641-.227-.461-.582-.816-1.067-1.066-.484-.25-1.109-.375-1.875-.375h-3.222l.023-1.817h4.406l.481.656c.82.071 1.516.305 2.086.703.57.391 1.004.891 1.301 1.5.304.61.457 1.282.457 2.016 0 1.063-.235 1.961-.703 2.695-.461.727-1.114 1.282-1.957 1.665-.844.374-1.836.562-2.977.562Zm10.43-8.32h3.808c1.024 0 1.887.179 2.59.539.703.351 1.234.84 1.594 1.465.367.617.551 1.32.551 2.109 0 .586-.102 1.137-.305 1.652-.203.508-.508.953-.914 1.336-.399.383-.895.684-1.488.903-.586.211-1.262.316-2.028.316h-5.39v-12.68h2.168v10.899h3.222c.625 0 1.125-.114 1.5-.34.375-.227.645-.52.809-.879.164-.359.246-.734.246-1.125 0-.383-.082-.758-.246-1.125-.164-.367-.434-.672-.809-.914-.375-.25-.875-.375-1.5-.375h-3.808v-1.781Zm13.054-4.36V269h-2.168v-12.68h2.168Zm8.871 11.133c.516 0 .993-.105 1.43-.316.438-.211.797-.5 1.078-.867.281-.375.442-.801.481-1.278h2.062c-.039.75-.293 1.449-.762 2.098-.46.64-1.066 1.16-1.816 1.558-.75.391-1.574.586-2.473.586-.953 0-1.785-.168-2.496-.504-.703-.335-1.289-.796-1.758-1.382-.46-.586-.808-1.258-1.042-2.016-.227-.766-.34-1.574-.34-2.426v-.492c0-.852.113-1.656.34-2.414.234-.766.582-1.441 1.042-2.027.469-.586 1.055-1.047 1.758-1.383.711-.336 1.543-.504 2.496-.504.993 0 1.86.203 2.602.609.742.399 1.324.946 1.746 1.641.43.687.664 1.469.703 2.344h-2.062c-.039-.524-.188-.996-.446-1.418-.25-.422-.593-.758-1.031-1.008-.43-.258-.933-.387-1.512-.387-.664 0-1.222.133-1.675.399-.446.257-.801.609-1.067 1.054-.258.438-.445.926-.562 1.465-.11.531-.164 1.074-.164 1.629v.492c0 .555.054 1.102.164 1.641.109.539.293 1.027.55 1.465.266.437.622.789 1.067 1.054.453.258 1.016.387 1.687.387Zm12.657-11.133V269h-2.18v-12.68h2.18Zm4.254 0v1.758h-10.606v-1.758h10.606Zm4.3 2.438v15.117h-2.179V256.32h1.992l.187 2.438Zm8.543 3.797v.246c0 .922-.109 1.777-.328 2.566-.219.781-.539 1.461-.961 2.039-.414.578-.926 1.028-1.535 1.348-.609.32-1.308.48-2.098.48-.804 0-1.515-.132-2.132-.398-.618-.266-1.141-.652-1.571-1.16-.429-.508-.773-1.117-1.031-1.828-.25-.711-.422-1.512-.516-2.403v-1.312c.094-.938.27-1.778.528-2.52s.597-1.375 1.019-1.898c.43-.531.95-.934 1.559-1.207.609-.281 1.312-.422 2.109-.422.797 0 1.504.156 2.121.469.618.304 1.137.742 1.559 1.312.422.571.738 1.254.949 2.051.219.789.328 1.668.328 2.637Zm-2.179.246v-.246c0-.633-.067-1.227-.2-1.782-.132-.562-.339-1.054-.621-1.476-.273-.43-.625-.766-1.054-1.008-.43-.25-.942-.375-1.536-.375-.546 0-1.023.094-1.429.281-.399.188-.739.442-1.02.762-.281.313-.511.672-.691 1.078a6.214 6.214 0 0 0-.387 1.242v3.035c.156.547.375 1.063.656 1.547.282.477.657.864 1.125 1.161.469.289 1.059.433 1.77.433.586 0 1.09-.121 1.512-.363.429-.25.781-.59 1.054-1.02.282-.429.489-.922.621-1.476.133-.563.2-1.16.2-1.793Zm12.421 4.031v-6.527c0-.5-.101-.934-.304-1.301-.196-.375-.492-.664-.891-.867-.398-.203-.89-.305-1.476-.305-.547 0-1.028.094-1.442.281-.406.188-.726.434-.961.739-.226.304-.34.632-.34.984h-2.168c0-.453.118-.902.352-1.348.234-.445.57-.847 1.008-1.207.445-.367.976-.656 1.594-.867.625-.219 1.32-.328 2.086-.328.921 0 1.734.156 2.437.469.711.312 1.266.785 1.664 1.418.406.625.609 1.41.609 2.355v5.906c0 .422.036.871.106 1.348.078.477.191.887.34 1.23V269h-2.262c-.109-.25-.195-.582-.258-.996-.062-.422-.094-.813-.094-1.172Zm.376-5.52.023 1.524h-2.191c-.618 0-1.168.051-1.653.152-.484.094-.89.239-1.219.434-.328.195-.578.441-.75.738-.171.289-.257.629-.257 1.02 0 .398.089.761.269 1.09.18.328.449.589.809.785.367.187.816.281 1.347.281.664 0 1.25-.141 1.758-.422s.91-.625 1.207-1.031c.305-.406.469-.801.492-1.184l.926 1.043c-.054.328-.203.692-.445 1.09-.242.398-.566.781-.973 1.148-.398.36-.875.661-1.429.903-.547.234-1.164.351-1.852.351-.859 0-1.613-.168-2.262-.504-.64-.335-1.14-.785-1.5-1.347-.351-.571-.527-1.207-.527-1.91 0-.68.133-1.278.398-1.793.266-.524.649-.957 1.149-1.301.5-.352 1.101-.617 1.804-.797.704-.18 1.489-.27 2.356-.27h2.52Zm7.546 4.254 5.848-9.246h2.18V269h-2.18v-9.246L778.484 269h-2.156v-12.68h2.156v9.246Zm17.461-2.144h-4.16l-.023-1.734h3.398c.672 0 1.231-.067 1.676-.2.453-.133.793-.332 1.019-.597.227-.266.34-.594.34-.985 0-.304-.066-.57-.199-.797-.125-.234-.316-.425-.574-.574-.258-.156-.578-.269-.961-.34-.375-.078-.816-.117-1.324-.117h-2.778V269h-2.168v-12.68h4.946c.804 0 1.527.071 2.168.211.648.141 1.199.356 1.652.645.461.281.813.64 1.055 1.078.242.437.363.953.363 1.547 0 .383-.078.746-.234 1.09-.157.343-.387.648-.692.914-.304.265-.679.484-1.125.656-.445.164-.957.269-1.535.316l-.844.645Zm0 5.578H791l1.078-1.758h3.867c.602 0 1.102-.074 1.5-.222.399-.157.696-.375.891-.657.203-.289.305-.633.305-1.031 0-.398-.102-.738-.305-1.02-.195-.289-.492-.507-.891-.656-.398-.156-.898-.234-1.5-.234h-3.293l.024-1.734h4.113l.785.656c.696.054 1.285.226 1.77.515.484.289.851.657 1.101 1.102.25.437.375.914.375 1.43 0 .593-.113 1.117-.34 1.57-.218.453-.539.832-.96 1.137-.422.297-.934.523-1.536.679-.601.149-1.281.223-2.039.223Zm15.258-2.168v-6.527c0-.5-.101-.934-.305-1.301-.195-.375-.492-.664-.89-.867-.399-.203-.891-.305-1.477-.305-.547 0-1.027.094-1.441.281-.406.188-.727.434-.961.739-.227.304-.34.632-.34.984h-2.168c0-.453.117-.902.352-1.348.234-.445.57-.847 1.007-1.207.446-.367.977-.656 1.594-.867.625-.219 1.321-.328 2.086-.328.922 0 1.735.156 2.438.469.711.312 1.265.785 1.664 1.418.406.625.609 1.41.609 2.355v5.906c0 .422.035.871.106 1.348.078.477.191.887.339 1.23V269h-2.261c-.11-.25-.196-.582-.258-.996-.063-.422-.094-.813-.094-1.172Zm.375-5.52.024 1.524h-2.192c-.617 0-1.168.051-1.652.152-.485.094-.891.239-1.219.434-.328.195-.578.441-.75.738-.172.289-.258.629-.258 1.02 0 .398.09.761.27 1.09.179.328.449.589.808.785.368.187.817.281 1.348.281.664 0 1.25-.141 1.758-.422s.91-.625 1.207-1.031c.305-.406.469-.801.492-1.184l.926 1.043c-.055.328-.203.692-.445 1.09-.243.398-.567.781-.973 1.148-.399.36-.875.661-1.43.903-.547.234-1.164.351-1.851.351-.86 0-1.614-.168-2.262-.504-.641-.335-1.141-.785-1.5-1.347-.352-.571-.527-1.207-.527-1.91 0-.68.132-1.278.398-1.793.266-.524.648-.957 1.148-1.301.5-.352 1.102-.617 1.805-.797.703-.18 1.488-.27 2.356-.27h2.519Zm10.465 7.922c-.883 0-1.684-.148-2.402-.445-.711-.305-1.325-.73-1.84-1.277-.508-.547-.899-1.196-1.172-1.946-.274-.75-.41-1.57-.41-2.461v-.492c0-1.031.152-1.949.457-2.754.304-.812.719-1.5 1.242-2.062.523-.563 1.117-.988 1.781-1.277.664-.29 1.352-.434 2.063-.434.906 0 1.687.156 2.343.469.665.312 1.207.75 1.629 1.312.422.555.735 1.211.938 1.969.203.75.305 1.57.305 2.461v.973h-9.469v-1.77h7.301v-.164a5.438 5.438 0 0 0-.352-1.641c-.195-.531-.508-.968-.937-1.312-.43-.344-1.016-.516-1.758-.516-.492 0-.946.106-1.36.317-.414.203-.769.507-1.066.914-.297.406-.527.902-.691 1.488-.165.586-.247 1.262-.247 2.027v.492c0 .602.082 1.168.247 1.7.171.523.417.984.738 1.383.328.398.722.71 1.183.937.469.227 1 .34 1.594.34.766 0 1.414-.156 1.945-.469.532-.312.997-.73 1.395-1.254l1.312 1.043c-.273.414-.621.809-1.042 1.184-.422.375-.942.679-1.559.914-.609.234-1.332.351-2.168.351Zm14.754-3.117 4.312-9.797h2.086L837.547 269h-1.5l-5.625-12.68h2.086l4.289 9.797Zm-4.922-9.797V269h-2.168v-12.68h2.168Zm9.773 12.68v-12.68h2.18V269h-2.18Zm20.075-12.68v1.793h-6.411v-1.793h6.411Zm-6.094 0V269h-2.168v-12.68h2.168Zm8.016 0V269h-2.18v-12.68h2.18Zm5.648 2.438v15.117h-2.18V256.32h1.992l.188 2.438Zm8.543 3.797v.246c0 .922-.109 1.777-.328 2.566-.219.781-.539 1.461-.961 2.039-.414.578-.926 1.028-1.535 1.348-.61.32-1.309.48-2.098.48-.805 0-1.516-.132-2.133-.398s-1.14-.652-1.57-1.16c-.43-.508-.773-1.117-1.031-1.828-.25-.711-.422-1.512-.516-2.403v-1.312c.094-.938.27-1.778.527-2.52.258-.742.598-1.375 1.02-1.898.43-.531.949-.934 1.559-1.207.609-.281 1.312-.422 2.109-.422.797 0 1.504.156 2.121.469.617.304 1.137.742 1.559 1.312.421.571.738 1.254.949 2.051.219.789.328 1.668.328 2.637Zm-2.18.246v-.246c0-.633-.066-1.227-.199-1.782-.133-.562-.34-1.054-.621-1.476-.274-.43-.625-.766-1.055-1.008-.429-.25-.941-.375-1.535-.375-.547 0-1.023.094-1.43.281-.398.188-.738.442-1.019.762-.281.313-.512.672-.692 1.078-.171.399-.3.813-.386 1.242v3.035c.156.547.375 1.063.656 1.547.281.477.656.864 1.125 1.161.469.289 1.059.433 1.77.433.585 0 1.089-.121 1.511-.363.43-.25.781-.59 1.055-1.02.281-.429.488-.922.621-1.476.133-.563.199-1.16.199-1.793Zm4.371 0v-.27c0-.914.133-1.761.399-2.543.265-.789.648-1.472 1.148-2.05.5-.586 1.106-1.04 1.817-1.36.711-.328 1.507-.492 2.39-.492.891 0 1.692.164 2.403.492.718.32 1.328.774 1.828 1.36.508.578.894 1.261 1.16 2.05.266.782.398 1.629.398 2.543v.27c0 .914-.132 1.761-.398 2.543-.266.781-.652 1.465-1.16 2.051-.5.578-1.106 1.031-1.817 1.359-.703.32-1.5.48-2.39.48-.891 0-1.692-.16-2.403-.48-.711-.328-1.32-.781-1.828-1.359-.5-.586-.883-1.27-1.148-2.051-.266-.782-.399-1.629-.399-2.543Zm2.168-.27v.27c0 .633.075 1.23.223 1.793.148.554.371 1.047.668 1.476.305.43.684.77 1.137 1.02.453.242.98.363 1.582.363.593 0 1.113-.121 1.558-.363.453-.25.828-.59 1.125-1.02.297-.429.52-.922.668-1.476.156-.563.235-1.16.235-1.793v-.27c0-.625-.079-1.215-.235-1.769-.148-.563-.375-1.059-.679-1.489-.297-.437-.672-.781-1.125-1.031-.446-.25-.969-.375-1.571-.375-.593 0-1.117.125-1.57.375-.445.25-.82.594-1.125 1.031-.297.43-.52.926-.668 1.489-.148.554-.223 1.144-.223 1.769Zm16.828.41h-2.332v-1.336h2.157c.601 0 1.078-.074 1.429-.222.352-.156.602-.371.75-.645.149-.273.223-.593.223-.961 0-.328-.086-.636-.258-.925-.164-.297-.43-.536-.797-.715-.367-.188-.859-.282-1.476-.282-.5 0-.953.09-1.36.27-.406.172-.73.41-.972.715-.235.297-.352.633-.352 1.008h-2.168c0-.774.219-1.438.656-1.993.446-.562 1.036-.996 1.77-1.3.742-.305 1.551-.457 2.426-.457.734 0 1.39.082 1.969.246.585.156 1.082.39 1.488.703.406.305.715.687.926 1.148.218.453.328.981.328 1.582 0 .43-.102.836-.305 1.219-.203.383-.496.723-.879 1.02-.383.289-.848.515-1.394.679-.54.164-1.149.246-1.829.246Zm-2.332-.82h2.332c.758 0 1.426.074 2.004.223.578.14 1.063.351 1.453.633.391.281.684.628.879 1.043.203.406.305.875.305 1.406 0 .594-.121 1.129-.363 1.605-.235.469-.571.867-1.008 1.196-.438.328-.961.578-1.57.75-.602.171-1.27.257-2.004.257-.821 0-1.617-.14-2.391-.422-.773-.281-1.41-.714-1.91-1.3-.5-.594-.75-1.348-.75-2.262h2.168c0 .383.121.746.363 1.09.242.344.578.621 1.008.832.438.211.941.316 1.512.316.609 0 1.117-.093 1.523-.281.406-.187.711-.437.914-.75.211-.312.317-.652.317-1.019 0-.477-.094-.86-.282-1.149-.187-.289-.476-.5-.867-.633-.383-.14-.875-.211-1.476-.211h-2.157v-1.324Zm11.954-3.363v15.117h-2.18V256.32h1.992l.188 2.438Zm8.543 3.797v.246c0 .922-.11 1.777-.329 2.566-.218.781-.539 1.461-.961 2.039-.414.578-.925 1.028-1.535 1.348-.609.32-1.308.48-2.097.48-.805 0-1.516-.132-2.133-.398s-1.141-.652-1.571-1.16c-.429-.508-.773-1.117-1.031-1.828-.25-.711-.422-1.512-.515-2.403v-1.312c.093-.938.269-1.778.527-2.52s.598-1.375 1.019-1.898c.43-.531.95-.934 1.559-1.207.609-.281 1.313-.422 2.109-.422.797 0 1.504.156 2.122.469.617.304 1.136.742 1.558 1.312.422.571.738 1.254.949 2.051.219.789.329 1.668.329 2.637Zm-2.18.246v-.246c0-.633-.067-1.227-.199-1.782-.133-.562-.34-1.054-.621-1.476-.274-.43-.626-.766-1.055-1.008-.43-.25-.942-.375-1.535-.375-.547 0-1.024.094-1.43.281-.398.188-.738.442-1.02.762-.281.313-.511.672-.691 1.078a6.214 6.214 0 0 0-.387 1.242v3.035c.157.547.375 1.063.657 1.547.281.477.656.864 1.125 1.161.468.289 1.058.433 1.769.433.586 0 1.09-.121 1.512-.363.429-.25.781-.59 1.055-1.02.281-.429.488-.922.621-1.476.132-.563.199-1.16.199-1.793Zm12.422 4.031v-6.527c0-.5-.102-.934-.305-1.301-.195-.375-.492-.664-.891-.867-.398-.203-.89-.305-1.476-.305-.547 0-1.028.094-1.442.281-.406.188-.726.434-.961.739-.226.304-.339.632-.339.984h-2.168c0-.453.117-.902.351-1.348.235-.445.571-.847 1.008-1.207.445-.367.977-.656 1.594-.867.625-.219 1.32-.328 2.086-.328.922 0 1.734.156 2.437.469.711.312 1.266.785 1.664 1.418.407.625.61 1.41.61 2.355v5.906c0 .422.035.871.105 1.348.078.477.192.887.34 1.23V269h-2.262c-.109-.25-.195-.582-.258-.996-.062-.422-.093-.813-.093-1.172Zm.375-5.52.023 1.524h-2.191c-.617 0-1.168.051-1.653.152-.484.094-.89.239-1.218.434-.328.195-.578.441-.75.738-.172.289-.258.629-.258 1.02 0 .398.09.761.269 1.09.18.328.45.589.809.785.367.187.816.281 1.348.281.664 0 1.25-.141 1.757-.422.508-.281.911-.625 1.207-1.031.305-.406.469-.801.493-1.184l.925 1.043c-.054.328-.203.692-.445 1.09-.242.398-.566.781-.973 1.148-.398.36-.875.661-1.429.903-.547.234-1.164.351-1.852.351-.859 0-1.613-.168-2.262-.504-.64-.335-1.14-.785-1.5-1.347-.351-.571-.527-1.207-.527-1.91 0-.68.133-1.278.399-1.793.265-.524.648-.957 1.148-1.301.5-.352 1.102-.617 1.805-.797.703-.18 1.488-.27 2.355-.27h2.52Zm14.765-4.992V269h-2.168v-12.68h2.168Zm-.738 5.825v1.781c-.437.164-.883.312-1.336.445-.445.125-.918.227-1.418.305-.492.07-1.027.105-1.605.105-1 0-1.868-.172-2.602-.515-.734-.352-1.301-.879-1.699-1.582-.399-.711-.598-1.606-.598-2.684v-3.703h2.168V260c0 .703.106 1.273.317 1.711.211.437.519.762.925.973.407.203.903.304 1.489.304.562 0 1.089-.035 1.582-.105.5-.078.976-.18 1.429-.305.461-.125.911-.269 1.348-.433Zm12.832-.329v1.758h-6.703v-1.758h6.703Zm-6.246-5.496V269h-2.168v-12.68h2.168Zm8.004 0V269h-2.18v-12.68h2.18Zm5.273 4.36h3.809c1.023 0 1.887.179 2.59.539.703.351 1.234.84 1.594 1.465.367.617.55 1.32.55 2.109 0 .586-.101 1.137-.304 1.652-.204.508-.508.953-.914 1.336-.399.383-.895.684-1.489.903-.586.211-1.261.316-2.027.316h-5.391v-12.68h2.168v10.899h3.223c.625 0 1.125-.114 1.5-.34.375-.227.644-.52.808-.879.165-.359.247-.734.247-1.125 0-.383-.082-.758-.247-1.125-.164-.367-.433-.672-.808-.914-.375-.25-.875-.375-1.5-.375h-3.809v-1.781Zm13.055-4.36V269h-2.168v-12.68h2.168Zm6.141 9.246 5.847-9.246h2.18V269h-2.18v-9.246L980.891 269h-2.157v-12.68h2.157v9.246Zm4.664-13.839h1.757c0 .609-.14 1.152-.421 1.628-.282.469-.684.836-1.207 1.102-.524.266-1.145.398-1.864.398-1.086 0-1.945-.289-2.578-.867-.625-.586-.937-1.34-.937-2.261h1.757c0 .461.133.867.399 1.218.266.352.719.528 1.359.528.625 0 1.071-.176 1.336-.528.266-.351.399-.757.399-1.218ZM699.852 288.32v1.793h-6.411v-1.793h6.411Zm-6.094 0V301h-2.168v-12.68h2.168Zm8.015 0V301h-2.179v-12.68h2.179Zm5.649 2.438v15.117h-2.18V288.32h1.992l.188 2.438Zm8.543 3.797v.246c0 .922-.11 1.777-.328 2.566-.219.781-.539 1.461-.961 2.039-.414.578-.926 1.028-1.535 1.348-.61.32-1.309.48-2.098.48-.805 0-1.516-.132-2.133-.398s-1.14-.652-1.57-1.16c-.43-.508-.774-1.117-1.031-1.828-.25-.711-.422-1.512-.516-2.403v-1.312c.094-.938.269-1.778.527-2.52s.598-1.375 1.02-1.898c.43-.531.949-.934 1.558-1.207.61-.281 1.313-.422 2.11-.422.797 0 1.504.156 2.121.469.617.304 1.137.742 1.559 1.312.421.571.738 1.254.949 2.051.218.789.328 1.668.328 2.637Zm-2.18.246v-.246c0-.633-.066-1.227-.199-1.782-.133-.562-.34-1.054-.621-1.476-.274-.43-.625-.766-1.055-1.008-.43-.25-.941-.375-1.535-.375-.547 0-1.023.094-1.43.281-.398.188-.738.442-1.019.762-.281.313-.512.672-.692 1.078-.172.399-.3.813-.386 1.242v3.035c.156.547.375 1.063.656 1.547.281.477.656.864 1.125 1.161.469.289 1.059.433 1.769.433.586 0 1.09-.121 1.512-.363.43-.25.781-.59 1.055-1.02.281-.429.488-.922.621-1.476.133-.563.199-1.16.199-1.793Zm4.371 0v-.27c0-.914.133-1.761.399-2.543.265-.789.648-1.472 1.148-2.05.5-.586 1.106-1.04 1.817-1.36.71-.328 1.507-.492 2.39-.492.891 0 1.692.164 2.402.492.719.32 1.329.774 1.829 1.36.507.578.894 1.261 1.16 2.05.265.782.398 1.629.398 2.543v.27c0 .914-.133 1.761-.398 2.543-.266.781-.653 1.465-1.16 2.051-.5.578-1.106 1.031-1.817 1.359-.703.32-1.5.48-2.39.48-.891 0-1.692-.16-2.403-.48-.711-.328-1.32-.781-1.828-1.359-.5-.586-.883-1.27-1.148-2.051-.266-.782-.399-1.629-.399-2.543Zm2.168-.27v.27c0 .633.074 1.23.223 1.793.148.554.371 1.047.668 1.476.305.43.683.77 1.137 1.02.453.242.98.363 1.582.363.593 0 1.113-.121 1.558-.363.453-.25.828-.59 1.125-1.02.297-.429.52-.922.668-1.476.156-.563.235-1.16.235-1.793v-.27c0-.625-.079-1.215-.235-1.769-.148-.563-.375-1.059-.68-1.489-.296-.437-.671-.781-1.125-1.031-.445-.25-.968-.375-1.57-.375-.594 0-1.117.125-1.57.375-.445.25-.82.594-1.125 1.031-.297.43-.52.926-.668 1.489-.149.554-.223 1.144-.223 1.769ZM732.605 301v-12.68h2.168v10.899h5.836V288.32h2.18V301h-10.184Zm11.684-1.781-.211 5.543h-1.933V301h-1.653v-1.781h3.797Zm7.617 2.015c-.883 0-1.683-.148-2.402-.445-.711-.305-1.324-.73-1.84-1.277-.508-.547-.898-1.196-1.172-1.946-.273-.75-.41-1.57-.41-2.461v-.492c0-1.031.152-1.949.457-2.754.305-.812.719-1.5 1.242-2.062.524-.563 1.117-.988 1.781-1.277.665-.29 1.352-.434 2.063-.434.906 0 1.687.156 2.344.469.664.312 1.207.75 1.629 1.312.422.555.734 1.211.937 1.969.203.75.305 1.57.305 2.461v.973h-9.469v-1.77h7.301v-.164c-.031-.563-.149-1.109-.352-1.641-.195-.531-.508-.968-.937-1.312-.43-.344-1.016-.516-1.758-.516-.492 0-.945.106-1.359.317-.414.203-.77.507-1.067.914-.297.406-.527.902-.691 1.488-.164.586-.246 1.262-.246 2.027v.492c0 .602.082 1.168.246 1.7.172.523.418.984.738 1.383.328.398.723.71 1.184.937.468.227 1 .34 1.593.34.766 0 1.415-.156 1.946-.469.531-.312.996-.73 1.394-1.254l1.313 1.043c-.274.414-.621.809-1.043 1.184-.422.375-.942.679-1.559.914-.609.234-1.332.351-2.168.351Zm12.539-1.781c.516 0 .993-.105 1.43-.316.437-.211.797-.5 1.078-.867.281-.375.442-.801.481-1.278h2.062c-.039.75-.293 1.449-.762 2.098-.461.64-1.066 1.16-1.816 1.558-.75.391-1.574.586-2.473.586-.953 0-1.785-.168-2.496-.504-.703-.335-1.289-.796-1.758-1.382-.461-.586-.808-1.258-1.043-2.016-.226-.766-.339-1.574-.339-2.426v-.492c0-.852.113-1.656.339-2.414.235-.766.582-1.441 1.043-2.027.469-.586 1.055-1.047 1.758-1.383.711-.336 1.543-.504 2.496-.504.993 0 1.86.203 2.602.609.742.399 1.324.946 1.746 1.641.43.687.664 1.469.703 2.344h-2.062c-.039-.524-.188-.996-.446-1.418-.25-.422-.593-.758-1.031-1.008-.43-.258-.934-.387-1.512-.387-.664 0-1.222.133-1.675.399-.446.257-.801.609-1.067 1.054-.258.438-.445.926-.562 1.465-.11.531-.164 1.074-.164 1.629v.492c0 .555.054 1.102.164 1.641.109.539.293 1.027.55 1.465.266.437.621.789 1.067 1.054.453.258 1.015.387 1.687.387Zm12.563 0c.515 0 .992-.105 1.43-.316.437-.211.796-.5 1.078-.867.281-.375.441-.801.48-1.278h2.063c-.039.75-.293 1.449-.762 2.098-.461.64-1.067 1.16-1.817 1.558-.75.391-1.574.586-2.472.586-.953 0-1.785-.168-2.496-.504-.703-.335-1.289-.796-1.758-1.382-.461-.586-.809-1.258-1.043-2.016-.227-.766-.34-1.574-.34-2.426v-.492c0-.852.113-1.656.34-2.414.234-.766.582-1.441 1.043-2.027.469-.586 1.055-1.047 1.758-1.383.711-.336 1.543-.504 2.496-.504.992 0 1.859.203 2.601.609.743.399 1.325.946 1.746 1.641.43.687.665 1.469.704 2.344h-2.063c-.039-.524-.187-.996-.445-1.418-.25-.422-.594-.758-1.031-1.008-.43-.258-.934-.387-1.512-.387-.664 0-1.223.133-1.676.399-.445.257-.801.609-1.066 1.054-.258.438-.446.926-.563 1.465a8.0806 8.0806 0 0 0-.164 1.629v.492c0 .555.055 1.102.164 1.641.109.539.293 1.027.551 1.465.266.437.621.789 1.066 1.054.453.258 1.016.387 1.688.387Zm15.797-11.133V301h-2.168v-12.68h2.168Zm8.32 0-6.012 7.266h-3.035l-.328-1.898h2.484l4.254-5.368h2.637ZM798.793 301l-4.664-5.742 1.394-1.57 6.024 7.312h-2.754Zm3.809-6.199v-.27c0-.914.132-1.761.398-2.543.266-.789.648-1.472 1.148-2.05.5-.586 1.106-1.04 1.817-1.36.711-.328 1.508-.492 2.39-.492.891 0 1.692.164 2.403.492.719.32 1.328.774 1.828 1.36.508.578.894 1.261 1.16 2.05.266.782.399 1.629.399 2.543v.27c0 .914-.133 1.761-.399 2.543-.266.781-.652 1.465-1.16 2.051-.5.578-1.106 1.031-1.816 1.359-.704.32-1.5.48-2.391.48s-1.691-.16-2.402-.48c-.711-.328-1.321-.781-1.829-1.359-.5-.586-.882-1.27-1.148-2.051-.266-.782-.398-1.629-.398-2.543Zm2.168-.27v.27c0 .633.074 1.23.222 1.793.149.554.371 1.047.668 1.476.305.43.684.77 1.137 1.02.453.242.98.363 1.582.363.594 0 1.113-.121 1.559-.363.453-.25.828-.59 1.124-1.02.297-.429.52-.922.668-1.476.157-.563.235-1.16.235-1.793v-.27c0-.625-.078-1.215-.235-1.769-.148-.563-.375-1.059-.679-1.489-.297-.437-.672-.781-1.125-1.031-.446-.25-.969-.375-1.571-.375-.593 0-1.117.125-1.57.375-.445.25-.82.594-1.125 1.031-.297.43-.519.926-.668 1.489-.148.554-.222 1.144-.222 1.769Zm19.382 3.586 4.313-9.797h2.086L824.902 301h-1.5l-5.625-12.68h2.086l4.289 9.797Zm-4.922-9.797V301h-2.168v-12.68h2.168Zm9.774 12.68v-12.68h2.18V301h-2.18Zm12.961-2.883 4.312-9.797h2.086L842.715 301h-1.5l-5.625-12.68h2.086l4.289 9.797Zm-4.922-9.797V301h-2.168v-12.68h2.168Zm9.773 12.68v-12.68h2.18V301h-2.18Zm9.235-1.312 3.527-11.368h2.32l-5.086 14.637c-.117.313-.273.648-.468 1.008-.188.367-.43.715-.727 1.043-.297.328-.656.594-1.078.797-.414.211-.91.316-1.488.316-.172 0-.391-.023-.656-.07-.266-.047-.454-.086-.563-.117l-.012-1.758c.063.008.16.015.293.023.141.016.239.024.293.024.492 0 .91-.067 1.254-.2.344-.125.633-.339.867-.644.243-.297.45-.707.621-1.231l.903-2.46Zm-2.59-11.368 3.293 9.844.562 2.285-1.558.797-4.664-12.926h2.367Zm18.996 5.496v1.758h-6.703v-1.758h6.703Zm-6.246-5.496V301h-2.168v-12.68h2.168Zm8.004 0V301h-2.18v-12.68h2.18Zm5.836 9.246 5.847-9.246h2.18V301h-2.18v-9.246L880.051 301h-2.156v-12.68h2.156v9.246Zm13.863-9.246V301h-2.168v-12.68h2.168Zm8.32 0-6.011 7.266h-3.035l-.329-1.898h2.485l4.254-5.368h2.636ZM899.902 301l-4.664-5.742 1.395-1.57 6.023 7.312h-2.754Zm12.118-2.168v-6.527c0-.5-.102-.934-.305-1.301-.195-.375-.492-.664-.891-.867-.398-.203-.89-.305-1.476-.305-.547 0-1.028.094-1.442.281-.406.188-.726.434-.961.739-.226.304-.34.632-.34.984h-2.167c0-.453.117-.902.351-1.348.234-.445.57-.847 1.008-1.207.445-.367.976-.656 1.594-.867.625-.219 1.32-.328 2.086-.328.921 0 1.734.156 2.437.469.711.312 1.266.785 1.664 1.418.406.625.61 1.41.61 2.355v5.906c0 .422.035.871.105 1.348.078.477.191.887.34 1.23V301h-2.262c-.109-.25-.195-.582-.258-.996-.062-.422-.093-.813-.093-1.172Zm.375-5.52.023 1.524h-2.191c-.618 0-1.168.051-1.653.152-.484.094-.89.239-1.219.434-.328.195-.578.441-.75.738-.171.289-.257.629-.257 1.02 0 .398.09.761.269 1.09.18.328.449.589.809.785.367.187.816.281 1.347.281.665 0 1.25-.141 1.758-.422s.91-.625 1.207-1.031c.305-.406.469-.801.492-1.184l.926 1.043c-.054.328-.203.692-.445 1.09-.242.398-.566.781-.973 1.148-.398.36-.875.661-1.429.903-.547.234-1.164.351-1.852.351-.859 0-1.613-.168-2.262-.504-.64-.335-1.14-.785-1.5-1.347-.351-.571-.527-1.207-.527-1.91 0-.68.133-1.278.398-1.793.266-.524.649-.957 1.149-1.301.5-.352 1.101-.617 1.805-.797.703-.18 1.488-.27 2.355-.27h2.52Zm5.39 7.688v-12.68h2.168v10.899h5.836V288.32h2.18V301h-10.184Zm11.684-1.781-.211 5.543h-1.934V301h-1.652v-1.781h3.797Zm4.699-1.653 5.848-9.246h2.179V301h-2.179v-9.246L934.168 301h-2.156v-12.68h2.156v9.246Zm13.852 0 5.847-9.246h2.18V301h-2.18v-9.246L948.02 301h-2.157v-12.68h2.157v9.246Zm23.414-2.144h-4.161l-.023-1.734h3.398c.672 0 1.231-.067 1.676-.2.453-.133.793-.332 1.02-.597.226-.266.34-.594.34-.985 0-.304-.067-.57-.2-.797-.125-.234-.316-.425-.574-.574-.258-.156-.578-.269-.961-.34-.375-.078-.816-.117-1.324-.117h-2.777V301h-2.168v-12.68h4.945c.805 0 1.527.071 2.168.211.648.141 1.199.356 1.652.645.461.281.813.64 1.055 1.078.242.437.363.953.363 1.547 0 .383-.078.746-.234 1.09-.156.343-.387.648-.691.914-.305.265-.68.484-1.126.656-.445.164-.957.269-1.535.316l-.843.645Zm0 5.578h-4.946l1.078-1.758h3.868c.601 0 1.101-.074 1.5-.222.398-.157.695-.375.89-.657.203-.289.305-.633.305-1.031 0-.398-.102-.738-.305-1.02-.195-.289-.492-.507-.89-.656-.399-.156-.899-.234-1.5-.234h-3.293l.023-1.734h4.113l.785.656c.696.054 1.286.226 1.77.515.484.289.852.657 1.102 1.102.25.437.375.914.375 1.43 0 .593-.114 1.117-.34 1.57-.219.453-.539.832-.961 1.137-.422.297-.934.523-1.535.679-.602.149-1.282.223-2.039.223Zm7.207-6.199v-.27c0-.914.132-1.761.398-2.543.266-.789.649-1.472 1.149-2.05.5-.586 1.105-1.04 1.816-1.36.711-.328 1.508-.492 2.391-.492.89 0 1.691.164 2.402.492.719.32 1.328.774 1.828 1.36.508.578.895 1.261 1.16 2.05.266.782.399 1.629.399 2.543v.27c0 .914-.133 1.761-.399 2.543-.265.781-.652 1.465-1.16 2.051-.5.578-1.105 1.031-1.816 1.359-.704.32-1.5.48-2.391.48s-1.691-.16-2.402-.48c-.711-.328-1.321-.781-1.828-1.359-.5-.586-.883-1.27-1.149-2.051-.266-.782-.398-1.629-.398-2.543Zm2.168-.27v.27c0 .633.074 1.23.222 1.793.149.554.371 1.047.668 1.476.305.43.684.77 1.137 1.02.453.242.98.363 1.582.363.594 0 1.113-.121 1.559-.363.453-.25.828-.59 1.125-1.02.296-.429.519-.922.668-1.476.156-.563.234-1.16.234-1.793v-.27c0-.625-.078-1.215-.234-1.769-.149-.563-.375-1.059-.68-1.489-.297-.437-.672-.781-1.125-1.031-.445-.25-.969-.375-1.57-.375-.594 0-1.118.125-1.571.375-.445.25-.82.594-1.125 1.031-.297.43-.519.926-.668 1.489-.148.554-.222 1.144-.222 1.769Zm-212.86 32.891h-4.16l-.023-1.734h3.398c.672 0 1.231-.067 1.676-.2.453-.133.793-.332 1.019-.597.227-.266.34-.594.34-.985 0-.304-.066-.57-.199-.797-.125-.234-.316-.425-.574-.574-.258-.156-.578-.269-.961-.34-.375-.078-.817-.117-1.324-.117h-2.778V333h-2.168v-12.68h4.946c.804 0 1.527.071 2.168.211.648.141 1.199.356 1.652.645.461.281.812.64 1.055 1.078.242.437.363.953.363 1.547 0 .383-.078.746-.234 1.09-.157.343-.387.648-.692.914-.305.265-.68.484-1.125.656-.445.164-.957.269-1.535.316l-.844.645Zm0 5.578h-4.945l1.078-1.758h3.867c.602 0 1.102-.074 1.5-.222.399-.157.696-.375.891-.657.203-.289.305-.633.305-1.031 0-.398-.102-.738-.305-1.02-.195-.289-.492-.507-.891-.656-.398-.156-.898-.234-1.5-.234h-3.293l.024-1.734h4.113l.785.656c.695.054 1.285.226 1.77.515.484.289.851.657 1.101 1.102.25.437.375.914.375 1.43 0 .593-.113 1.117-.34 1.57-.218.453-.539.832-.961 1.137-.421.297-.933.523-1.535.679-.601.149-1.281.223-2.039.223Zm9.949-10.242v15.117h-2.179V320.32h1.992l.187 2.438Zm8.543 3.797v.246c0 .922-.109 1.777-.328 2.566-.218.781-.539 1.461-.961 2.039-.414.578-.925 1.028-1.535 1.348-.609.32-1.308.48-2.097.48-.805 0-1.516-.132-2.133-.398s-1.141-.652-1.571-1.16c-.429-.508-.773-1.117-1.031-1.828-.25-.711-.422-1.512-.515-2.403v-1.312c.093-.938.269-1.778.527-2.52s.598-1.375 1.019-1.898c.43-.531.95-.934 1.559-1.207.609-.281 1.313-.422 2.109-.422.797 0 1.504.156 2.121.469.618.304 1.137.742 1.559 1.312.422.571.738 1.254.949 2.051.219.789.328 1.668.328 2.637Zm-2.179.246v-.246c0-.633-.067-1.227-.2-1.782-.132-.562-.339-1.054-.621-1.476-.273-.43-.625-.766-1.054-1.008-.43-.25-.942-.375-1.535-.375-.547 0-1.024.094-1.43.281-.399.188-.738.442-1.02.762-.281.313-.511.672-.691 1.078a6.214 6.214 0 0 0-.387 1.242v3.035c.156.547.375 1.063.656 1.547.282.477.657.864 1.125 1.161.469.289 1.059.433 1.77.433.586 0 1.09-.121 1.512-.363.429-.25.781-.59 1.054-1.02.282-.429.489-.922.621-1.476.133-.563.2-1.16.2-1.793Zm10.207 6.433c-.883 0-1.684-.148-2.403-.445-.711-.305-1.324-.73-1.839-1.277-.508-.547-.899-1.196-1.172-1.946-.274-.75-.41-1.57-.41-2.461v-.492c0-1.031.152-1.949.457-2.754.304-.812.718-1.5 1.242-2.062.523-.563 1.117-.988 1.781-1.277.664-.29 1.352-.434 2.063-.434.906 0 1.687.156 2.343.469.664.312 1.207.75 1.629 1.312.422.555.735 1.211.938 1.969.203.75.304 1.57.304 2.461v.973h-9.468v-1.77h7.3v-.164a5.4065 5.4065 0 0 0-.351-1.641c-.195-.531-.508-.968-.938-1.312-.429-.344-1.015-.516-1.757-.516-.493 0-.946.106-1.36.317-.414.203-.769.507-1.066.914-.297.406-.528.902-.692 1.488-.164.586-.246 1.262-.246 2.027v.492c0 .602.082 1.168.246 1.7.172.523.418.984.739 1.383.328.398.722.71 1.183.937.469.227 1 .34 1.594.34.766 0 1.414-.156 1.945-.469.531-.312.996-.73 1.395-1.254l1.312 1.043c-.273.414-.621.809-1.043 1.184-.422.375-.941.679-1.558.914-.61.234-1.332.351-2.168.351Zm14.754-3.117 4.312-9.797h2.086L809.973 333h-1.5l-5.625-12.68h2.086l4.289 9.797Zm-4.922-9.797V333h-2.168v-12.68h2.168Zm9.773 12.68v-12.68h2.18V333h-2.18Zm8.238-6.047h2.344L820.988 333h-2.343l3.667-6.047Zm1.817-6.633h5.297V333h-2.168v-10.922h-3.129c-.617 0-1.121.106-1.512.317-.39.203-.676.468-.855.796-.18.329-.27.668-.27 1.02 0 .344.082.676.246.996.164.313.422.57.774.773.351.204.804.305 1.359.305h3.973v1.781h-3.973c-.726 0-1.371-.097-1.933-.293-.563-.195-1.04-.464-1.43-.808-.391-.352-.688-.762-.891-1.231-.203-.476-.305-.992-.305-1.546 0-.555.106-1.067.317-1.536.219-.468.531-.879.937-1.23.414-.352.918-.621 1.512-.809.602-.195 1.285-.293 2.051-.293Zm16.91 2.438v15.117h-2.18V320.32h1.993l.187 2.438Zm8.543 3.797v.246c0 .922-.109 1.777-.328 2.566-.219.781-.539 1.461-.961 2.039-.414.578-.926 1.028-1.535 1.348-.61.32-1.309.48-2.098.48-.805 0-1.515-.132-2.133-.398-.617-.266-1.14-.652-1.57-1.16-.43-.508-.773-1.117-1.031-1.828-.25-.711-.422-1.512-.516-2.403v-1.312c.094-.938.27-1.778.528-2.52.257-.742.597-1.375 1.019-1.898.43-.531.949-.934 1.559-1.207.609-.281 1.312-.422 2.109-.422.797 0 1.504.156 2.121.469.617.304 1.137.742 1.559 1.312.422.571.738 1.254.949 2.051.219.789.328 1.668.328 2.637Zm-2.18.246v-.246c0-.633-.066-1.227-.199-1.782-.133-.562-.34-1.054-.621-1.476-.273-.43-.625-.766-1.055-1.008-.429-.25-.941-.375-1.535-.375-.547 0-1.023.094-1.43.281-.398.188-.738.442-1.019.762-.281.313-.512.672-.691 1.078a6.214 6.214 0 0 0-.387 1.242v3.035c.156.547.375 1.063.656 1.547.281.477.656.864 1.125 1.161.469.289 1.059.433 1.77.433.586 0 1.089-.121 1.511-.363.43-.25.782-.59 1.055-1.02.281-.429.488-.922.621-1.476.133-.563.199-1.16.199-1.793Zm12.422 4.031v-6.527c0-.5-.101-.934-.304-1.301-.196-.375-.493-.664-.891-.867-.399-.203-.891-.305-1.477-.305-.547 0-1.027.094-1.441.281-.406.188-.727.434-.961.739-.227.304-.34.632-.34.984h-2.168c0-.453.117-.902.352-1.348.234-.445.57-.847 1.008-1.207.445-.367.976-.656 1.593-.867.625-.219 1.321-.328 2.086-.328.922 0 1.735.156 2.438.469.711.312 1.265.785 1.664 1.418.406.625.609 1.41.609 2.355v5.906c0 .422.035.871.106 1.348.078.477.191.887.34 1.23V333h-2.262c-.11-.25-.196-.582-.258-.996-.063-.422-.094-.813-.094-1.172Zm.375-5.52.024 1.524h-2.192c-.617 0-1.168.051-1.652.152-.484.094-.891.239-1.219.434-.328.195-.578.441-.75.738-.172.289-.258.629-.258 1.02 0 .398.09.761.27 1.09.18.328.449.589.808.785.368.187.817.281 1.348.281.664 0 1.25-.141 1.758-.422s.91-.625 1.207-1.031c.305-.406.469-.801.492-1.184l.926 1.043c-.055.328-.203.692-.445 1.09-.243.398-.567.781-.973 1.148-.398.36-.875.661-1.43.903-.547.234-1.164.351-1.851.351-.86 0-1.614-.168-2.262-.504-.641-.335-1.141-.785-1.5-1.347-.352-.571-.527-1.207-.527-1.91 0-.68.132-1.278.398-1.793.266-.524.649-.957 1.149-1.301.5-.352 1.101-.617 1.804-.797.703-.18 1.488-.27 2.356-.27h2.519Zm13.336-10.511h1.781c0 .765-.117 1.375-.351 1.828-.235.445-.555.789-.961 1.031-.399.242-.852.426-1.359.551-.5.125-1.02.246-1.559.363-.672.141-1.297.364-1.875.668-.57.297-1.063.719-1.477 1.266-.406.547-.707 1.258-.902 2.133-.187.875-.238 1.957-.152 3.246v1.078h-1.782v-1.078c0-1.446.137-2.707.411-3.785.281-1.079.675-1.989 1.183-2.731.508-.742 1.11-1.332 1.805-1.769.703-.438 1.476-.739 2.32-.903.61-.117 1.133-.242 1.571-.375.437-.14.769-.328.996-.562.234-.235.351-.555.351-.961Zm-2.566 6.246c.828 0 1.566.144 2.215.433.648.29 1.199.692 1.652 1.208.453.515.797 1.124 1.031 1.828.242.695.363 1.453.363 2.273v.258c0 .883-.128 1.703-.386 2.461-.25.75-.621 1.406-1.114 1.969-.484.554-1.078.988-1.781 1.3-.695.313-1.488.469-2.379.469-.89 0-1.687-.156-2.39-.469-.696-.312-1.289-.746-1.782-1.3-.492-.563-.867-1.219-1.125-1.969-.25-.758-.375-1.578-.375-2.461v-.258c0-.195.036-.387.106-.574.07-.188.156-.379.258-.574.109-.196.207-.403.293-.621.289-.704.683-1.356 1.183-1.958.508-.601 1.114-1.085 1.817-1.453.711-.375 1.515-.562 2.414-.562Zm-.422 1.769c-.797 0-1.453.184-1.969.551-.508.367-.887.856-1.137 1.465-.25.602-.375 1.254-.375 1.957v.258c0 .594.071 1.156.211 1.687.141.532.352 1.004.633 1.418.289.407.652.727 1.09.961.445.235.969.352 1.57.352.602 0 1.121-.117 1.559-.352.437-.234.797-.554 1.078-.961.281-.414.492-.886.633-1.418.14-.531.211-1.093.211-1.687v-.258c0-.531-.071-1.035-.211-1.512-.141-.476-.356-.898-.645-1.265-.281-.367-.644-.657-1.09-.867-.437-.219-.957-.329-1.558-.329Zm7.57 3.985v-.27c0-.914.133-1.761.399-2.543.265-.789.648-1.472 1.148-2.05.5-.586 1.106-1.04 1.816-1.36.711-.328 1.508-.492 2.391-.492.891 0 1.691.164 2.402.492.719.32 1.329.774 1.829 1.36.507.578.894 1.261 1.16 2.05.265.782.398 1.629.398 2.543v.27c0 .914-.133 1.761-.398 2.543-.266.781-.653 1.465-1.16 2.051-.5.578-1.106 1.031-1.817 1.359-.703.32-1.5.48-2.39.48-.891 0-1.692-.16-2.403-.48-.711-.328-1.32-.781-1.828-1.359-.5-.586-.883-1.27-1.148-2.051-.266-.782-.399-1.629-.399-2.543Zm2.168-.27v.27c0 .633.074 1.23.223 1.793.148.554.371 1.047.668 1.476.304.43.683.77 1.136 1.02.454.242.981.363 1.583.363.593 0 1.113-.121 1.558-.363.453-.25.828-.59 1.125-1.02.297-.429.52-.922.668-1.476.156-.563.234-1.16.234-1.793v-.27c0-.625-.078-1.215-.234-1.769-.148-.563-.375-1.059-.68-1.489-.296-.437-.671-.781-1.125-1.031-.445-.25-.968-.375-1.57-.375-.594 0-1.117.125-1.57.375-.446.25-.821.594-1.125 1.031-.297.43-.52.926-.668 1.489-.149.554-.223 1.144-.223 1.769Zm17.004-6.211V333h-2.18v-12.68h2.18Zm4.254 0v1.758h-10.605v-1.758h10.605Zm3.914 4.36h3.809c1.023 0 1.886.179 2.589.539.704.351 1.235.84 1.594 1.465.367.617.551 1.32.551 2.109 0 .586-.102 1.137-.305 1.652-.203.508-.507.953-.914 1.336-.398.383-.894.684-1.488.903-.586.211-1.262.316-2.027.316h-5.391v-12.68h2.168v10.899h3.223c.625 0 1.125-.114 1.5-.34.375-.227.644-.52.808-.879.164-.359.246-.734.246-1.125 0-.383-.082-.758-.246-1.125-.164-.367-.433-.672-.808-.914-.375-.25-.875-.375-1.5-.375h-3.809v-1.781Zm13.055-4.36V333h-2.168v-12.68h2.168Z" />
  </g>
  <g class="circle">
    <path fill="#fff"
      d="M1292.13 267.16V269h-12.91v-1.84h12.91Zm-12.55 0v6.035h-2.24l-.01-6.035h2.25Zm14.52 0-.02 6.024h-2.24v-6.024h2.26Zm-4.18-15.222v1.851h-7.48v-1.851h7.48Zm1.94 0V269h-2.25v-17.062h2.25Zm-10.19 0h2.26l-.35 6.867c-.05 1.031-.15 1.984-.29 2.859-.15.867-.34 1.66-.56 2.379-.21.719-.46 1.363-.75 1.934-.28.562-.58 1.05-.9 1.464-.32.407-.65.743-1.01 1.008-.34.258-.69.442-1.04.551H1278v-1.84h.73c.2-.219.43-.535.69-.949.26-.414.53-.949.78-1.606.27-.664.5-1.472.69-2.425.21-.953.34-2.078.41-3.375l.37-6.867Zm22.24 14.894v-6.527c0-.5-.1-.934-.3-1.301-.2-.375-.5-.664-.9-.867-.39-.203-.89-.305-1.47-.305-.55 0-1.03.094-1.44.281-.41.188-.73.434-.96.739-.23.304-.34.632-.34.984h-2.17c0-.453.12-.902.35-1.348.23-.445.57-.847 1.01-1.207.44-.367.97-.656 1.59-.867.63-.219 1.32-.328 2.09-.328.92 0 1.73.156 2.43.469.72.312 1.27.785 1.67 1.418.41.625.61 1.41.61 2.355v5.906c0 .422.03.871.1 1.348.08.477.2.887.34 1.23V269h-2.26c-.11-.25-.19-.582-.26-.996-.06-.422-.09-.813-.09-1.172Zm.38-5.52.02 1.524h-2.19c-.62 0-1.17.051-1.66.152-.48.094-.89.239-1.21.434-.33.195-.58.441-.75.738-.18.289-.26.629-.26 1.02 0 .398.09.761.27 1.09.18.328.45.589.81.785.36.187.81.281 1.34.281.67 0 1.25-.141 1.76-.422s.91-.625 1.21-1.031c.3-.406.47-.801.49-1.184l.93 1.043c-.06.328-.21.692-.45 1.09-.24.398-.56.781-.97 1.148-.4.36-.88.661-1.43.903-.55.234-1.16.351-1.85.351-.86 0-1.62-.168-2.26-.504-.64-.335-1.14-.785-1.5-1.347-.36-.571-.53-1.207-.53-1.91 0-.68.13-1.278.4-1.793.26-.524.65-.957 1.15-1.301.5-.352 1.1-.617 1.8-.797.7-.18 1.49-.27 2.36-.27h2.52Zm10.46 7.922c-.88 0-1.68-.148-2.4-.445-.71-.305-1.33-.73-1.84-1.277-.51-.547-.9-1.196-1.17-1.946-.28-.75-.41-1.57-.41-2.461v-.492c0-1.031.15-1.949.45-2.754.31-.812.72-1.5 1.24-2.062.53-.563 1.12-.988 1.79-1.277.66-.29 1.35-.434 2.06-.434.91 0 1.69.156 2.34.469.67.312 1.21.75 1.63 1.312.42.555.74 1.211.94 1.969.2.75.3 1.57.3 2.461v.973h-9.47v-1.77h7.31v-.164c-.04-.563-.15-1.109-.36-1.641-.19-.531-.5-.968-.93-1.312-.43-.344-1.02-.516-1.76-.516-.49 0-.95.106-1.36.317-.41.203-.77.507-1.07.914-.29.406-.52.902-.69 1.488-.16.586-.24 1.262-.24 2.027v.492c0 .602.08 1.168.24 1.7.17.523.42.984.74 1.383.33.398.72.71 1.18.937.47.227 1 .34 1.6.34.76 0 1.41-.156 1.94-.469.53-.312 1-.73 1.4-1.254l1.31 1.043c-.27.414-.62.809-1.04 1.184-.43.375-.94.679-1.56.914-.61.234-1.33.351-2.17.351Zm14.75-3.117 4.32-9.797h2.08l-5.65 12.68h-1.5l-5.62-12.68h2.08l4.29 9.797Zm-4.92-9.797V269h-2.17v-12.68h2.17Zm9.78 12.68v-12.68h2.18V269h-2.18Zm17.57-5.578h-4.16l-.02-1.734h3.4c.67 0 1.23-.067 1.67-.2.46-.133.8-.332 1.02-.597.23-.266.34-.594.34-.985 0-.304-.06-.57-.2-.797-.12-.234-.31-.425-.57-.574-.26-.156-.58-.269-.96-.34-.38-.078-.82-.117-1.33-.117h-2.77V269h-2.17v-12.68h4.94c.81 0 1.53.071 2.17.211.65.141 1.2.356 1.66.645.46.281.81.64 1.05 1.078.24.437.36.953.36 1.547 0 .383-.07.746-.23 1.09-.16.343-.39.648-.69.914-.31.265-.68.484-1.13.656-.44.164-.95.269-1.53.316l-.85.645Zm0 5.578h-4.94l1.08-1.758h3.86c.61 0 1.11-.074 1.5-.222.4-.157.7-.375.89-.657.21-.289.31-.633.31-1.031 0-.398-.1-.738-.31-1.02-.19-.289-.49-.507-.89-.656-.39-.156-.89-.234-1.5-.234h-3.29l.02-1.734h4.12l.78.656c.7.054 1.29.226 1.77.515.49.289.85.657 1.1 1.102.25.437.38.914.38 1.43 0 .593-.11 1.117-.34 1.57-.22.453-.54.832-.96 1.137-.42.297-.94.523-1.54.679-.6.149-1.28.223-2.04.223Zm7.21-6.199v-.27c0-.914.13-1.761.4-2.543.26-.789.65-1.472 1.15-2.05.5-.586 1.1-1.04 1.81-1.36.71-.328 1.51-.492 2.39-.492.9 0 1.7.164 2.41.492.72.32 1.32.774 1.82 1.36.51.578.9 1.261 1.17 2.05.26.782.39 1.629.39 2.543v.27c0 .914-.13 1.761-.39 2.543-.27.781-.66 1.465-1.17 2.051-.5.578-1.1 1.031-1.81 1.359-.7.32-1.5.48-2.39.48-.89 0-1.69-.16-2.4-.48-.72-.328-1.32-.781-1.83-1.359-.5-.586-.89-1.27-1.15-2.051-.27-.782-.4-1.629-.4-2.543Zm2.17-.27v.27c0 .633.07 1.23.22 1.793.15.554.37 1.047.67 1.476.3.43.68.77 1.14 1.02.45.242.98.363 1.58.363.59 0 1.11-.121 1.56-.363.45-.25.82-.59 1.12-1.02.3-.429.52-.922.67-1.476.16-.563.23-1.16.23-1.793v-.27c0-.625-.07-1.215-.23-1.769-.15-.563-.38-1.059-.68-1.489-.3-.437-.67-.781-1.13-1.031-.44-.25-.96-.375-1.57-.375-.59 0-1.11.125-1.57.375-.44.25-.82.594-1.12 1.031-.3.43-.52.926-.67 1.489-.15.554-.22 1.144-.22 1.769Zm16.83.41h-2.34v-1.336h2.16c.6 0 1.08-.074 1.43-.222.35-.156.6-.371.75-.645.15-.273.22-.593.22-.961 0-.328-.08-.636-.25-.925-.17-.297-.43-.536-.8-.715-.37-.188-.86-.282-1.48-.282-.5 0-.95.09-1.36.27-.4.172-.73.41-.97.715-.23.297-.35.633-.35 1.008h-2.17c0-.774.22-1.438.66-1.993.44-.562 1.03-.996 1.77-1.3.74-.305 1.55-.457 2.42-.457.74 0 1.39.082 1.97.246.59.156 1.08.39 1.49.703.41.305.71.687.92 1.148.22.453.33.981.33 1.582 0 .43-.1.836-.3 1.219-.2.383-.5.723-.88 1.02-.38.289-.85.515-1.4.679-.53.164-1.14.246-1.82.246Zm-2.34-.82h2.34c.75 0 1.42.074 2 .223.58.14 1.06.351 1.45.633.39.281.69.628.88 1.043.21.406.31.875.31 1.406 0 .594-.12 1.129-.37 1.605-.23.469-.57.867-1 1.196-.44.328-.96.578-1.57.75-.61.171-1.27.257-2.01.257-.82 0-1.62-.14-2.39-.422-.77-.281-1.41-.714-1.91-1.3-.5-.594-.75-1.348-.75-2.262h2.17c0 .383.12.746.36 1.09.24.344.58.621 1.01.832.44.211.94.316 1.51.316.61 0 1.12-.093 1.53-.281.4-.187.71-.437.91-.75.21-.312.32-.652.32-1.019 0-.477-.1-.86-.29-1.149-.18-.289-.47-.5-.86-.633-.39-.14-.88-.211-1.48-.211h-2.16v-1.324Zm17.08 3.996 4.31-9.797h2.09l-5.65 12.68h-1.5l-5.63-12.68h2.09l4.29 9.797Zm-4.92-9.797V269h-2.17v-12.68h2.17Zm9.77 12.68v-12.68h2.18V269h-2.18Zm5.1-6.199v-.27c0-.914.13-1.761.4-2.543.26-.789.65-1.472 1.15-2.05.5-.586 1.1-1.04 1.81-1.36.71-.328 1.51-.492 2.39-.492.89 0 1.69.164 2.4.492.72.32 1.33.774 1.83 1.36.51.578.9 1.261 1.16 2.05.27.782.4 1.629.4 2.543v.27c0 .914-.13 1.761-.4 2.543-.26.781-.65 1.465-1.16 2.051-.5.578-1.1 1.031-1.81 1.359-.71.32-1.5.48-2.39.48-.9 0-1.7-.16-2.41-.48-.71-.328-1.32-.781-1.82-1.359-.5-.586-.89-1.27-1.15-2.051-.27-.782-.4-1.629-.4-2.543Zm2.17-.27v.27c0 .633.07 1.23.22 1.793.15.554.37 1.047.67 1.476.3.43.68.77 1.13 1.02.46.242.98.363 1.59.363.59 0 1.11-.121 1.55-.363.46-.25.83-.59 1.13-1.02.3-.429.52-.922.67-1.476.15-.563.23-1.16.23-1.793v-.27c0-.625-.08-1.215-.23-1.769-.15-.563-.38-1.059-.68-1.489-.3-.437-.67-.781-1.13-1.031-.44-.25-.97-.375-1.57-.375-.59 0-1.12.125-1.57.375-.44.25-.82.594-1.12 1.031-.3.43-.52.926-.67 1.489-.15.554-.22 1.144-.22 1.769Zm15.68.949-4.81-7.16h2.61l3.29 5.25h2.53l-.32 1.91h-3.3Zm1.18-.222-3.68 5.742h-2.74l5.05-7.312 1.37 1.57Zm3.55-6.938V269h-2.17v-12.68h2.17Zm7.39 0-4.8 7.16h-3.3l-.34-1.91h2.54l3.28-5.25h2.62Zm-2.32 12.68-3.69-5.742 1.4-1.57 5.04 7.312h-2.75Zm13.35-7.184v1.758h-6.7v-1.758h6.7Zm-6.24-5.496V269h-2.17v-12.68h2.17Zm8 0V269h-2.18v-12.68h2.18Zm2.92 6.481v-.27c0-.914.13-1.761.4-2.543.26-.789.64-1.472 1.14-2.05.5-.586 1.11-1.04 1.82-1.36.71-.328 1.51-.492 2.39-.492.89 0 1.69.164 2.4.492.72.32 1.33.774 1.83 1.36.51.578.9 1.261 1.16 2.05.27.782.4 1.629.4 2.543v.27c0 .914-.13 1.761-.4 2.543-.26.781-.65 1.465-1.16 2.051-.5.578-1.1 1.031-1.81 1.359-.71.32-1.5.48-2.39.48-.9 0-1.7-.16-2.41-.48-.71-.328-1.32-.781-1.83-1.359-.5-.586-.88-1.27-1.14-2.051-.27-.782-.4-1.629-.4-2.543Zm2.17-.27v.27c0 .633.07 1.23.22 1.793.15.554.37 1.047.67 1.476.3.43.68.77 1.13 1.02.46.242.98.363 1.59.363.59 0 1.11-.121 1.55-.363.46-.25.83-.59 1.13-1.02.3-.429.52-.922.67-1.476.15-.563.23-1.16.23-1.793v-.27c0-.625-.08-1.215-.23-1.769-.15-.563-.38-1.059-.68-1.489-.3-.437-.67-.781-1.13-1.031-.44-.25-.97-.375-1.57-.375-.59 0-1.12.125-1.57.375-.44.25-.82.594-1.12 1.031-.3.43-.52.926-.67 1.489-.15.554-.22 1.144-.22 1.769Zm17.16 4.922c.52 0 1-.105 1.43-.316.44-.211.8-.5 1.08-.867.28-.375.44-.801.48-1.278h2.06c-.03.75-.29 1.449-.76 2.098-.46.64-1.06 1.16-1.81 1.558-.75.391-1.58.586-2.48.586-.95 0-1.78-.168-2.49-.504-.71-.335-1.29-.796-1.76-1.382-.46-.586-.81-1.258-1.04-2.016-.23-.766-.34-1.574-.34-2.426v-.492c0-.852.11-1.656.34-2.414.23-.766.58-1.441 1.04-2.027.47-.586 1.05-1.047 1.76-1.383.71-.336 1.54-.504 2.49-.504 1 0 1.86.203 2.61.609.74.399 1.32.946 1.74 1.641.43.687.67 1.469.7 2.344h-2.06c-.04-.524-.19-.996-.44-1.418-.25-.422-.6-.758-1.03-1.008-.43-.258-.94-.387-1.52-.387-.66 0-1.22.133-1.67.399-.45.257-.8.609-1.07 1.054-.26.438-.44.926-.56 1.465-.11.531-.16 1.074-.16 1.629v.492c0 .555.05 1.102.16 1.641.11.539.29 1.027.55 1.465.27.437.62.789 1.07 1.054.45.258 1.01.387 1.68.387Zm12.66-11.133V269h-2.18v-12.68h2.18Zm4.25 0v1.758h-10.6v-1.758h10.6Zm3.92 4.36h3.81c1.02 0 1.88.179 2.59.539.7.351 1.23.84 1.59 1.465.37.617.55 1.32.55 2.109 0 .586-.1 1.137-.3 1.652-.21.508-.51.953-.92 1.336-.4.383-.89.684-1.49.903-.58.211-1.26.316-2.02.316h-5.39v-12.68h2.16v10.899h3.23c.62 0 1.12-.114 1.5-.34.37-.227.64-.52.81-.879.16-.359.24-.734.24-1.125 0-.383-.08-.758-.24-1.125-.17-.367-.44-.672-.81-.914-.38-.25-.88-.375-1.5-.375h-3.81v-1.781Zm-208.1 27.64v1.793h-6.41v-1.793h6.41Zm-6.1 0V301h-2.17v-12.68h2.17Zm8.02 0V301h-2.18v-12.68h2.18Zm5.65 2.438v15.117h-2.18V288.32h1.99l.19 2.438Zm8.54 3.797v.246c0 .922-.11 1.777-.33 2.566-.22.781-.54 1.461-.96 2.039-.41.578-.93 1.028-1.53 1.348-.61.32-1.31.48-2.1.48-.81 0-1.52-.132-2.14-.398-.61-.266-1.14-.652-1.57-1.16-.43-.508-.77-1.117-1.03-1.828-.25-.711-.42-1.512-.51-2.403v-1.312c.09-.938.27-1.778.53-2.52.25-.742.59-1.375 1.01-1.898.43-.531.95-.934 1.56-1.207.61-.281 1.32-.422 2.11-.422.8 0 1.51.156 2.12.469.62.304 1.14.742 1.56 1.312.42.571.74 1.254.95 2.051.22.789.33 1.668.33 2.637Zm-2.18.246v-.246c0-.633-.07-1.227-.2-1.782-.13-.562-.34-1.054-.62-1.476-.27-.43-.63-.766-1.06-1.008-.42-.25-.94-.375-1.53-.375-.55 0-1.02.094-1.43.281-.4.188-.74.442-1.02.762-.28.313-.51.672-.69 1.078-.17.399-.3.813-.39 1.242v3.035c.16.547.38 1.063.66 1.547.28.477.66.864 1.12 1.161.47.289 1.06.433 1.77.433.59 0 1.09-.121 1.51-.363.43-.25.79-.59 1.06-1.02.28-.429.49-.922.62-1.476.13-.563.2-1.16.2-1.793Zm7.51.152h2.35l-3.67 6.047h-2.35l3.67-6.047Zm1.82-6.633h5.29V301h-2.16v-10.922h-3.13c-.62 0-1.12.106-1.51.317-.39.203-.68.468-.86.796-.18.329-.27.668-.27 1.02 0 .344.08.676.25.996.16.313.42.57.77.773.35.204.81.305 1.36.305h3.97v1.781h-3.97c-.73 0-1.37-.097-1.93-.293-.57-.195-1.04-.464-1.43-.808-.39-.352-.69-.762-.89-1.231-.21-.476-.31-.992-.31-1.546 0-.555.11-1.067.32-1.536.22-.468.53-.879.94-1.23.41-.352.91-.621 1.51-.809.6-.195 1.28-.293 2.05-.293Zm16.08 9.797 4.31-9.797h2.08l-5.64 12.68h-1.5l-5.63-12.68h2.09l4.29 9.797Zm-4.93-9.797V301h-2.16v-12.68h2.16Zm9.78 12.68v-12.68h2.18V301h-2.18Zm5.1-6.199v-.27c0-.914.13-1.761.39-2.543.27-.789.65-1.472 1.15-2.05.5-.586 1.11-1.04 1.82-1.36.71-.328 1.51-.492 2.39-.492.89 0 1.69.164 2.4.492.72.32 1.33.774 1.83 1.36.51.578.89 1.261 1.16 2.05.27.782.4 1.629.4 2.543v.27c0 .914-.13 1.761-.4 2.543-.27.781-.65 1.465-1.16 2.051-.5.578-1.11 1.031-1.82 1.359-.7.32-1.5.48-2.39.48-.89 0-1.69-.16-2.4-.48-.71-.328-1.32-.781-1.83-1.359-.5-.586-.88-1.27-1.15-2.051-.26-.782-.39-1.629-.39-2.543Zm2.16-.27v.27c0 .633.08 1.23.23 1.793.14.554.37 1.047.66 1.476.31.43.69.77 1.14 1.02.45.242.98.363 1.58.363.6 0 1.12-.121 1.56-.363.45-.25.83-.59 1.13-1.02.29-.429.52-.922.66-1.476.16-.563.24-1.16.24-1.793v-.27c0-.625-.08-1.215-.24-1.769-.14-.563-.37-1.059-.68-1.489-.29-.437-.67-.781-1.12-1.031-.45-.25-.97-.375-1.57-.375-.59 0-1.12.125-1.57.375-.45.25-.82.594-1.13 1.031-.29.43-.52.926-.66 1.489-.15.554-.23 1.144-.23 1.769Zm20.29-6.211v1.793h-5.86V301h-2.17v-12.68h8.03Zm1.08 6.481v-.27c0-.914.13-1.761.4-2.543.26-.789.64-1.472 1.14-2.05.5-.586 1.11-1.04 1.82-1.36.71-.328 1.51-.492 2.39-.492.89 0 1.69.164 2.4.492.72.32 1.33.774 1.83 1.36.51.578.9 1.261 1.16 2.05.27.782.4 1.629.4 2.543v.27c0 .914-.13 1.761-.4 2.543-.26.781-.65 1.465-1.16 2.051-.5.578-1.1 1.031-1.82 1.359-.7.32-1.5.48-2.39.48-.89 0-1.69-.16-2.4-.48-.71-.328-1.32-.781-1.83-1.359-.5-.586-.88-1.27-1.14-2.051-.27-.782-.4-1.629-.4-2.543Zm2.16-.27v.27c0 .633.08 1.23.23 1.793.15.554.37 1.047.67 1.476.3.43.68.77 1.13 1.02.46.242.98.363 1.58.363.6 0 1.12-.121 1.56-.363.46-.25.83-.59 1.13-1.02.29-.429.52-.922.67-1.476.15-.563.23-1.16.23-1.793v-.27c0-.625-.08-1.215-.23-1.769-.15-.563-.38-1.059-.68-1.489-.3-.437-.68-.781-1.13-1.031-.44-.25-.97-.375-1.57-.375-.59 0-1.12.125-1.57.375-.45.25-.82.594-1.12 1.031-.3.43-.52.926-.67 1.489-.15.554-.23 1.144-.23 1.769Zm17.48.27v-.27c0-.914.13-1.761.4-2.543.26-.789.64-1.472 1.14-2.05.5-.586 1.11-1.04 1.82-1.36.71-.328 1.51-.492 2.39-.492.89 0 1.69.164 2.4.492.72.32 1.33.774 1.83 1.36.51.578.9 1.261 1.16 2.05.27.782.4 1.629.4 2.543v.27c0 .914-.13 1.761-.4 2.543-.26.781-.65 1.465-1.16 2.051-.5.578-1.1 1.031-1.81 1.359-.71.32-1.5.48-2.4.48-.89 0-1.69-.16-2.4-.48-.71-.328-1.32-.781-1.83-1.359-.5-.586-.88-1.27-1.14-2.051-.27-.782-.4-1.629-.4-2.543Zm2.17-.27v.27c0 .633.07 1.23.22 1.793.15.554.37 1.047.67 1.476.3.43.68.77 1.13 1.02.46.242.98.363 1.58.363.6 0 1.12-.121 1.56-.363.46-.25.83-.59 1.13-1.02.3-.429.52-.922.67-1.476.15-.563.23-1.16.23-1.793v-.27c0-.625-.08-1.215-.23-1.769-.15-.563-.38-1.059-.68-1.489-.3-.437-.68-.781-1.13-1.031-.44-.25-.97-.375-1.57-.375-.59 0-1.12.125-1.57.375-.44.25-.82.594-1.12 1.031-.3.43-.52.926-.67 1.489-.15.554-.22 1.144-.22 1.769Zm20.22-11.73h1.78c0 .765-.11 1.375-.35 1.828-.23.445-.55.789-.96 1.031-.4.242-.85.426-1.36.551-.5.125-1.02.246-1.56.363-.67.141-1.29.364-1.87.668-.57.297-1.06.719-1.48 1.266-.41.547-.71 1.258-.9 2.133-.19.875-.24 1.957-.15 3.246v1.078h-1.78v-1.078c0-1.446.13-2.707.41-3.785.28-1.079.67-1.989 1.18-2.731.51-.742 1.11-1.332 1.8-1.769.71-.438 1.48-.739 2.32-.903.61-.117 1.14-.242 1.57-.375.44-.14.77-.328 1-.562.23-.235.35-.555.35-.961Zm-2.56 6.246c.82 0 1.56.144 2.21.433.65.29 1.2.692 1.65 1.208.46.515.8 1.124 1.03 1.828.25.695.37 1.453.37 2.273v.258c0 .883-.13 1.703-.39 2.461-.25.75-.62 1.406-1.11 1.969-.49.554-1.08.988-1.78 1.3-.7.313-1.49.469-2.38.469-.89 0-1.69-.156-2.39-.469-.7-.312-1.29-.746-1.78-1.3-.5-.563-.87-1.219-1.13-1.969-.25-.758-.37-1.578-.37-2.461v-.258c0-.195.03-.387.1-.574.07-.188.16-.379.26-.574.11-.196.21-.403.29-.621.29-.704.68-1.356 1.18-1.958.51-.601 1.12-1.085 1.82-1.453.71-.375 1.52-.562 2.42-.562Zm-.43 1.769c-.79 0-1.45.184-1.97.551-.5.367-.88.856-1.13 1.465-.25.602-.38 1.254-.38 1.957v.258c0 .594.07 1.156.21 1.687.14.532.36 1.004.64 1.418.29.407.65.727 1.09.961.44.235.97.352 1.57.352.6 0 1.12-.117 1.56-.352.43-.234.79-.554 1.07-.961.29-.414.5-.886.64-1.418.14-.531.21-1.093.21-1.687v-.258c0-.531-.07-1.035-.21-1.512-.14-.476-.36-.898-.65-1.265-.28-.367-.64-.657-1.09-.867-.44-.219-.95-.329-1.56-.329Zm25.56 8.403-.21 5.543h-1.93V301h-1.65v-1.781h3.79Zm-17.56-10.899h2.16v10.899h4.64V288.32h2.18v10.899h4.63V288.32h2.17V301h-15.78v-12.68Zm25.21 12.914c-.88 0-1.68-.148-2.4-.445-.71-.305-1.32-.73-1.84-1.277-.51-.547-.9-1.196-1.17-1.946-.27-.75-.41-1.57-.41-2.461v-.492c0-1.031.15-1.949.46-2.754.3-.812.72-1.5 1.24-2.062.52-.563 1.12-.988 1.78-1.277.66-.29 1.35-.434 2.06-.434.91 0 1.69.156 2.35.469.66.312 1.2.75 1.63 1.312.42.555.73 1.211.93 1.969.21.75.31 1.57.31 2.461v.973h-9.47v-1.77h7.3v-.164c-.03-.563-.15-1.109-.35-1.641-.2-.531-.51-.968-.94-1.312-.43-.344-1.01-.516-1.76-.516-.49 0-.94.106-1.36.317-.41.203-.77.507-1.06.914-.3.406-.53.902-.69 1.488-.17.586-.25 1.262-.25 2.027v.492c0 .602.08 1.168.25 1.7.17.523.41.984.73 1.383.33.398.73.71 1.19.937.47.227 1 .34 1.59.34.77 0 1.42-.156 1.95-.469.53-.312.99-.73 1.39-1.254l1.31 1.043c-.27.414-.62.809-1.04 1.184-.42.375-.94.679-1.56.914-.61.234-1.33.351-2.17.351Zm16.07-7.418v1.758h-6.7v-1.758h6.7Zm-6.25-5.496V301h-2.16v-12.68h2.16Zm8.01 0V301h-2.18v-12.68h2.18Zm5.83 9.246 5.85-9.246h2.18V301h-2.18v-9.246L1449.3 301h-2.15v-12.68h2.15v9.246Zm14.08-2.613h2.34l-3.67 6.047h-2.34l3.67-6.047Zm1.82-6.633h5.29V301h-2.17v-10.922h-3.12c-.62 0-1.13.106-1.52.317-.39.203-.67.468-.85.796-.18.329-.27.668-.27 1.02 0 .344.08.676.24.996.17.313.43.57.78.773.35.204.8.305 1.36.305h3.97v1.781h-3.97c-.73 0-1.37-.097-1.94-.293-.56-.195-1.04-.464-1.43-.808-.39-.352-.68-.762-.89-1.231-.2-.476-.3-.992-.3-1.546 0-.555.1-1.067.32-1.536.21-.468.53-.879.93-1.23.42-.352.92-.621 1.51-.809.61-.195 1.29-.293 2.06-.293Zm19.81 11.133c.52 0 .99-.105 1.43-.316.44-.211.8-.5 1.08-.867.28-.375.44-.801.48-1.278h2.06c-.04.75-.29 1.449-.76 2.098-.46.64-1.07 1.16-1.82 1.558-.75.391-1.57.586-2.47.586-.95 0-1.78-.168-2.49-.504-.71-.335-1.29-.796-1.76-1.382-.46-.586-.81-1.258-1.05-2.016-.22-.766-.33-1.574-.33-2.426v-.492c0-.852.11-1.656.33-2.414.24-.766.59-1.441 1.05-2.027.47-.586 1.05-1.047 1.76-1.383.71-.336 1.54-.504 2.49-.504.99 0 1.86.203 2.6.609.75.399 1.33.946 1.75 1.641.43.687.66 1.469.7 2.344H1488c-.04-.524-.19-.996-.45-1.418-.25-.422-.59-.758-1.03-1.008-.43-.258-.93-.387-1.51-.387-.66 0-1.22.133-1.67.399-.45.257-.8.609-1.07 1.054-.26.438-.45.926-.56 1.465-.11.531-.17 1.074-.17 1.629v.492c0 .555.06 1.102.17 1.641.11.539.29 1.027.55 1.465.26.437.62.789 1.06 1.054.46.258 1.02.387 1.69.387Zm6.92-4.652v-.27c0-.914.13-1.761.39-2.543.27-.789.65-1.472 1.15-2.05.5-.586 1.11-1.04 1.82-1.36.71-.328 1.51-.492 2.39-.492.89 0 1.69.164 2.4.492.72.32 1.33.774 1.83 1.36.51.578.89 1.261 1.16 2.05.27.782.4 1.629.4 2.543v.27c0 .914-.13 1.761-.4 2.543-.27.781-.65 1.465-1.16 2.051-.5.578-1.11 1.031-1.82 1.359-.7.32-1.5.48-2.39.48-.89 0-1.69-.16-2.4-.48-.71-.328-1.32-.781-1.83-1.359-.5-.586-.88-1.27-1.15-2.051-.26-.782-.39-1.629-.39-2.543Zm2.16-.27v.27c0 .633.08 1.23.23 1.793.14.554.37 1.047.66 1.476.31.43.69.77 1.14 1.02.45.242.98.363 1.58.363.6 0 1.12-.121 1.56-.363.45-.25.83-.59 1.13-1.02.29-.429.52-.922.66-1.476.16-.563.24-1.16.24-1.793v-.27c0-.625-.08-1.215-.24-1.769-.14-.563-.37-1.059-.67-1.489-.3-.437-.68-.781-1.13-1.031-.45-.25-.97-.375-1.57-.375-.59 0-1.12.125-1.57.375-.45.25-.82.594-1.13 1.031-.29.43-.52.926-.66 1.489-.15.554-.23 1.144-.23 1.769Zm-188.19 36.922c.52 0 .99-.105 1.43-.316.44-.211.8-.5 1.08-.867.28-.375.44-.801.48-1.278h2.06c-.04.75-.29 1.449-.76 2.098-.46.64-1.07 1.16-1.81 1.558-.76.391-1.58.586-2.48.586-.95 0-1.78-.168-2.49-.504-.71-.335-1.29-.796-1.76-1.382-.46-.586-.81-1.258-1.04-2.016-.23-.766-.34-1.574-.34-2.426v-.492c0-.852.11-1.656.34-2.414.23-.766.58-1.441 1.04-2.027.47-.586 1.05-1.047 1.76-1.383.71-.336 1.54-.504 2.49-.504.99 0 1.86.203 2.6.609.75.399 1.33.946 1.75 1.641.43.687.66 1.469.7 2.344h-2.06c-.04-.524-.19-.996-.44-1.418-.25-.422-.6-.758-1.04-1.008-.43-.258-.93-.387-1.51-.387-.66 0-1.22.133-1.67.399-.45.257-.8.609-1.07 1.054-.26.438-.45.926-.56 1.465-.11.531-.17 1.074-.17 1.629v.492c0 .555.06 1.102.17 1.641.11.539.29 1.027.55 1.465.26.437.62.789 1.06 1.054.46.258 1.02.387 1.69.387Zm15.94-11.133v1.793h-6.41v-1.793h6.41Zm-6.09 0V333h-2.17v-12.68h2.17Zm8.01 0V333h-2.18v-12.68h2.18Zm8.74 12.914c-.88 0-1.68-.148-2.4-.445-.71-.305-1.32-.73-1.84-1.277-.51-.547-.9-1.196-1.17-1.946-.27-.75-.41-1.57-.41-2.461v-.492c0-1.031.15-1.949.46-2.754.3-.812.72-1.5 1.24-2.062.52-.563 1.12-.988 1.78-1.277.66-.29 1.35-.434 2.06-.434.91 0 1.69.156 2.35.469.66.312 1.2.75 1.63 1.312.42.555.73 1.211.93 1.969.21.75.31 1.57.31 2.461v.973h-9.47v-1.77h7.3v-.164c-.03-.563-.15-1.109-.35-1.641-.2-.531-.51-.968-.94-1.312-.43-.344-1.02-.516-1.76-.516-.49 0-.94.106-1.36.317-.41.203-.77.507-1.06.914-.3.406-.53.902-.69 1.488-.17.586-.25 1.262-.25 2.027v.492c0 .602.08 1.168.25 1.7.17.523.41.984.73 1.383.33.398.73.71 1.19.937.47.227 1 .34 1.59.34.77 0 1.42-.156 1.95-.469.53-.312.99-.73 1.39-1.254l1.31 1.043c-.27.414-.62.809-1.04 1.184-.42.375-.94.679-1.56.914-.61.234-1.33.351-2.17.351Zm7.66-.234v-12.68h2.16v10.899h5.84V320.32h2.18V333h-10.18Zm11.68-1.781-.21 5.543h-1.93V333h-1.66v-1.781h3.8Zm4.7-1.653 5.85-9.246h2.18V333h-2.18v-9.246l-5.85 9.246h-2.16v-12.68h2.16v9.246Zm18.98 1.266v-6.527c0-.5-.1-.934-.3-1.301-.2-.375-.49-.664-.89-.867-.4-.203-.89-.305-1.48-.305-.55 0-1.03.094-1.44.281-.41.188-.73.434-.96.739-.23.304-.34.632-.34.984h-2.17c0-.453.12-.902.35-1.348.24-.445.57-.847 1.01-1.207.45-.367.98-.656 1.59-.867.63-.219 1.32-.328 2.09-.328.92 0 1.73.156 2.44.469.71.312 1.26.785 1.66 1.418.41.625.61 1.41.61 2.355v5.906c0 .422.04.871.11 1.348.08.477.19.887.34 1.23V333h-2.26c-.11-.25-.2-.582-.26-.996-.07-.422-.1-.813-.1-1.172Zm.38-5.52.02 1.524h-2.19c-.62 0-1.17.051-1.65.152-.49.094-.89.239-1.22.434-.33.195-.58.441-.75.738-.17.289-.26.629-.26 1.02 0 .398.09.761.27 1.09.18.328.45.589.81.785.37.187.82.281 1.35.281.66 0 1.25-.141 1.76-.422.5-.281.91-.625 1.2-1.031.31-.406.47-.801.49-1.184l.93 1.043c-.05.328-.2.692-.45 1.09-.24.398-.56.781-.97 1.148-.4.36-.87.661-1.43.903-.54.234-1.16.351-1.85.351-.86 0-1.61-.168-2.26-.504-.64-.335-1.14-.785-1.5-1.347-.35-.571-.53-1.207-.53-1.91 0-.68.13-1.278.4-1.793.27-.524.65-.957 1.15-1.301.5-.352 1.1-.617 1.8-.797.71-.18 1.49-.27 2.36-.27h2.52Zm13.67-4.992v1.793h-6.12v-1.793h6.12Zm1.91 0V333h-2.16v-12.68h2.16Zm-8.56 0h2.18l-.33 6.118c-.06.945-.15 1.781-.27 2.507-.12.719-.28 1.336-.49 1.852-.21.515-.46.937-.78 1.265-.3.321-.67.559-1.1.715-.43.149-.92.223-1.49.223h-.68v-1.91l.47-.035c.34-.024.62-.102.86-.235.24-.132.44-.328.61-.586.16-.265.3-.605.4-1.019.11-.414.19-.906.24-1.477.07-.57.11-1.234.14-1.992l.24-5.426Zm14.4 9.246 5.85-9.246h2.18V333h-2.18v-9.246l-5.85 9.246h-2.16v-12.68h2.16v9.246Zm16.58 1.887c.52 0 .99-.105 1.43-.316.44-.211.8-.5 1.08-.867.28-.375.44-.801.48-1.278h2.06c-.04.75-.29 1.449-.76 2.098-.46.64-1.07 1.16-1.81 1.558-.76.391-1.58.586-2.48.586-.95 0-1.78-.168-2.49-.504-.71-.335-1.29-.796-1.76-1.382-.46-.586-.81-1.258-1.04-2.016-.23-.766-.34-1.574-.34-2.426v-.492c0-.852.11-1.656.34-2.414.23-.766.58-1.441 1.04-2.027.47-.586 1.05-1.047 1.76-1.383.71-.336 1.54-.504 2.49-.504.99 0 1.86.203 2.6.609.75.399 1.33.946 1.75 1.641.43.687.66 1.469.7 2.344h-2.06c-.04-.524-.19-.996-.44-1.418-.25-.422-.6-.758-1.04-1.008-.43-.258-.93-.387-1.51-.387-.66 0-1.22.133-1.67.399-.45.257-.8.609-1.07 1.054-.26.438-.45.926-.56 1.465-.11.531-.17 1.074-.17 1.629v.492c0 .555.06 1.102.17 1.641.11.539.29 1.027.55 1.465.26.437.62.789 1.06 1.054.46.258 1.02.387 1.69.387Zm12.66-11.133V333h-2.18v-12.68h2.18Zm4.25 0v1.758h-10.6v-1.758h10.6Zm9.42 10.512v-6.527c0-.5-.1-.934-.3-1.301-.2-.375-.49-.664-.89-.867-.4-.203-.89-.305-1.48-.305-.54 0-1.02.094-1.44.281-.41.188-.73.434-.96.739-.23.304-.34.632-.34.984h-2.17c0-.453.12-.902.35-1.348.24-.445.57-.847 1.01-1.207.45-.367.98-.656 1.6-.867.62-.219 1.32-.328 2.08-.328.92 0 1.74.156 2.44.469.71.312 1.26.785 1.66 1.418.41.625.61 1.41.61 2.355v5.906c0 .422.04.871.11 1.348.08.477.19.887.34 1.23V333h-2.26c-.11-.25-.2-.582-.26-.996-.06-.422-.1-.813-.1-1.172Zm.38-5.52.02 1.524h-2.19c-.62 0-1.17.051-1.65.152-.49.094-.89.239-1.22.434-.33.195-.58.441-.75.738-.17.289-.26.629-.26 1.02 0 .398.09.761.27 1.09.18.328.45.589.81.785.37.187.82.281 1.35.281.66 0 1.25-.141 1.76-.422.5-.281.91-.625 1.2-1.031.31-.406.47-.801.5-1.184l.92 1.043c-.05.328-.2.692-.44 1.09-.25.398-.57.781-.98 1.148-.4.36-.87.661-1.43.903-.54.234-1.16.351-1.85.351-.86 0-1.61-.168-2.26-.504-.64-.335-1.14-.785-1.5-1.347-.35-.571-.53-1.207-.53-1.91 0-.68.14-1.278.4-1.793.27-.524.65-.957 1.15-1.301.5-.352 1.1-.617 1.8-.797.71-.18 1.49-.27 2.36-.27h2.52Zm12.49 4.805 4.31-9.797h2.09l-5.65 12.68h-1.5l-5.62-12.68h2.08l4.29 9.797Zm-4.92-9.797V333h-2.17v-12.68h2.17Zm9.77 12.68v-12.68h2.18V333h-2.18Zm8.02-3.434 5.85-9.246h2.18V333h-2.18v-9.246l-5.85 9.246h-2.16v-12.68h2.16v9.246Z" />
    <circle cx="1387" cy="293" r="292.5" stroke="#4D4D4D" />
  </g>
</svg>