<svg width="72" height="72" viewBox="0 0 72 72" fill="none" xmlns="http://www.w3.org/2000/svg">
<rect width="72" height="72" rx="20" fill="#004DFF"/>
<path d="M29.5 25.5C29.5 25.5 29 17.5 36 17.5C43 17.5 42.5 25.5 42.5 25.5" stroke="white" stroke-width="3"/>
<path fill-rule="evenodd" clip-rule="evenodd" d="M25.2663 56H46.8017C49.0867 56 50.9074 54.0891 50.797 51.8067L49.6841 28.8067C49.581 26.6752 47.8228 25 45.6888 25H26.7502C24.641 25 22.8942 26.6377 22.7585 28.7425L21.2746 51.7425C21.1258 54.0481 22.9558 56 25.2663 56ZM42.5267 32.5955C41.7543 32.3059 40.8937 32.6943 40.5992 33.4634L40.5954 33.4729C40.5898 33.4865 40.5786 33.5128 40.5616 33.5503C40.5274 33.6253 40.4703 33.7432 40.3879 33.8896C40.2218 34.185 39.9617 34.581 39.5932 34.9741C38.8726 35.7427 37.7471 36.5 36 36.5C34.2529 36.5 33.1274 35.7427 32.4068 34.9741C32.0383 34.581 31.7782 34.185 31.612 33.8896C31.5297 33.7432 31.4725 33.6253 31.4384 33.5503C31.4213 33.5128 31.4102 33.4865 31.4046 33.4729L31.4007 33.4634C31.1062 32.6943 30.2457 32.3059 29.4733 32.5955C28.6976 32.8864 28.3046 33.751 28.5955 34.5267L30 34C28.5955 34.5267 28.5957 34.5274 28.596 34.5281L28.5966 34.5296L28.5978 34.5329L28.6007 34.5405L28.6084 34.5603C28.6144 34.5754 28.622 34.5944 28.6313 34.6169C28.6499 34.662 28.6753 34.7215 28.7081 34.7935C28.7735 34.9372 28.8687 35.1318 28.9973 35.3604C29.253 35.815 29.6492 36.419 30.2182 37.0259C31.3726 38.2573 33.2471 39.5 36 39.5C38.7529 39.5 40.6274 38.2573 41.7818 37.0259C42.3508 36.419 42.7469 35.815 43.0027 35.3604C43.1312 35.1318 43.2264 34.9372 43.2919 34.7935C43.3246 34.7215 43.3501 34.662 43.3687 34.6169C43.378 34.5944 43.3856 34.5754 43.3915 34.5603L43.3992 34.5405L43.4021 34.5329L43.4034 34.5296L43.404 34.5281C43.4042 34.5274 43.4045 34.5267 42 34L43.4045 34.5267C43.6954 33.751 43.3023 32.8864 42.5267 32.5955Z" fill="white"/>
</svg>
