<svg width="88" height="27" viewBox="0 0 88 27" fill="none" xmlns="http://www.w3.org/2000/svg">
<path d="M1.9508 0.973801V9.68823H0.795654V0.973801H1.9508ZM7.31951 0.973801L3.53687 5.76793H1.48994L1.31038 4.8103H2.84857L5.88905 0.973801H7.31951ZM6.15838 9.68823L2.88448 5.6183L3.53088 4.60681L7.57088 9.68823H6.15838Z" fill="#9C9C9C"/>
<path d="M9.09304 6.52207V6.38441C9.09304 5.91756 9.16087 5.48464 9.29653 5.08562C9.4322 4.68262 9.62771 4.33348 9.88308 4.03822C10.1384 3.73896 10.4477 3.50753 10.8108 3.34393C11.1739 3.17635 11.5809 3.09256 12.0318 3.09256C12.4866 3.09256 12.8956 3.17635 13.2587 3.34393C13.6258 3.50753 13.937 3.73896 14.1924 4.03822C14.4518 4.33348 14.6493 4.68262 14.7849 5.08562C14.9206 5.48464 14.9884 5.91756 14.9884 6.38441V6.52207C14.9884 6.98891 14.9206 7.42184 14.7849 7.82085C14.6493 8.21987 14.4518 8.569 14.1924 8.86826C13.937 9.16353 13.6278 9.39496 13.2647 9.56254C12.9056 9.72614 12.4986 9.80793 12.0437 9.80793C11.5889 9.80793 11.1799 9.72614 10.8168 9.56254C10.4537 9.39496 10.1424 9.16353 9.88308 8.86826C9.62771 8.569 9.4322 8.21987 9.29653 7.82085C9.16087 7.42184 9.09304 6.98891 9.09304 6.52207ZM10.2003 6.38441V6.52207C10.2003 6.84527 10.2382 7.15051 10.314 7.4378C10.3898 7.7211 10.5035 7.97248 10.6552 8.19193C10.8108 8.41139 11.0043 8.58496 11.2357 8.71265C11.4672 8.83634 11.7365 8.89819 12.0437 8.89819C12.347 8.89819 12.6123 8.83634 12.8398 8.71265C13.0712 8.58496 13.2627 8.41139 13.4143 8.19193C13.566 7.97248 13.6797 7.7211 13.7555 7.4378C13.8353 7.15051 13.8752 6.84527 13.8752 6.52207V6.38441C13.8752 6.0652 13.8353 5.76394 13.7555 5.48065C13.6797 5.19336 13.564 4.93998 13.4084 4.72053C13.2567 4.49708 13.0652 4.32151 12.8338 4.19383C12.6063 4.06615 12.339 4.0023 12.0318 4.0023C11.7285 4.0023 11.4612 4.06615 11.2297 4.19383C11.0023 4.32151 10.8108 4.49708 10.6552 4.72053C10.5035 4.93998 10.3898 5.19336 10.314 5.48065C10.2382 5.76394 10.2003 6.0652 10.2003 6.38441Z" fill="#9C9C9C"/>
<path d="M21.203 8.21588L23.4055 3.21226H24.4709L21.586 9.68823H20.8199L17.947 3.21226H19.0124L21.203 8.21588ZM18.6892 3.21226V9.68823H17.5819V3.21226H18.6892ZM23.6808 9.68823V3.21226H24.7941V9.68823H23.6808Z" fill="#9C9C9C"/>
<path d="M31.9962 3.21226V4.12799H28.7223V3.21226H31.9962ZM28.8839 3.21226V9.68823H27.7766V3.21226H28.8839ZM32.9778 3.21226V9.68823H31.8645V3.21226H32.9778Z" fill="#9C9C9C"/>
<path d="M40.1858 3.21226V4.12799H37.0556V3.21226H40.1858ZM41.1614 3.21226V9.68823H40.0542V3.21226H41.1614ZM36.7863 3.21226H37.8995L37.7319 6.33653C37.704 6.81933 37.6581 7.24627 37.5942 7.61736C37.5344 7.98445 37.4506 8.29967 37.3429 8.56302C37.2391 8.82636 37.1075 9.04183 36.9478 9.20942C36.7922 9.37301 36.6047 9.49471 36.3852 9.57451C36.1658 9.65032 35.9124 9.68823 35.6251 9.68823H35.278V8.71265L35.5174 8.69469C35.689 8.68272 35.8346 8.64282 35.9543 8.57499C36.078 8.50715 36.1817 8.4074 36.2655 8.27573C36.3493 8.14006 36.4172 7.96649 36.469 7.75502C36.5249 7.54354 36.5668 7.29216 36.5947 7.00088C36.6266 6.7096 36.6506 6.37044 36.6665 5.9834L36.7863 3.21226Z" fill="#9C9C9C"/>
<path d="M46.7355 9.80793C46.2847 9.80793 45.8757 9.73212 45.5086 9.5805C45.1455 9.42488 44.8323 9.20742 44.5689 8.92811C44.3095 8.6488 44.11 8.31762 43.9704 7.93457C43.8307 7.55152 43.7609 7.13256 43.7609 6.67768V6.4263C43.7609 5.89961 43.8387 5.43077 43.9943 5.01979C44.1499 4.60481 44.3614 4.25368 44.6288 3.96639C44.8961 3.6791 45.1993 3.46164 45.5385 3.31401C45.8777 3.16637 46.2288 3.09256 46.5919 3.09256C47.0548 3.09256 47.4538 3.17236 47.7889 3.33196C48.1281 3.49157 48.4054 3.71502 48.6209 4.0023C48.8363 4.2856 48.9959 4.62077 49.0997 5.00782C49.2034 5.39087 49.2553 5.80983 49.2553 6.2647V6.76148H44.4193V5.85771H48.148V5.77392C48.1321 5.48663 48.0722 5.20732 47.9685 4.93599C47.8687 4.66466 47.7091 4.44122 47.4897 4.26565C47.2702 4.09009 46.971 4.0023 46.5919 4.0023C46.3405 4.0023 46.1091 4.05617 45.8976 4.1639C45.6861 4.26765 45.5046 4.42326 45.353 4.63075C45.2013 4.83824 45.0836 5.09161 44.9998 5.39087C44.916 5.69013 44.8741 6.03527 44.8741 6.4263V6.67768C44.8741 6.98492 44.916 7.27421 44.9998 7.54553C45.0876 7.81287 45.2133 8.04829 45.3769 8.25179C45.5445 8.45528 45.746 8.61489 45.9814 8.7306C46.2208 8.84631 46.4921 8.90417 46.7954 8.90417C47.1864 8.90417 47.5176 8.82437 47.7889 8.66476C48.0603 8.50516 48.2977 8.29169 48.5012 8.02435L49.1715 8.55703C49.0319 8.76851 48.8543 8.97001 48.6388 9.16153C48.4234 9.35306 48.158 9.50868 47.8428 9.62838C47.5316 9.74808 47.1625 9.80793 46.7355 9.80793Z" fill="#9C9C9C"/>
<path d="M52.8543 3.21226V9.68823H51.7471V3.21226H52.8543ZM57.1038 3.21226L54.0334 6.92308H52.4832L52.3156 5.95347H53.5845L55.7571 3.21226H57.1038ZM55.9127 9.68823L53.5306 6.75549L54.2429 5.95347L57.3193 9.68823H55.9127Z" fill="#9C9C9C"/>
<path d="M61.8819 8.89819C62.1452 8.89819 62.3886 8.84432 62.6121 8.73659C62.8355 8.62885 63.0191 8.48122 63.1627 8.29368C63.3064 8.10216 63.3882 7.8847 63.4081 7.6413H64.4615C64.4416 8.02435 64.3119 8.38147 64.0725 8.71265C63.8371 9.03984 63.5278 9.30518 63.1448 9.50868C62.7617 9.70818 62.3408 9.80793 61.8819 9.80793C61.3951 9.80793 60.9701 9.72215 60.607 9.55057C60.2479 9.379 59.9487 9.14358 59.7093 8.84432C59.4739 8.54506 59.2963 8.20191 59.1766 7.81487C59.0609 7.42384 59.003 7.01086 59.003 6.57593V6.32456C59.003 5.88963 59.0609 5.47865 59.1766 5.09161C59.2963 4.70058 59.4739 4.35543 59.7093 4.05617C59.9487 3.75691 60.2479 3.52149 60.607 3.34992C60.9701 3.17834 61.3951 3.09256 61.8819 3.09256C62.3886 3.09256 62.8315 3.1963 63.2106 3.40379C63.5897 3.60728 63.8869 3.88659 64.1024 4.24171C64.3218 4.59284 64.4416 4.99186 64.4615 5.43875H63.4081C63.3882 5.17141 63.3124 4.93001 63.1807 4.71454C63.053 4.49907 62.8774 4.3275 62.654 4.19982C62.4345 4.06814 62.1772 4.0023 61.8819 4.0023C61.5427 4.0023 61.2574 4.07014 61.026 4.2058C60.7986 4.33747 60.617 4.51703 60.4814 4.74447C60.3497 4.96791 60.2539 5.2173 60.1941 5.49262C60.1382 5.76394 60.1103 6.04126 60.1103 6.32456V6.57593C60.1103 6.85923 60.1382 7.13854 60.1941 7.41386C60.2499 7.68918 60.3437 7.93856 60.4754 8.16201C60.611 8.38546 60.7926 8.56501 61.02 8.70068C61.2514 8.83235 61.5387 8.89819 61.8819 8.89819Z" fill="#9C9C9C"/>
<path d="M71.2027 6.01931V6.91709H67.7792V6.01931H71.2027ZM68.0126 3.21226V9.68823H66.9054V3.21226H68.0126ZM72.1005 3.21226V9.68823H70.9873V3.21226H72.1005Z" fill="#9C9C9C"/>
<path d="M78.8058 8.58097V5.24722C78.8058 4.99186 78.754 4.7704 78.6502 4.58287C78.5505 4.39134 78.3988 4.24371 78.1953 4.13996C77.9918 4.03622 77.7405 3.98435 77.4412 3.98435C77.1619 3.98435 76.9165 4.03223 76.705 4.12799C76.4975 4.22376 76.3339 4.34945 76.2142 4.50506C76.0985 4.66068 76.0407 4.82826 76.0407 5.00782H74.9334C74.9334 4.77639 74.9933 4.54696 75.113 4.31952C75.2327 4.09208 75.4043 3.88659 75.6277 3.70305C75.8551 3.51551 76.1265 3.36787 76.4417 3.26014C76.7609 3.14842 77.116 3.09256 77.507 3.09256C77.9779 3.09256 78.3929 3.17236 78.752 3.33196C79.1151 3.49157 79.3984 3.73297 79.6019 4.05617C79.8093 4.37538 79.9131 4.77639 79.9131 5.25919V8.27573C79.9131 8.49119 79.931 8.72063 79.967 8.96402C80.0069 9.20742 80.0647 9.4169 80.1405 9.59247V9.68823H78.9854C78.9295 9.56055 78.8856 9.39097 78.8537 9.17949C78.8218 8.96402 78.8058 8.76452 78.8058 8.58097ZM78.9974 5.76195L79.0093 6.54002H77.8901C77.5749 6.54002 77.2936 6.56596 77.0462 6.61783C76.7988 6.66571 76.5913 6.73953 76.4237 6.83928C76.2561 6.93904 76.1285 7.06472 76.0407 7.21635C75.9529 7.36398 75.909 7.53755 75.909 7.73706C75.909 7.94056 75.9549 8.1261 76.0467 8.29368C76.1384 8.46127 76.2761 8.59494 76.4596 8.69469C76.6472 8.79045 76.8766 8.83833 77.1479 8.83833C77.4871 8.83833 77.7864 8.76651 78.0457 8.62287C78.3051 8.47922 78.5106 8.30366 78.6622 8.09617C78.8178 7.88868 78.9016 7.68718 78.9136 7.49167L79.3864 8.02435C79.3585 8.19193 79.2827 8.37748 79.159 8.58097C79.0353 8.78447 78.8697 8.97998 78.6622 9.16752C78.4587 9.35107 78.2153 9.50469 77.932 9.62838C77.6527 9.74808 77.3375 9.80793 76.9863 9.80793C76.5474 9.80793 76.1624 9.72215 75.8312 9.55057C75.504 9.379 75.2486 9.14956 75.0651 8.86228C74.8855 8.571 74.7958 8.2458 74.7958 7.88669C74.7958 7.53955 74.8636 7.2343 74.9993 6.97096C75.1349 6.70362 75.3304 6.48217 75.5858 6.3066C75.8412 6.12705 76.1484 5.99138 76.5075 5.89961C76.8666 5.80784 77.2676 5.76195 77.7105 5.76195H78.9974Z" fill="#9C9C9C"/>
<path d="M84.0687 6.59987H85.2658L83.3924 9.68823H82.1954L84.0687 6.59987ZM84.9964 3.21226H87.7017V9.68823H86.5945V4.11004H84.9964C84.6812 4.11004 84.4238 4.1639 84.2243 4.27164C84.0248 4.37538 83.8792 4.51105 83.7874 4.67863C83.6956 4.84622 83.6498 5.01979 83.6498 5.19934C83.6498 5.37491 83.6917 5.54449 83.7755 5.70808C83.8592 5.86769 83.9909 5.99936 84.1705 6.1031C84.35 6.20685 84.5815 6.25872 84.8648 6.25872H86.8937V7.16847H84.8648C84.4937 7.16847 84.1645 7.11859 83.8772 7.01884C83.5899 6.91909 83.3465 6.78143 83.147 6.60586C82.9475 6.4263 82.7959 6.21682 82.6921 5.97742C82.5884 5.73402 82.5365 5.47067 82.5365 5.18737C82.5365 4.90407 82.5904 4.64272 82.6981 4.40331C82.8098 4.1639 82.9694 3.95442 83.1769 3.77487C83.3884 3.59531 83.6458 3.45765 83.949 3.36189C84.2563 3.26214 84.6054 3.21226 84.9964 3.21226Z" fill="#9C9C9C"/>
<path d="M8.08657 19.0131V26.734H6.97332V17.7682H7.99081L8.08657 19.0131ZM12.4498 20.9524V21.078C12.4498 21.5489 12.3939 21.9858 12.2822 22.3888C12.1705 22.7878 12.0069 23.1349 11.7914 23.4302C11.5799 23.7255 11.3186 23.9549 11.0073 24.1185C10.6961 24.2821 10.339 24.3639 9.93599 24.3639C9.52501 24.3639 9.16191 24.2961 8.84669 24.1604C8.53147 24.0247 8.26413 23.8272 8.04467 23.5679C7.82522 23.3085 7.64965 22.9973 7.51798 22.6342C7.39029 22.2711 7.30251 21.8621 7.25463 21.4072V20.7369C7.30251 20.2581 7.39229 19.8291 7.52396 19.4501C7.65563 19.071 7.82921 18.7478 8.04467 18.4805C8.26413 18.2091 8.52947 18.0036 8.8407 17.864C9.15193 17.7204 9.51104 17.6485 9.91803 17.6485C10.325 17.6485 10.6861 17.7283 11.0014 17.8879C11.3166 18.0436 11.5819 18.267 11.7974 18.5583C12.0128 18.8496 12.1744 19.1987 12.2822 19.6057C12.3939 20.0087 12.4498 20.4576 12.4498 20.9524ZM11.3365 21.078V20.9524C11.3365 20.6292 11.3026 20.3259 11.2348 20.0426C11.1669 19.7553 11.0612 19.5039 10.9176 19.2885C10.7779 19.069 10.5984 18.8974 10.3789 18.7737C10.1594 18.6461 9.89808 18.5822 9.59484 18.5822C9.31553 18.5822 9.07213 18.6301 8.86464 18.7259C8.66115 18.8216 8.48758 18.9513 8.34393 19.1149C8.20029 19.2745 8.08258 19.458 7.99081 19.6655C7.90302 19.869 7.83719 20.0805 7.79329 20.3V21.8501C7.8731 22.1294 7.98482 22.3928 8.12846 22.6402C8.27211 22.8836 8.46363 23.0811 8.70304 23.2327C8.94245 23.3803 9.2437 23.4542 9.6068 23.4542C9.90606 23.4542 10.1634 23.3923 10.3789 23.2686C10.5984 23.1409 10.7779 22.9674 10.9176 22.7479C11.0612 22.5284 11.1669 22.2771 11.2348 21.9938C11.3026 21.7065 11.3365 21.4012 11.3365 21.078Z" fill="#9C9C9C"/>
<path d="M18.784 23.1369V19.8032C18.784 19.5478 18.7321 19.3264 18.6284 19.1388C18.5286 18.9473 18.377 18.7997 18.1735 18.6959C17.97 18.5922 17.7186 18.5403 17.4194 18.5403C17.1401 18.5403 16.8947 18.5882 16.6832 18.684C16.4757 18.7797 16.3121 18.9054 16.1924 19.061C16.0767 19.2166 16.0189 19.3842 16.0189 19.5638H14.9116C14.9116 19.3324 14.9714 19.1029 15.0912 18.8755C15.2109 18.6481 15.3824 18.4426 15.6059 18.259C15.8333 18.0715 16.1046 17.9238 16.4199 17.8161C16.7391 17.7044 17.0942 17.6485 17.4852 17.6485C17.9561 17.6485 18.371 17.7283 18.7301 17.8879C19.0932 18.0475 19.3765 18.2889 19.58 18.6121C19.7875 18.9314 19.8913 19.3324 19.8913 19.8152V22.8317C19.8913 23.0472 19.9092 23.2766 19.9451 23.52C19.985 23.7634 20.0429 23.9729 20.1187 24.1484V24.2442H18.9636C18.9077 24.1165 18.8638 23.9469 18.8319 23.7355C18.8 23.52 18.784 23.3205 18.784 23.1369ZM18.9755 20.3179L18.9875 21.096H17.8683C17.5531 21.096 17.2718 21.1219 17.0244 21.1738C16.777 21.2217 16.5695 21.2955 16.4019 21.3953C16.2343 21.495 16.1066 21.6207 16.0189 21.7723C15.9311 21.92 15.8872 22.0935 15.8872 22.293C15.8872 22.4965 15.9331 22.6821 16.0248 22.8497C16.1166 23.0172 16.2543 23.1509 16.4378 23.2507C16.6254 23.3464 16.8548 23.3943 17.1261 23.3943C17.4653 23.3943 17.7645 23.3225 18.0239 23.1788C18.2832 23.0352 18.4887 22.8596 18.6404 22.6521C18.796 22.4447 18.8798 22.2432 18.8917 22.0476L19.3646 22.5803C19.3366 22.7479 19.2608 22.9334 19.1371 23.1369C19.0134 23.3404 18.8479 23.536 18.6404 23.7235C18.4369 23.907 18.1935 24.0607 17.9102 24.1844C17.6309 24.3041 17.3156 24.3639 16.9645 24.3639C16.5256 24.3639 16.1406 24.2781 15.8094 24.1065C15.4822 23.935 15.2268 23.7055 15.0433 23.4182C14.8637 23.127 14.7739 22.8018 14.7739 22.4427C14.7739 22.0955 14.8418 21.7903 14.9774 21.5269C15.1131 21.2596 15.3086 21.0381 15.564 20.8626C15.8193 20.683 16.1266 20.5474 16.4857 20.4556C16.8448 20.3638 17.2458 20.3179 17.6887 20.3179H18.9755Z" fill="#9C9C9C"/>
<path d="M25.1542 21.1499H23.9631V20.4676H25.0644C25.3716 20.4676 25.615 20.4296 25.7946 20.3538C25.9741 20.274 26.1018 20.1643 26.1776 20.0246C26.2534 19.885 26.2913 19.7214 26.2913 19.5339C26.2913 19.3663 26.2475 19.2087 26.1597 19.061C26.0759 18.9094 25.9402 18.7877 25.7527 18.6959C25.5651 18.6002 25.3138 18.5523 24.9985 18.5523C24.7432 18.5523 24.5118 18.5982 24.3043 18.6899C24.0968 18.7777 23.9312 18.8994 23.8075 19.055C23.6878 19.2067 23.6279 19.3782 23.6279 19.5698H22.5207C22.5207 19.1747 22.6324 18.8356 22.8559 18.5523C23.0833 18.265 23.3845 18.0436 23.7596 17.8879C24.1387 17.7323 24.5517 17.6545 24.9985 17.6545C25.3736 17.6545 25.7088 17.6964 26.0041 17.7802C26.3033 17.86 26.5567 17.9797 26.7642 18.1393C26.9717 18.2949 27.1293 18.4904 27.237 18.7259C27.3487 18.9573 27.4046 19.2266 27.4046 19.5339C27.4046 19.7533 27.3527 19.9608 27.249 20.1563C27.1452 20.3518 26.9956 20.5254 26.8001 20.677C26.6046 20.8247 26.3672 20.9404 26.0879 21.0242C25.8125 21.108 25.5013 21.1499 25.1542 21.1499ZM23.9631 20.7309H25.1542C25.5412 20.7309 25.8824 20.7688 26.1776 20.8446C26.4729 20.9164 26.7203 21.0242 26.9198 21.1678C27.1193 21.3115 27.2689 21.489 27.3687 21.7005C27.4724 21.908 27.5243 22.1474 27.5243 22.4187C27.5243 22.722 27.4624 22.9953 27.3388 23.2387C27.2191 23.4781 27.0475 23.6816 26.824 23.8492C26.6006 24.0168 26.3332 24.1444 26.022 24.2322C25.7148 24.32 25.3736 24.3639 24.9985 24.3639C24.5796 24.3639 24.1726 24.2921 23.7776 24.1484C23.3825 24.0048 23.0574 23.7833 22.802 23.4841C22.5466 23.1808 22.4189 22.7958 22.4189 22.3289H23.5262C23.5262 22.5245 23.588 22.71 23.7117 22.8856C23.8354 23.0611 24.007 23.2028 24.2265 23.3105C24.4499 23.4182 24.7073 23.4721 24.9985 23.4721C25.3098 23.4721 25.5691 23.4242 25.7766 23.3285C25.9841 23.2327 26.1397 23.105 26.2435 22.9454C26.3512 22.7858 26.4051 22.6122 26.4051 22.4247C26.4051 22.1813 26.3572 21.9858 26.2614 21.8382C26.1657 21.6905 26.018 21.5828 25.8185 21.515C25.623 21.4431 25.3716 21.4072 25.0644 21.4072H23.9631V20.7309Z" fill="#9C9C9C"/>
<path d="M31.1712 19.0131V26.734H30.0579V17.7682H31.0754L31.1712 19.0131ZM35.5344 20.9524V21.078C35.5344 21.5489 35.4785 21.9858 35.3668 22.3888C35.2551 22.7878 35.0915 23.1349 34.876 23.4302C34.6645 23.7255 34.4032 23.9549 34.092 24.1185C33.7807 24.2821 33.4236 24.3639 33.0206 24.3639C32.6096 24.3639 32.2465 24.2961 31.9313 24.1604C31.6161 24.0247 31.3487 23.8272 31.1293 23.5679C30.9098 23.3085 30.7343 22.9973 30.6026 22.6342C30.4749 22.2711 30.3871 21.8621 30.3392 21.4072V20.7369C30.3871 20.2581 30.4769 19.8291 30.6086 19.4501C30.7403 19.071 30.9138 18.7478 31.1293 18.4805C31.3487 18.2091 31.6141 18.0036 31.9253 17.864C32.2365 17.7204 32.5957 17.6485 33.0027 17.6485C33.4096 17.6485 33.7708 17.7283 34.086 17.8879C34.4012 18.0436 34.6665 18.267 34.882 18.5583C35.0975 18.8496 35.2591 19.1987 35.3668 19.6057C35.4785 20.0087 35.5344 20.4576 35.5344 20.9524ZM34.4211 21.078V20.9524C34.4211 20.6292 34.3872 20.3259 34.3194 20.0426C34.2516 19.7553 34.1458 19.5039 34.0022 19.2885C33.8625 19.069 33.683 18.8974 33.4635 18.7737C33.2441 18.6461 32.9827 18.5822 32.6795 18.5822C32.4001 18.5822 32.1567 18.6301 31.9493 18.7259C31.7458 18.8216 31.5722 18.9513 31.4286 19.1149C31.2849 19.2745 31.1672 19.458 31.0754 19.6655C30.9876 19.869 30.9218 20.0805 30.8779 20.3V21.8501C30.9577 22.1294 31.0694 22.3928 31.2131 22.6402C31.3567 22.8836 31.5483 23.0811 31.7877 23.2327C32.0271 23.3803 32.3283 23.4542 32.6914 23.4542C32.9907 23.4542 33.248 23.3923 33.4635 23.2686C33.683 23.1409 33.8625 22.9674 34.0022 22.7479C34.1458 22.5284 34.2516 22.2771 34.3194 21.9938C34.3872 21.7065 34.4211 21.4012 34.4211 21.078Z" fill="#9C9C9C"/>
<path d="M41.8686 23.1369V19.8032C41.8686 19.5478 41.8168 19.3264 41.713 19.1388C41.6133 18.9473 41.4616 18.7997 41.2581 18.6959C41.0546 18.5922 40.8033 18.5403 40.504 18.5403C40.2247 18.5403 39.9793 18.5882 39.7678 18.684C39.5603 18.7797 39.3967 18.9054 39.277 19.061C39.1613 19.2166 39.1035 19.3842 39.1035 19.5638H37.9962C37.9962 19.3324 38.0561 19.1029 38.1758 18.8755C38.2955 18.6481 38.467 18.4426 38.6905 18.259C38.9179 18.0715 39.1893 17.9238 39.5045 17.8161C39.8237 17.7044 40.1788 17.6485 40.5698 17.6485C41.0407 17.6485 41.4557 17.7283 41.8148 17.8879C42.1779 18.0475 42.4612 18.2889 42.6647 18.6121C42.8721 18.9314 42.9759 19.3324 42.9759 19.8152V22.8317C42.9759 23.0472 42.9938 23.2766 43.0298 23.52C43.0697 23.7634 43.1275 23.9729 43.2033 24.1484V24.2442H42.0482C41.9923 24.1165 41.9484 23.9469 41.9165 23.7355C41.8846 23.52 41.8686 23.3205 41.8686 23.1369ZM42.0602 20.3179L42.0721 21.096H40.9529C40.6377 21.096 40.3564 21.1219 40.109 21.1738C39.8616 21.2217 39.6541 21.2955 39.4865 21.3953C39.3189 21.495 39.1913 21.6207 39.1035 21.7723C39.0157 21.92 38.9718 22.0935 38.9718 22.293C38.9718 22.4965 39.0177 22.6821 39.1095 22.8497C39.2012 23.0172 39.3389 23.1509 39.5224 23.2507C39.71 23.3464 39.9394 23.3943 40.2107 23.3943C40.5499 23.3943 40.8492 23.3225 41.1085 23.1788C41.3679 23.0352 41.5734 22.8596 41.725 22.6521C41.8806 22.4447 41.9644 22.2432 41.9764 22.0476L42.4492 22.5803C42.4213 22.7479 42.3455 22.9334 42.2218 23.1369C42.0981 23.3404 41.9325 23.536 41.725 23.7235C41.5215 23.907 41.2781 24.0607 40.9948 24.1844C40.7155 24.3041 40.4003 24.3639 40.0491 24.3639C39.6102 24.3639 39.2252 24.2781 38.894 24.1065C38.5668 23.935 38.3114 23.7055 38.1279 23.4182C37.9483 23.127 37.8586 22.8018 37.8586 22.4427C37.8586 22.0955 37.9264 21.7903 38.0621 21.5269C38.1977 21.2596 38.3932 21.0381 38.6486 20.8626C38.904 20.683 39.2112 20.5474 39.5703 20.4556C39.9294 20.3638 40.3304 20.3179 40.7733 20.3179H42.0602Z" fill="#9C9C9C"/>
<path d="M49.9745 14.9492H50.8842C50.8842 15.3402 50.8244 15.6515 50.7047 15.8829C50.585 16.1103 50.4214 16.2859 50.2139 16.4096C50.0104 16.5333 49.779 16.6271 49.5196 16.6909C49.2642 16.7547 48.9989 16.8166 48.7236 16.8764C48.3804 16.9483 48.0612 17.062 47.766 17.2176C47.4747 17.3692 47.2233 17.5847 47.0118 17.864C46.8043 18.1433 46.6507 18.5064 46.551 18.9533C46.4552 19.4002 46.4293 19.9528 46.4732 20.6112V21.1618H45.5634V20.6112C45.5634 19.873 45.6332 19.2286 45.7729 18.678C45.9165 18.1273 46.118 17.6625 46.3774 17.2834C46.6367 16.9044 46.944 16.6031 47.2991 16.3797C47.6582 16.1562 48.0532 16.0026 48.4842 15.9188C48.7954 15.859 49.0627 15.7951 49.2862 15.7273C49.5096 15.6555 49.6792 15.5597 49.7949 15.44C49.9146 15.3203 49.9745 15.1567 49.9745 14.9492ZM48.6637 18.1393C49.0867 18.1393 49.4637 18.2131 49.7949 18.3608C50.1261 18.5084 50.4074 18.7139 50.6388 18.9772C50.8703 19.2406 51.0458 19.5518 51.1655 19.9109C51.2892 20.266 51.3511 20.6531 51.3511 21.0721V21.2037C51.3511 21.6546 51.2852 22.0736 51.1536 22.4606C51.0259 22.8437 50.8363 23.1788 50.585 23.4661C50.3376 23.7494 50.0343 23.9709 49.6752 24.1305C49.3201 24.2901 48.9151 24.3699 48.4602 24.3699C48.0054 24.3699 47.5984 24.2901 47.2393 24.1305C46.8841 23.9709 46.5809 23.7494 46.3295 23.4661C46.0781 23.1788 45.8866 22.8437 45.7549 22.4606C45.6272 22.0736 45.5634 21.6546 45.5634 21.2037V21.0721C45.5634 20.9723 45.5814 20.8745 45.6173 20.7788C45.6532 20.683 45.6971 20.5853 45.7489 20.4855C45.8048 20.3858 45.8547 20.28 45.8986 20.1683C46.0462 19.8092 46.2477 19.476 46.5031 19.1688C46.7624 18.8615 47.0717 18.6141 47.4308 18.4266C47.7939 18.2351 48.2049 18.1393 48.6637 18.1393ZM48.4483 19.0431C48.0413 19.0431 47.7061 19.1368 47.4428 19.3244C47.1834 19.5119 46.9899 19.7613 46.8622 20.0725C46.7345 20.3798 46.6707 20.7129 46.6707 21.0721V21.2037C46.6707 21.507 46.7066 21.7943 46.7784 22.0656C46.8502 22.3369 46.958 22.5783 47.1016 22.7898C47.2492 22.9973 47.4348 23.1609 47.6582 23.2806C47.8857 23.4003 48.153 23.4601 48.4602 23.4601C48.7675 23.4601 49.0328 23.4003 49.2563 23.2806C49.4797 23.1609 49.6633 22.9973 49.8069 22.7898C49.9505 22.5783 50.0583 22.3369 50.1301 22.0656C50.2019 21.7943 50.2378 21.507 50.2378 21.2037V21.0721C50.2378 20.8007 50.2019 20.5434 50.1301 20.3C50.0583 20.0566 49.9485 19.8411 49.8009 19.6536C49.6573 19.466 49.4717 19.3184 49.2443 19.2107C49.0208 19.0989 48.7555 19.0431 48.4483 19.0431Z" fill="#9C9C9C"/>
<path d="M53.4179 21.078V20.9404C53.4179 20.4735 53.4857 20.0406 53.6214 19.6416C53.757 19.2386 53.9526 18.8895 54.2079 18.5942C54.4633 18.2949 54.7725 18.0635 55.1356 17.8999C55.4987 17.7323 55.9057 17.6485 56.3566 17.6485C56.8115 17.6485 57.2205 17.7323 57.5836 17.8999C57.9507 18.0635 58.2619 18.2949 58.5173 18.5942C58.7766 18.8895 58.9741 19.2386 59.1098 19.6416C59.2455 20.0406 59.3133 20.4735 59.3133 20.9404V21.078C59.3133 21.5449 59.2455 21.9778 59.1098 22.3768C58.9741 22.7758 58.7766 23.125 58.5173 23.4242C58.2619 23.7195 57.9527 23.9509 57.5896 24.1185C57.2304 24.2821 56.8235 24.3639 56.3686 24.3639C55.9137 24.3639 55.5047 24.2821 55.1416 24.1185C54.7785 23.9509 54.4673 23.7195 54.2079 23.4242C53.9526 23.125 53.757 22.7758 53.6214 22.3768C53.4857 21.9778 53.4179 21.5449 53.4179 21.078ZM54.5251 20.9404V21.078C54.5251 21.4012 54.563 21.7065 54.6389 21.9938C54.7147 22.2771 54.8284 22.5284 54.98 22.7479C55.1356 22.9674 55.3292 23.1409 55.5606 23.2686C55.792 23.3923 56.0613 23.4542 56.3686 23.4542C56.6718 23.4542 56.9372 23.3923 57.1646 23.2686C57.396 23.1409 57.5876 22.9674 57.7392 22.7479C57.8908 22.5284 58.0045 22.2771 58.0803 21.9938C58.1601 21.7065 58.2 21.4012 58.2 21.078V20.9404C58.2 20.6212 58.1601 20.3199 58.0803 20.0366C58.0045 19.7493 57.8888 19.496 57.7332 19.2765C57.5816 19.0531 57.39 18.8775 57.1586 18.7498C56.9312 18.6221 56.6638 18.5583 56.3566 18.5583C56.0534 18.5583 55.786 18.6221 55.5546 18.7498C55.3272 18.8775 55.1356 19.0531 54.98 19.2765C54.8284 19.496 54.7147 19.7493 54.6389 20.0366C54.563 20.3199 54.5251 20.6212 54.5251 20.9404Z" fill="#9C9C9C"/>
<path d="M64.3128 17.7682V24.2442H63.1996V17.7682H64.3128ZM66.4855 17.7682V18.666H61.0689V17.7682H66.4855Z" fill="#9C9C9C"/>
<path d="M69.881 17.7682V24.2442H68.7737V17.7682H69.881ZM74.1305 17.7682L71.0601 21.479H69.5099L69.3423 20.5094H70.6112L72.7838 17.7682H74.1305ZM72.9394 24.2442L70.5573 21.3115L71.2695 20.5094L74.3459 24.2442H72.9394Z" fill="#9C9C9C"/>
<path d="M80.2313 23.1369V19.8032C80.2313 19.5478 80.1794 19.3264 80.0756 19.1388C79.9759 18.9473 79.8243 18.7997 79.6208 18.6959C79.4173 18.5922 79.1659 18.5403 78.8666 18.5403C78.5873 18.5403 78.3419 18.5882 78.1305 18.684C77.923 18.7797 77.7594 18.9054 77.6397 19.061C77.524 19.2166 77.4661 19.3842 77.4661 19.5638H76.3588C76.3588 19.3324 76.4187 19.1029 76.5384 18.8755C76.6581 18.6481 76.8297 18.4426 77.0531 18.259C77.2806 18.0715 77.5519 17.9238 77.8671 17.8161C78.1863 17.7044 78.5414 17.6485 78.9325 17.6485C79.4033 17.6485 79.8183 17.7283 80.1774 17.8879C80.5405 18.0475 80.8238 18.2889 81.0273 18.6121C81.2348 18.9314 81.3385 19.3324 81.3385 19.8152V22.8317C81.3385 23.0472 81.3565 23.2766 81.3924 23.52C81.4323 23.7634 81.4902 23.9729 81.566 24.1484V24.2442H80.4108C80.355 24.1165 80.3111 23.9469 80.2791 23.7355C80.2472 23.52 80.2313 23.3205 80.2313 23.1369ZM80.4228 20.3179L80.4348 21.096H79.3155C79.0003 21.096 78.719 21.1219 78.4716 21.1738C78.2242 21.2217 78.0167 21.2955 77.8492 21.3953C77.6816 21.495 77.5539 21.6207 77.4661 21.7723C77.3783 21.92 77.3344 22.0935 77.3344 22.293C77.3344 22.4965 77.3803 22.6821 77.4721 22.8497C77.5639 23.0172 77.7015 23.1509 77.8851 23.2507C78.0726 23.3464 78.302 23.3943 78.5734 23.3943C78.9125 23.3943 79.2118 23.3225 79.4711 23.1788C79.7305 23.0352 79.936 22.8596 80.0876 22.6521C80.2432 22.4447 80.327 22.2432 80.339 22.0476L80.8118 22.5803C80.7839 22.7479 80.7081 22.9334 80.5844 23.1369C80.4607 23.3404 80.2951 23.536 80.0876 23.7235C79.8841 23.907 79.6407 24.0607 79.3574 24.1844C79.0781 24.3041 78.7629 24.3639 78.4118 24.3639C77.9729 24.3639 77.5878 24.2781 77.2566 24.1065C76.9294 23.935 76.6741 23.7055 76.4905 23.4182C76.311 23.127 76.2212 22.8018 76.2212 22.4427C76.2212 22.0955 76.289 21.7903 76.4247 21.5269C76.5603 21.2596 76.7559 21.0381 77.0112 20.8626C77.2666 20.683 77.5738 20.5474 77.933 20.4556C78.2921 20.3638 78.6931 20.3179 79.136 20.3179H80.4228Z" fill="#9C9C9C"/>
</svg>
