<svg width="122" height="80" viewBox="0 0 122 80" fill="none" xmlns="http://www.w3.org/2000/svg">
<path d="M22.5714 1.54242V29.6144H16.8571L5.71429 10.7969V29.6144H0V1.54242H5.71429L16.8762 20.3792V1.54242H22.5714Z" fill="white"/>
<path d="M36.6857 30C35.0857 30 33.6508 29.7429 32.381 29.2288C31.1111 28.7018 30.0317 27.9756 29.1429 27.0501C28.2667 26.1247 27.5937 25.0514 27.1238 23.8303C26.654 22.5964 26.419 21.2853 26.419 19.8972V19.126C26.419 17.545 26.6413 16.099 27.0857 14.7879C27.5302 13.4769 28.1651 12.3393 28.9905 11.3753C29.8286 10.4113 30.8444 9.67224 32.0381 9.1581C33.2317 8.63111 34.5778 8.36761 36.0762 8.36761C37.5365 8.36761 38.8317 8.61182 39.9619 9.10026C41.0921 9.58869 42.0381 10.2828 42.8 11.1825C43.5746 12.0823 44.1587 13.162 44.5524 14.4216C44.946 15.6684 45.1429 17.0566 45.1429 18.5861V20.8997H28.7619V17.1979H39.7524V16.7738C39.7524 16.0026 39.6127 15.3149 39.3333 14.7108C39.0667 14.0938 38.6603 13.6054 38.1143 13.2455C37.5683 12.8856 36.8698 12.7057 36.019 12.7057C35.2952 12.7057 34.673 12.8663 34.1524 13.1877C33.6317 13.509 33.2063 13.9589 32.8762 14.5373C32.5587 15.1157 32.3175 15.7969 32.1524 16.581C32 17.3522 31.9238 18.2005 31.9238 19.126V19.8972C31.9238 20.7326 32.0381 21.5039 32.2667 22.2108C32.5079 22.9177 32.8444 23.5283 33.2762 24.0424C33.7206 24.5566 34.254 24.955 34.8762 25.2378C35.5111 25.5206 36.2286 25.662 37.0286 25.662C38.019 25.662 38.9397 25.4692 39.7905 25.0835C40.654 24.6851 41.3968 24.0874 42.019 23.2905L44.6857 26.2211C44.254 26.8509 43.6635 27.455 42.9143 28.0334C42.1778 28.6118 41.2889 29.0874 40.2476 29.4602C39.2063 29.8201 38.019 30 36.6857 30Z" fill="white"/>
<path d="M58.3619 8.75321V12.6864H46.3619V8.75321H58.3619ZM49.3333 3.6054H54.819V23.3291C54.819 23.9332 54.8952 24.3959 55.0476 24.7172C55.2127 25.0386 55.454 25.2635 55.7714 25.392C56.0889 25.5077 56.4889 25.5656 56.9714 25.5656C57.3143 25.5656 57.619 25.5527 57.8857 25.527C58.1651 25.4884 58.4 25.4499 58.5905 25.4113L58.6095 29.4987C58.1397 29.653 57.6317 29.7751 57.0857 29.865C56.5397 29.955 55.9365 30 55.2762 30C54.0698 30 53.0159 29.8008 52.1143 29.4023C51.2254 28.991 50.5397 28.3355 50.0571 27.4357C49.5746 26.536 49.3333 25.3535 49.3333 23.8882V3.6054Z" fill="white"/>
<path d="M79.6571 25.1028V29.6144H65.6952V25.1028H79.6571ZM67.5429 1.54242V29.6144H61.8286V1.54242H67.5429Z" fill="white"/>
<path d="M93.7143 24.91V15.617C93.7143 14.9486 93.6063 14.3766 93.3905 13.901C93.1746 13.4126 92.8381 13.0334 92.381 12.7635C91.9365 12.4936 91.3587 12.3586 90.6476 12.3586C90.0381 12.3586 89.5111 12.4679 89.0667 12.6864C88.6222 12.892 88.2794 13.1941 88.0381 13.5925C87.7968 13.9781 87.6762 14.4344 87.6762 14.9614H82.1905C82.1905 14.0746 82.3936 13.2326 82.8 12.4357C83.2063 11.6388 83.7968 10.9383 84.5714 10.3342C85.346 9.71722 86.2667 9.23522 87.3333 8.88818C88.4127 8.54113 89.619 8.36761 90.9524 8.36761C92.5524 8.36761 93.9746 8.63753 95.219 9.17738C96.4635 9.71722 97.4413 10.527 98.1524 11.6067C98.8762 12.6864 99.2381 14.036 99.2381 15.6555V24.5823C99.2381 25.7262 99.3079 26.6645 99.4476 27.3972C99.5873 28.117 99.7905 28.7468 100.057 29.2866V29.6144H94.5143C94.2476 29.0488 94.0444 28.3419 93.9048 27.4936C93.7778 26.6324 93.7143 25.7712 93.7143 24.91ZM94.4381 16.9087L94.4762 20.0514H91.4095C90.6857 20.0514 90.0571 20.135 89.5238 20.3021C88.9905 20.4692 88.5524 20.7069 88.2095 21.0154C87.8667 21.3111 87.6127 21.6581 87.4476 22.0566C87.2952 22.455 87.219 22.892 87.219 23.3676C87.219 23.8432 87.327 24.2738 87.5429 24.6594C87.7587 25.0321 88.0698 25.3278 88.4762 25.5463C88.8825 25.7519 89.3587 25.8548 89.9048 25.8548C90.7302 25.8548 91.4476 25.6877 92.0571 25.3535C92.6667 25.0193 93.1365 24.608 93.4667 24.1195C93.8095 23.6311 93.9873 23.1684 94 22.7314L95.4476 25.0835C95.2444 25.6105 94.9651 26.1568 94.6095 26.7224C94.2667 27.2879 93.8286 27.8213 93.2952 28.3226C92.7619 28.8111 92.1206 29.2159 91.3714 29.5373C90.6222 29.8458 89.7333 30 88.7048 30C87.3968 30 86.2095 29.7365 85.1429 29.2095C84.0889 28.6697 83.2508 27.9306 82.6286 26.9923C82.019 26.0411 81.7143 24.9614 81.7143 23.7532C81.7143 22.6607 81.9175 21.6902 82.3238 20.8419C82.7302 19.9936 83.327 19.2802 84.1143 18.7018C84.9143 18.1105 85.9111 17.6671 87.1048 17.3715C88.2984 17.063 89.6825 16.9087 91.2571 16.9087H94.4381Z" fill="white"/>
<path d="M103.467 0H108.952V24.8329L108.4 29.6144H103.467V0ZM122 18.9717V19.3766C122 20.9319 121.835 22.3586 121.505 23.6568C121.187 24.955 120.692 26.0797 120.019 27.0308C119.346 27.9692 118.508 28.7018 117.505 29.2288C116.514 29.7429 115.346 30 114 30C112.743 30 111.651 29.7429 110.724 29.2288C109.81 28.7147 109.041 27.9884 108.419 27.0501C107.797 26.1118 107.295 25.0129 106.914 23.7532C106.533 22.4936 106.248 21.1183 106.057 19.6273V18.7404C106.248 17.2494 106.533 15.874 106.914 14.6144C107.295 13.3548 107.797 12.2558 108.419 11.3175C109.041 10.3792 109.81 9.65296 110.724 9.13882C111.638 8.62468 112.717 8.36761 113.962 8.36761C115.321 8.36761 116.502 8.63111 117.505 9.1581C118.521 9.67224 119.359 10.4049 120.019 11.356C120.692 12.2943 121.187 13.4126 121.505 14.7108C121.835 15.9961 122 17.4165 122 18.9717ZM116.514 19.3766V18.9717C116.514 18.1234 116.451 17.3265 116.324 16.581C116.21 15.8226 116.006 15.1607 115.714 14.5951C115.422 14.0167 115.022 13.5604 114.514 13.2262C114.019 12.892 113.378 12.7249 112.59 12.7249C111.841 12.7249 111.206 12.8535 110.686 13.1105C110.165 13.3676 109.733 13.7275 109.39 14.1902C109.06 14.653 108.813 15.2057 108.648 15.8483C108.483 16.4781 108.381 17.1722 108.343 17.9306V20.4563C108.381 21.4717 108.546 22.3715 108.838 23.1555C109.143 23.9267 109.6 24.5373 110.21 24.9871C110.832 25.4242 111.638 25.6427 112.629 25.6427C113.403 25.6427 114.044 25.4884 114.552 25.1799C115.06 24.8715 115.454 24.4344 115.733 23.8689C116.025 23.3033 116.229 22.6414 116.343 21.883C116.457 21.1118 116.514 20.2764 116.514 19.3766Z" fill="white"/>
<path opacity="0.6" fill-rule="evenodd" clip-rule="evenodd" d="M2.69517 51.8129H1.3963V57.0332H0V46H1.3963V50.6439H2.71141L6.15343 46H7.67961L3.91287 51.2044L7.98809 57.0332H6.28332L2.69517 51.8129ZM14.7098 48.418C17.1127 48.418 18.3791 50.1475 18.3791 52.8057C18.3791 55.3999 17.0802 57.2094 14.6935 57.2094C12.2906 57.2094 11.008 55.4799 11.008 52.8217C11.008 50.2275 12.3069 48.418 14.7098 48.418ZM14.7098 49.523C13.2323 49.523 12.4855 50.5798 12.4855 52.8217C12.4855 55.0636 13.2161 56.1045 14.6935 56.1045C16.171 56.1045 16.9016 55.0636 16.9016 52.8057C16.9016 50.5798 16.171 49.523 14.7098 49.523ZM29.6144 48.5942L30.2476 57.0332H28.9325L28.6078 52.9178C28.5428 52.005 28.4941 51.0762 28.5266 49.9393H28.4616L26.7569 55.624H25.4093L23.5259 49.9393H23.461C23.4934 50.8681 23.461 51.989 23.4123 52.8858L23.1687 57.0332H21.8698L22.4868 48.5942H24.2728L26.1074 54.359L27.796 48.5942H29.6144ZM39.3073 57.0332V49.6991H35.5405V57.0332H34.1767V48.5942H40.6711V57.0332H39.3073ZM52.1986 48.5942V57.0332H50.8348V49.7311H47.6363L47.4415 51.957C47.133 55.7041 46.6784 56.3767 45.1847 57.2094L44.6002 56.3447C45.3957 55.8643 45.8828 55.3999 46.1426 52.005L46.4024 48.5942H52.1986ZM57.9949 53.2861C58.0598 55.2397 59.1638 56.0884 60.479 56.0884C61.3557 56.0884 62.0051 55.8322 62.7682 55.3358L63.4014 56.2326C62.6059 56.8411 61.5343 57.2094 60.479 57.2094C57.9786 57.2094 56.5661 55.4479 56.5661 52.8217C56.5661 50.2756 58.0111 48.418 60.2841 48.418C62.4435 48.418 63.7749 50.0034 63.7749 52.5655C63.7749 52.8537 63.7586 53.1099 63.7424 53.2861H57.9949ZM60.3004 49.523C59.034 49.523 58.1085 50.4037 57.9949 52.2612H62.4435C62.411 50.4517 61.5992 49.523 60.3004 49.523ZM68.3696 57.0332V48.5942H69.7335V52.021H71.4382L73.9061 48.5942H75.4485L72.5585 52.5014L75.8869 57.0332H74.2308L71.4058 53.11H69.7335V57.0332H68.3696ZM83.5178 56.0564C84.3783 56.0564 85.0927 55.7522 85.7421 55.3198L86.3915 56.2005C85.6609 56.8251 84.5082 57.2094 83.5178 57.2094C80.9525 57.2094 79.4913 55.4959 79.4913 52.8537C79.4913 50.3236 80.9687 48.418 83.5178 48.418C84.6218 48.418 85.5798 48.7543 86.3753 49.4109L85.7096 50.2916C84.979 49.8112 84.2646 49.555 83.5015 49.555C82.0241 49.555 80.9687 50.6279 80.9687 52.8537C80.9687 55.1116 82.0403 56.0564 83.5178 56.0564ZM96.1331 57.0332V53.2861H92.3664V57.0332H91.0026V48.5942H92.3664V52.1812H96.1331V48.5942H97.4969V57.0332H96.1331ZM108.505 55.1917C108.505 55.8643 108.716 56.1205 109.203 56.2646L108.862 57.2254C108.132 57.1293 107.531 56.793 107.303 56.0244C106.687 56.809 105.729 57.2094 104.625 57.2094C102.904 57.2094 101.864 56.1845 101.864 54.6152C101.864 52.8858 103.277 51.9089 105.858 51.9089H107.125V51.2204C107.125 49.9873 106.362 49.539 105.095 49.539C104.527 49.539 103.748 49.6671 102.871 49.9713L102.498 48.9465C103.553 48.5782 104.462 48.418 105.306 48.418C107.433 48.418 108.505 49.4749 108.505 51.1403V55.1917ZM104.965 56.2005C105.81 56.2005 106.622 55.7522 107.125 54.9995V52.8377H105.891C104.008 52.8377 103.326 53.5103 103.326 54.5992C103.326 55.6561 103.845 56.2005 104.965 56.2005ZM116.866 48.5942H120V57.0332H118.636V53.7665H116.331L114.512 57.0332H112.97L114.999 53.4622C113.976 52.9818 113.489 52.2132 113.489 51.1563C113.489 49.4589 114.756 48.5942 116.866 48.5942ZM116.785 52.6936H118.636V49.6831H116.834C115.584 49.6831 114.934 50.1154 114.934 51.1563C114.934 52.2452 115.47 52.6936 116.785 52.6936ZM3.91287 67.99C6.1859 67.99 7.01394 69.7354 7.01394 72.3776C7.01394 74.9398 5.94236 76.7813 3.71804 76.7813C2.77635 76.7813 2.0295 76.461 1.44501 75.8205V79.8399L0.0811834 80V68.1661H1.25017L1.36382 69.3511C1.98079 68.4864 2.89 67.99 3.91287 67.99ZM3.58815 69.0789C2.64646 69.0789 1.91584 69.7514 1.44501 70.424V74.6035C1.89961 75.26 2.59775 75.6604 3.40955 75.6604C4.82208 75.6604 5.53646 74.6195 5.53646 72.3776C5.53646 70.1838 4.93573 69.0789 3.58815 69.0789ZM17.5835 74.7636C17.5835 75.4362 17.7946 75.6924 18.2817 75.8365L17.9407 76.7973C17.2101 76.7012 16.6094 76.365 16.3821 75.5963C15.7651 76.381 14.8072 76.7813 13.7032 76.7813C11.9821 76.7813 10.943 75.7565 10.943 74.1871C10.943 72.4577 12.3556 71.4809 14.9371 71.4809H16.2035V70.7923C16.2035 69.5593 15.4404 69.1109 14.174 69.1109C13.6057 69.1109 12.8264 69.239 11.9497 69.5433L11.5762 68.5184C12.6316 68.1501 13.5408 67.99 14.3851 67.99C16.512 67.99 17.5835 69.0468 17.5835 70.7122V74.7636ZM14.0441 75.7725C14.8884 75.7725 15.7002 75.3241 16.2035 74.5715V72.4097H14.9696C13.0862 72.4097 12.4043 73.0822 12.4043 74.1711C12.4043 75.228 12.9238 75.7725 14.0441 75.7725ZM24.289 71.657H25.8314C26.9842 71.657 27.6823 71.1446 27.6823 70.3759C27.6823 69.4792 26.9517 69.0789 25.6691 69.0789C24.8085 69.0789 23.8182 69.3351 23.0226 69.8155L22.3732 69.0148C23.2337 68.3743 24.5163 67.99 25.7178 67.99C27.5849 67.99 29.1111 68.7586 29.1111 70.2959C29.1111 71.2407 28.3805 71.8171 27.3738 72.1054C28.3642 72.1214 29.5819 72.826 29.5819 74.0911C29.5819 75.8685 27.9259 76.7813 25.7015 76.7813C24.013 76.7813 22.8602 76.2529 22.0647 75.6123L22.7141 74.7476C23.5097 75.3081 24.4514 75.6764 25.7502 75.6764C27.3089 75.6764 28.1044 75.0679 28.1044 74.1231C28.1044 73.1943 27.3414 72.7459 25.9288 72.7459H24.2078L24.289 71.657ZM38.0084 67.99C40.2814 67.99 41.1095 69.7354 41.1095 72.3776C41.1095 74.9398 40.0379 76.7813 37.8136 76.7813C36.8719 76.7813 36.125 76.461 35.5405 75.8205V79.8399L34.1767 80V68.1661H35.3457L35.4593 69.3511C36.0763 68.4864 36.9855 67.99 38.0084 67.99ZM37.6837 69.0789C36.742 69.0789 36.0114 69.7514 35.5405 70.424V74.6035C35.9951 75.26 36.6933 75.6604 37.5051 75.6604C38.9176 75.6604 39.632 74.6195 39.632 72.3776C39.632 70.1838 39.0312 69.0789 37.6837 69.0789ZM51.6791 74.7636C51.6791 75.4362 51.8901 75.6924 52.3772 75.8365L52.0363 76.7973C51.3056 76.7012 50.7049 76.365 50.4776 75.5963C49.8606 76.381 48.9027 76.7813 47.7987 76.7813C46.0777 76.7813 45.0386 75.7565 45.0386 74.1871C45.0386 72.4577 46.4511 71.4809 49.0326 71.4809H50.299V70.7923C50.299 69.5593 49.5359 69.1109 48.2695 69.1109C47.7012 69.1109 46.9219 69.239 46.0452 69.5433L45.6718 68.5184C46.7271 68.1501 47.6363 67.99 48.4806 67.99C50.6075 67.99 51.6791 69.0468 51.6791 70.7122V74.7636ZM48.1396 75.7725C48.9839 75.7725 49.7957 75.3241 50.299 74.5715V72.4097H49.0651C47.1817 72.4097 46.4998 73.0822 46.4998 74.1711C46.4998 75.228 47.0193 75.7725 48.1396 75.7725ZM60.6738 68.7266C62.5409 68.7266 63.7911 70.1838 63.7911 72.5698C63.7911 75.2921 62.2811 76.7813 60.138 76.7813C58.0923 76.7813 56.5011 75.3401 56.5011 71.9773C56.5011 68.4703 57.1506 66.6768 59.6347 65.8281C60.8849 65.3798 61.5018 65.1396 62.3136 64.5951L62.8981 65.636C62.3299 65.9883 61.583 66.3886 60.3166 66.853C58.9203 67.3494 58.1897 67.9419 57.9624 70.2959C58.5144 69.3511 59.4723 68.7266 60.6738 68.7266ZM60.138 75.6764C61.3232 75.6764 62.2974 75.0679 62.2974 72.6178C62.2974 70.5681 61.5505 69.8315 60.4627 69.8315C59.5535 69.8315 58.5956 70.2959 57.9949 71.4969V72.5217C57.9949 74.5554 58.8229 75.6764 60.138 75.6764ZM71.5356 67.99C73.9386 67.99 75.205 69.7194 75.205 72.3776C75.205 74.9718 73.9061 76.7813 71.5194 76.7813C69.1165 76.7813 67.8338 75.0519 67.8338 72.3936C67.8338 69.7995 69.1327 67.99 71.5356 67.99ZM71.5356 69.0949C70.0582 69.0949 69.3113 70.1518 69.3113 72.3936C69.3113 74.6355 70.0419 75.6764 71.5194 75.6764C72.9969 75.6764 73.7275 74.6355 73.7275 72.3776C73.7275 70.1518 72.9969 69.0949 71.5356 69.0949ZM86.7975 68.1661L86.6189 69.287H83.5665V76.6051H82.2027V69.287H79.0691V68.1661H86.7975ZM91.1 76.6051V68.1661H92.4638V71.593H94.1686L96.6364 68.1661H98.1789L95.2888 72.0734L98.6172 76.6051H96.9612L94.1361 72.6819H92.4638V76.6051H91.1ZM108.505 74.7636C108.505 75.4362 108.716 75.6924 109.203 75.8365L108.862 76.7973C108.132 76.7012 107.531 76.365 107.303 75.5963C106.687 76.381 105.729 76.7813 104.625 76.7813C102.904 76.7813 101.864 75.7565 101.864 74.1871C101.864 72.4577 103.277 71.4809 105.858 71.4809H107.125V70.7923C107.125 69.5593 106.362 69.1109 105.095 69.1109C104.527 69.1109 103.748 69.239 102.871 69.5433L102.498 68.5184C103.553 68.1501 104.462 67.99 105.306 67.99C107.433 67.99 108.505 69.0468 108.505 70.7122V74.7636ZM104.965 75.7725C105.81 75.7725 106.622 75.3241 107.125 74.5715V72.4097H105.891C104.008 72.4097 103.326 73.0822 103.326 74.1711C103.326 75.228 103.845 75.7725 104.965 75.7725Z" fill="white"/>
</svg>
