<svg width="72" height="72" viewBox="0 0 72 72" fill="none" xmlns="http://www.w3.org/2000/svg">
<rect width="72" height="72" rx="20" fill="#6BC3B7"/>
<ellipse cx="36" cy="53.5" rx="11" ry="4.5" fill="#080808"/>
<path fill-rule="evenodd" clip-rule="evenodd" d="M35.9996 54.45C37.3496 54.45 50.3996 39.4529 50.3996 31.5C50.3996 23.5471 43.9525 17.1 35.9996 17.1C28.0467 17.1 21.5996 23.5471 21.5996 31.5C21.5996 39.4529 34.6496 54.45 35.9996 54.45ZM35.9996 36.9C38.9819 36.9 41.3996 34.4824 41.3996 31.5C41.3996 28.5177 38.9819 26.1 35.9996 26.1C33.0173 26.1 30.5996 28.5177 30.5996 31.5C30.5996 34.4824 33.0173 36.9 35.9996 36.9Z" fill="white"/>
</svg>
