<svg width="48" height="48" viewBox="0 0 48 48" fill="none" xmlns="http://www.w3.org/2000/svg">
<rect width="48" height="48" rx="16" fill="#4793EF"/>
<path fill-rule="evenodd" clip-rule="evenodd" d="M10.3766 16.5436L19.4962 23.4861L10.339 31.3867C10.1225 30.972 10 30.5003 10 30V18C10 17.4715 10.1367 16.9749 10.3766 16.5436ZM11.916 15.2018C12.2522 15.0715 12.6177 15 13 15H35C35.3822 15 35.7478 15.0715 36.084 15.2018L26.3109 22.6418L24.6107 23.9534C24.2508 24.231 23.749 24.231 23.3891 23.9534L21.6941 22.6457L11.916 15.2018ZM37.6233 16.5435L28.5037 23.4861L37.6609 31.3868C37.8775 30.972 38 30.5003 38 30V18C38 17.4714 37.8633 16.9748 37.6233 16.5435ZM36.1865 32.7562L26.8812 24.7278L25.8323 25.5369C24.7527 26.3698 23.2472 26.3698 22.1675 25.5369L21.1186 24.7278L11.8134 32.7562C12.1773 32.9131 12.5785 33 13 33H35C35.4215 33 35.8226 32.9131 36.1865 32.7562Z" fill="white"/>
</svg>
