<svg width="72" height="72" viewBox="0 0 72 72" fill="none" xmlns="http://www.w3.org/2000/svg">
<rect width="72" height="72" rx="20" fill="#CA53D3"/>
<path fill-rule="evenodd" clip-rule="evenodd" d="M52.8901 37.5C47.6674 45.0422 37.5506 53 36 53C34.4493 53 24.3326 45.0422 19.1099 37.5H25.6346L29.0601 30.2209L35.9684 43.0505L41.5799 33.3579L44.4793 37.5H52.8901ZM54.1599 35.5H57C57.5523 35.5 58 35.9477 58 36.5C58 37.0523 57.5523 37.5 57 37.5H52.8901C53.3554 36.8281 53.7819 36.1594 54.1599 35.5ZM54.1599 35.5H45.5207L41.4201 29.6421L36.0316 38.9495L28.9399 25.7792L24.3654 35.5H17.8401C16.7003 33.5121 16 31.608 16 29.9498C16 19.8463 28.5284 14.2794 35.9093 24.5833C35.9514 24.642 36.0436 24.6388 36.0815 24.5773C42.4327 14.279 56 19.5171 56 29.9498C56 31.608 55.2997 33.5121 54.1599 35.5ZM17.8401 35.5C18.2181 36.1594 18.6446 36.8281 19.1099 37.5H15C14.4477 37.5 14 37.0523 14 36.5C14 35.9477 14.4477 35.5 15 35.5H17.8401Z" fill="white"/>
</svg>
