<svg width="72" height="72" viewBox="0 0 72 72" fill="none" xmlns="http://www.w3.org/2000/svg">
<rect width="72" height="72" rx="20" fill="#004DFF"/>
<g clip-path="url(#clip0_2605_3985)">
<path d="M31.6612 34.4914C31.6612 34.4914 35.9192 34.1752 35.9192 29.1807C35.9192 24.1867 32.4353 21.7502 28.0218 21.7502H19.8985H19.6599H13.5V49.6581H19.6599H19.8985H28.0218C28.0218 49.6581 36.8868 49.9385 36.8868 41.4211C36.8873 41.4211 37.2739 34.4914 31.6612 34.4914ZM19.8985 26.7109H26.9767H28.0223C28.0223 26.7109 29.9965 26.7109 29.9965 29.6143C29.9965 32.5176 28.8349 32.9385 27.5188 32.9385H19.8985V26.7109ZM27.6475 44.6988H19.8985V37.2402H28.0218C28.0218 37.2402 30.9641 37.2026 30.9641 41.0731C30.9641 44.3005 28.8124 44.6664 27.6475 44.6988Z" fill="white"/>
<path d="M54.2217 23.3943H42.707V26.8312H54.2217V23.3943Z" fill="white"/>
<path d="M48.7103 28.8513C37.9782 28.8513 37.9875 39.5731 37.9875 39.5731C37.9875 39.5731 37.252 50.2418 48.7108 50.2418C48.7108 50.2418 58.2606 50.7877 58.2606 42.8198H53.3492C53.3492 42.8198 53.5132 45.8218 48.8747 45.8218C48.8747 45.8218 43.9638 46.1501 43.9638 40.9649H58.4241C58.4241 40.9649 60.0061 28.8513 48.7103 28.8513ZM53.0759 37.24H43.9084C43.9084 37.24 44.5082 32.9383 48.8193 32.9383C53.1308 32.9379 53.0759 37.24 53.0759 37.24Z" fill="white"/>
</g>
<defs>
<clipPath id="clip0_2605_3985">
<rect width="45" height="45" fill="white" transform="translate(13.5 13.5)"/>
</clipPath>
</defs>
</svg>
