<svg xmlns="http://www.w3.org/2000/svg" width="48" height="48" fill="none"><rect width="48" height="48" fill="#40B3E0" rx="16"/><path fill="#fff" d="M35.678 13.806 31.39 35.419s-.6 1.498-2.248.779l-9.892-7.584-3.597-1.739-6.055-2.038s-.93-.33-1.02-1.05c-.09-.719 1.05-1.108 1.05-1.108l24.07-9.443s1.979-.869 1.979.57Z"/><path fill="#D2E5F1" d="M18.49 35.176s-.288-.027-.648-1.166c-.36-1.14-2.188-7.134-2.188-7.134l14.538-9.233s.84-.51.81 0c0 0 .15.09-.3.51-.45.42-11.421 10.281-11.421 10.281"/><path fill="#B5CFE4" d="m23.044 31.522-3.913 3.567s-.306.232-.64.087l.748-6.627"/></svg>