<svg width="158" height="90" viewBox="0 0 158 90" fill="none" xmlns="http://www.w3.org/2000/svg">
<path d="M26.4847 62.8275V71.1039C26.4847 74.208 27.8748 75.5318 29.7405 75.5318C31.7958 75.5318 33.1445 74.1664 33.1445 71.1039V62.8275H34.9699V70.9807C34.9699 75.2634 32.708 77 29.6801 77C26.8194 77 24.6587 75.3873 24.6587 71.0409V62.8275H26.4847Z" fill="white"/>
<path d="M46.1307 75.3671C46.5892 75.4505 47.2513 75.4505 47.9567 75.4505C51.8164 75.4671 53.9122 73.2972 53.9122 69.531C53.9312 66.2027 52.0655 64.1538 48.2466 64.1538C47.3162 64.1538 46.608 64.2355 46.1307 64.3419V75.3671ZM44.3066 63.0143C45.427 62.851 46.7326 62.725 48.1627 62.725C50.7599 62.725 52.6032 63.3033 53.83 64.4428C55.0951 65.5787 55.8195 67.2158 55.8195 69.4693C55.8195 71.745 55.0951 73.6066 53.8102 74.8918C52.4796 76.1922 50.3223 76.8975 47.6058 76.8975C46.297 76.8975 45.2405 76.8565 44.3066 76.7328V63.0143Z" fill="white"/>
<path d="M70.3873 70.9809L68.9978 66.9671C68.7082 66.056 68.5016 65.2308 68.2924 64.4227H68.2292C68.0416 65.2308 67.8132 66.0977 67.5453 66.946L66.1759 70.9809H70.3873ZM65.8013 72.3861L64.3488 76.7725H62.4795L67.2339 62.8277H69.4119L74.1855 76.7725H72.2522L70.7598 72.3861H65.8013Z" fill="white"/>
<path d="M82.2341 74.5807C83.0435 75.0959 84.2061 75.4902 85.4502 75.4902C87.2963 75.4902 88.3759 74.5364 88.3759 73.1108C88.3759 71.828 87.6282 71.0613 85.741 70.3598C83.4567 69.5309 82.0465 68.3305 82.0465 66.3869C82.0465 64.2143 83.8535 62.6027 86.5708 62.6027C87.9785 62.6027 89.0367 62.9326 89.6401 63.2844L89.143 64.7526C88.7065 64.4823 87.7727 64.0909 86.5087 64.0909C84.6005 64.0909 83.8716 65.2306 83.8716 66.1794C83.8716 67.4843 84.7224 68.1253 86.6541 68.8679C89.0197 69.8012 90.2038 70.9177 90.2038 72.9655C90.2038 75.1192 88.6235 77 85.326 77C83.9737 77 82.5047 76.5874 81.7568 76.0886L82.2341 74.5807Z" fill="white"/>
<path d="M100.719 62.8277V68.6617H107.485V62.8277H109.311V76.7725H107.485V70.2341H100.719V76.7725H98.8926V62.8277H100.719Z" fill="white"/>
<path d="M120.536 68.66L125.885 62.8488H128.068L122.056 69.4027L129.062 76.793H126.687L120.536 70.1781L120.471 70.1889V76.7724H118.666V62.8277H120.471V68.6555L120.536 68.66Z" fill="white"/>
<path d="M137.939 62.8277V76.7725H136.114V62.8277H137.939Z" fill="white"/>
<path d="M147.314 76.7725V62.8277H149.308L153.766 69.8808C154.785 71.5192 155.613 72.9658 156.257 74.4139L156.32 74.3931C156.154 72.533 156.113 70.8356 156.113 68.6851V62.8277H157.814V76.7725H155.989L151.548 69.698C150.573 68.1437 149.64 66.5529 148.954 65.0442L148.89 65.0631C148.995 66.8228 149.016 68.4985 149.016 70.8153V76.7725H147.314Z" fill="white"/>
<path fill-rule="evenodd" clip-rule="evenodd" d="M12.183 69.4091C12.381 69.1052 16.135 62.7804 16.135 62.7804H18.2915L18.0527 63.1529C13.8007 69.7366 13.4064 70.8314 13.167 71.1562C13.167 71.192 13.167 76.7803 13.167 76.7803H11.2225V76.6591C11.2225 76.6591 11.2423 71.2714 11.2623 71.2714C11.2614 71.2694 7.32834 64.801 7.32834 64.801C4.69482 60.4637 0.917387 60.8064 0.295652 63.4212L0 63.3106C0.0579463 61.1565 4.42509 56.8268 8.93817 64.0321C8.93817 64.0321 12.0473 69.1954 12.183 69.4091Z" fill="white"/>
<path fill-rule="evenodd" clip-rule="evenodd" d="M74.2845 24.5526C75.7351 26.4815 76.226 32.0475 75.7317 37.7297C75.6852 38.2556 75.6175 38.9107 75.5466 39.4181C72.4374 39.3216 69.9649 32.7802 73.9765 25.0783C74.0801 24.8827 74.1614 24.7469 74.2845 24.5526ZM77.238 35.0131C77.2309 35.1178 77.2204 35.1867 77.2102 35.2872L77.3588 35.2919C77.6614 34.0345 78.1092 32.1202 78.7024 30.0856C80.3617 24.4055 83.6316 21.18 85.2403 21.4673C89.944 22.307 83.304 41.0371 77.3009 42.0634C76.6134 47.3044 78.5466 48.5824 80.3952 48.5824C81.4701 48.5824 83.1672 47.5957 84.279 46.1608L84.6734 46.4794C83.1273 48.5126 81.3205 49.8334 79.4123 49.6606C76.5434 49.4076 74.6354 47.0217 75.1368 41.9921C68.246 40.9028 70.1256 28.6764 73.295 23.8883C73.1292 23.8168 72.8299 23.7102 72.6556 23.6976C69.9924 23.4671 68.4629 26.6966 67.5594 31.539L67.0234 31.4539C67.9003 25.2147 70.7602 20.8467 73.5322 21.0798C74.082 21.1277 74.4658 21.3592 74.6621 21.5127C75.3641 20.4428 75.8008 19.8055 76.7483 18.3879C76.8529 18.2197 76.8661 18.1003 76.8194 18.0018C76.6102 17.5457 75.2335 17.7904 73.847 18.7686C73.7862 18.6643 73.5599 18.3396 73.5599 18.3396C74.5539 17.5642 75.9513 16.618 77.7186 16.3266C78.6512 16.1727 79.823 16.2636 80.6528 16.4494C77.9916 19.3699 76.8262 20.719 75.7439 22.2838C77.4175 24.202 77.5861 30.0334 77.238 35.0131ZM77.6614 39.5132C78.5103 35.3212 80.9866 25.2951 84.1409 25.3349C86.7795 25.3677 82.2203 39.4513 77.6614 39.5132Z" fill="white"/>
<path d="M78.1597 52.82C70.4309 52.82 64.1645 44.0369 64.1645 33.0943C64.1645 22.1498 70.4309 13.3694 78.1597 13.3694C85.8899 13.3694 92.1583 22.1498 92.1583 33.0943C92.1583 44.0369 85.8899 52.82 78.1597 52.82ZM78.1597 12.6862C69.7144 12.6862 62.5547 21.8229 62.5547 33.0943C62.5547 44.3665 69.7144 53.502 78.1597 53.502C86.6103 53.502 93.769 44.3665 93.769 33.0943C93.769 21.8229 86.6103 12.6862 78.1597 12.6862Z" fill="white"/>
</svg>
