<svg width="158" height="90" viewBox="0 0 158 90" fill="none" xmlns="http://www.w3.org/2000/svg">
<path d="M128.61 70.0839H125.715V54.9199H143.996V57.8311H128.61V70.0839Z" fill="white"/>
<path d="M104.191 54.9199H122.516V57.7876H104.191V54.9199Z" fill="white"/>
<rect x="104.234" y="61.0029" width="18.2386" height="2.95458" fill="white"/>
<rect x="104.234" y="67.1729" width="18.2386" height="2.95458" fill="white"/>
<rect x="82.8008" y="67.1729" width="18.2386" height="2.95458" fill="white"/>
<rect x="82.8008" y="61.0029" width="18.2386" height="2.95458" fill="white"/>
<rect x="82.8008" y="54.833" width="18.2386" height="2.95458" fill="white"/>
<rect x="61.1875" y="54.833" width="18.2386" height="2.95458" fill="white"/>
<rect x="61.1875" y="56.7451" width="2.93892" height="13.3825" fill="white"/>
<rect x="76.4883" y="56.7451" width="2.93892" height="13.3825" fill="white"/>
<rect x="39.75" y="67.1729" width="18.4115" height="2.95458" fill="white"/>
<rect x="39.75" y="54.833" width="18.4115" height="2.95458" fill="white"/>
<rect x="55.1387" y="57.1787" width="3.02536" height="11.6445" fill="white"/>
<rect x="39.75" y="57.1787" width="3.02536" height="11.6445" fill="white"/>
<rect x="33.5293" y="54.833" width="3.02536" height="15.2943" fill="white"/>
<rect x="12.0898" y="54.833" width="3.02536" height="21.4642" fill="white"/>
<rect x="14.9434" y="67.1729" width="15.559" height="2.95458" fill="white"/>
<rect x="14.9434" y="54.833" width="15.559" height="2.95458" fill="white"/>
<rect x="27.3906" y="57.6133" width="3.1118" height="12.079" fill="white"/>
<rect y="40.4678" width="6.59528" height="29.8369" fill="white"/>
<rect x="12.0938" y="11.7354" width="7.69449" height="38.6775" fill="white"/>
<rect x="37.373" y="11.7354" width="7.69449" height="38.6775" fill="white"/>
<rect x="49.4648" y="27.2061" width="7.69449" height="23.2065" fill="white"/>
<rect x="24.1836" y="4" width="7.69449" height="46.413" fill="white"/>
<path d="M17.7665 83.233C17.7979 83.6114 17.8802 83.9346 18.0135 84.2026C18.1546 84.4628 18.3311 84.6756 18.5428 84.8411C18.7623 85.0067 19.0132 85.1289 19.2955 85.2077C19.5778 85.2786 19.8797 85.3141 20.2011 85.3141C20.5775 85.3141 20.9029 85.2668 21.1774 85.1722C21.4518 85.0776 21.6753 84.9515 21.8478 84.7938C22.0203 84.6283 22.1457 84.4391 22.2241 84.2263C22.3104 84.0134 22.3535 83.7888 22.3535 83.5523C22.3535 83.2212 22.279 82.9532 22.13 82.7482C21.9811 82.5433 21.785 82.3777 21.542 82.2516C21.3067 82.1176 21.0323 82.0112 20.7187 81.9324C20.4129 81.8535 20.0953 81.7786 19.766 81.7077C19.4445 81.6289 19.1269 81.5382 18.8133 81.4357C18.5075 81.3333 18.233 81.1953 17.99 81.0219C17.7547 80.8485 17.5626 80.6277 17.4137 80.3597C17.2647 80.0838 17.1902 79.737 17.1902 79.3192C17.1902 79.0275 17.249 78.7437 17.3666 78.4678C17.4921 78.1919 17.6724 77.9476 17.9076 77.7347C18.1507 77.5219 18.4526 77.3524 18.8133 77.2263C19.174 77.1002 19.5895 77.0371 20.06 77.0371C20.5383 77.0371 20.9539 77.1041 21.3067 77.2381C21.6674 77.3721 21.9654 77.5574 22.2006 77.7939C22.4358 78.0225 22.6123 78.2905 22.7299 78.5979C22.8475 78.9053 22.9063 79.2325 22.9063 79.5793H22.1418C22.1418 79.2561 22.083 78.9763 21.9654 78.7398C21.8556 78.5033 21.7027 78.3102 21.5067 78.1604C21.3107 78.0106 21.0872 77.9003 20.8363 77.8293C20.5854 77.7584 20.3266 77.7229 20.06 77.7229C19.6523 77.7229 19.3073 77.782 19.025 77.9003C18.7506 78.0106 18.531 78.1565 18.3663 78.3378C18.2017 78.5191 18.088 78.7201 18.0253 78.9408C17.9625 79.1615 17.9508 79.3823 17.99 79.603C18.037 79.8789 18.1468 80.0996 18.3193 80.2651C18.4918 80.4307 18.7035 80.5686 18.9544 80.679C19.2053 80.7815 19.4798 80.8682 19.7777 80.9391C20.0835 81.0022 20.3933 81.0731 20.7069 81.152C21.0205 81.2229 21.3224 81.3096 21.6125 81.4121C21.9105 81.5146 22.1732 81.6525 22.4006 81.8259C22.628 81.9994 22.8083 82.224 22.9416 82.4999C23.0827 82.7679 23.1533 83.1069 23.1533 83.5168C23.1533 84.3051 22.8828 84.916 22.3418 85.3496C21.8007 85.7831 21.0401 85.9999 20.06 85.9999C19.6209 85.9999 19.2132 85.9408 18.8368 85.8225C18.4604 85.7122 18.135 85.5427 17.8606 85.3141C17.5862 85.0776 17.3705 84.7899 17.2137 84.4509C17.0647 84.1041 16.9902 83.6981 16.9902 83.233H17.7665Z" fill="white"/>
<path d="M24.6274 85.7752V77.2618H30.2612V77.9476H25.4271V81.0219H29.7907V81.7077H25.4271V85.0894H30.3788V85.7752H24.6274Z" fill="white"/>
<path d="M35.099 81.2229C35.397 81.2229 35.6714 81.1914 35.9223 81.1283C36.1811 81.0652 36.4046 80.9667 36.5928 80.8327C36.7809 80.6908 36.9299 80.5134 37.0397 80.3006C37.1495 80.0878 37.2044 79.8316 37.2044 79.532C37.2044 79.2167 37.1455 78.9566 37.0279 78.7516C36.9182 78.5467 36.7653 78.3851 36.5692 78.2668C36.381 78.1486 36.1615 78.0658 35.9106 78.0185C35.6675 77.9712 35.4127 77.9476 35.1461 77.9476H32.6056V81.2229H35.099ZM32.6056 81.9087V85.7752H31.8058V77.2618H35.1226C36.0556 77.2618 36.7692 77.4391 37.2632 77.7939C37.7572 78.1407 38.0041 78.7083 38.0041 79.4966C38.0041 80.0326 37.8944 80.4583 37.6748 80.7736C37.4631 81.0889 37.1142 81.3569 36.628 81.5776C36.879 81.6643 37.075 81.7905 37.2161 81.956C37.3573 82.1215 37.4631 82.3107 37.5337 82.5236C37.6042 82.7364 37.6474 82.9611 37.6631 83.1976C37.6866 83.434 37.7023 83.6626 37.7101 83.8834C37.7179 84.2066 37.7297 84.4746 37.7454 84.6874C37.7689 84.9002 37.7924 85.0737 37.816 85.2077C37.8473 85.3417 37.8826 85.4481 37.9218 85.5269C37.961 85.5979 38.0081 85.6531 38.063 85.6925V85.7752H37.1808C37.0946 85.6334 37.0319 85.4363 36.9926 85.184C36.9613 84.9318 36.9338 84.6677 36.9103 84.3918C36.8946 84.1159 36.879 83.8479 36.8633 83.5878C36.8554 83.3276 36.8358 83.1148 36.8045 82.9492C36.7574 82.7206 36.679 82.5393 36.5692 82.4053C36.4673 82.2634 36.3418 82.157 36.1929 82.0861C36.0439 82.0151 35.8753 81.9678 35.6871 81.9442C35.5068 81.9205 35.3186 81.9087 35.1226 81.9087H32.6056Z" fill="white"/>
<path d="M38.9215 77.2618H39.7565L42.3088 84.8293L44.8493 77.2618H45.6844L42.744 85.7752H41.8619L38.9215 77.2618Z" fill="white"/>
<path d="M47.1349 85.7752V77.2618H47.9347V85.7752H47.1349Z" fill="white"/>
<path d="M56.1363 79.733C55.9716 79.0078 55.6658 78.4915 55.2189 78.1841C54.7719 77.8766 54.1878 77.7229 53.4664 77.7229C52.9567 77.7229 52.5176 77.8254 52.1491 78.0303C51.7806 78.2353 51.4748 78.5112 51.2317 78.858C50.9965 79.2049 50.82 79.6069 50.7024 80.0641C50.5927 80.5134 50.5378 80.9904 50.5378 81.4949C50.5378 81.9678 50.5848 82.4329 50.6789 82.8901C50.7808 83.3473 50.9455 83.7572 51.1729 84.1198C51.4003 84.4746 51.7061 84.7623 52.0903 84.983C52.4745 85.2037 52.9567 85.3141 53.537 85.3141C53.8977 85.3141 54.227 85.255 54.5249 85.1367C54.8229 85.0185 55.0817 84.8569 55.3012 84.6519C55.5286 84.4391 55.7168 84.1908 55.8658 83.907C56.0226 83.6232 56.1402 83.3119 56.2186 82.9729H57.0537C56.9596 83.3828 56.8224 83.773 56.642 84.1435C56.4617 84.5061 56.2225 84.8254 55.9246 85.1013C55.6345 85.3772 55.2777 85.5979 54.8543 85.7634C54.4387 85.9211 53.9486 85.9999 53.3841 85.9999C52.7333 85.9999 52.1765 85.8817 51.7139 85.6452C51.2513 85.4008 50.871 85.0737 50.5731 84.6638C50.2829 84.2539 50.0712 83.7809 49.9379 83.2449C49.8046 82.7009 49.738 82.1255 49.738 81.5185C49.738 80.7066 49.836 80.0168 50.032 79.4493C50.2359 78.8817 50.5142 78.4205 50.8671 78.0658C51.2199 77.7032 51.6355 77.4431 52.1138 77.2854C52.5921 77.1199 53.1136 77.0371 53.6781 77.0371C54.1094 77.0371 54.5093 77.0962 54.8778 77.2145C55.2542 77.3248 55.5835 77.4943 55.8658 77.7229C56.1559 77.9515 56.3911 78.2353 56.5715 78.5743C56.7596 78.9053 56.889 79.2916 56.9596 79.733H56.1363Z" fill="white"/>
<path d="M58.6142 85.7752V77.2618H64.248V77.9476H59.414V81.0219H63.7775V81.7077H59.414V85.0894H64.3656V85.7752H58.6142Z" fill="white"/>
</svg>
