<svg width="158" height="90" viewBox="0 0 158 90" fill="none" xmlns="http://www.w3.org/2000/svg">
<path fill-rule="evenodd" clip-rule="evenodd" d="M34.7583 67.8153C47.1208 63.9562 55.7208 60.9743 60.5583 59.0447C67.2771 56.2381 71.4875 53.607 73.2792 50.8881C73.3688 50.7127 73.4583 50.625 73.5479 50.4496L86 67.903L34.0417 67.9907C34.3104 67.903 34.5792 67.8153 34.7583 67.8153ZM22.575 67.8153C22.3958 67.903 22.3062 67.903 22.1271 67.9907H0C0.895833 66.4997 2.15 64.8333 3.85208 62.9915C5.10625 61.6759 6.53958 60.2726 8.15208 58.7816C11.825 55.5365 16.125 52.2037 21.1417 48.7832C25.9792 45.4503 30.9062 42.5561 35.8333 39.9249C40.85 37.206 45.2396 35.2765 48.9125 34.0486C50.7937 33.4347 51.7792 33.2592 51.8688 33.5224C52.0479 33.7855 51.2417 34.3994 49.5396 35.1888L34.1312 43.6085C32.8771 44.661 33.0562 45.3626 34.7583 45.538L40.4021 45.7135L47.2104 45.1872L55.3625 44.9241C57.5125 45.0118 59.3042 45.2749 60.8271 45.9766C61.7229 46.3274 62.35 46.5905 62.7083 46.7659L63.5146 47.5553C63.7833 48.1692 63.5146 48.8709 62.7979 49.6602C58.7667 53.9578 45.2396 59.9218 22.575 67.8153ZM60.9167 33.4347C61.0062 33.4347 61.0062 33.347 61.0958 33.347L67.0979 41.7667H66.7396L61.5437 41.1528L56.4375 41.4159L39.2375 43.6962C46.3146 40.7142 53.5708 37.2937 60.9167 33.4347ZM57.3333 28.3477C49.5396 27.2953 38.4312 29.4002 24.1875 34.4871C24.0083 34.5748 23.8292 34.5748 23.65 34.6625L43.0896 8L57.4229 28.4354C57.4229 28.4354 57.4229 28.3477 57.3333 28.3477Z" fill="white"/>
<path fill-rule="evenodd" clip-rule="evenodd" d="M6.53958 78.6034V76.5861H16.7521V75.2706H0V73.2533H18.9021C20.425 73.1656 21.6792 73.4287 22.7542 73.7796C23.7396 74.1304 24.2771 74.5689 24.5458 75.1828C24.8146 75.7968 24.6354 76.323 24.0083 76.7616C23.3812 77.2878 22.3062 77.5509 20.8729 77.7263C22.3062 77.9894 23.2917 78.428 24.0083 78.9542C24.6354 79.3927 24.8146 79.919 24.5458 80.4452C24.3667 80.9714 23.7396 81.3222 22.8437 81.6731C21.8583 82.0239 20.5146 82.1993 18.9917 82.1993H0V80.1821H16.7521V78.7788H6.53958V78.6034Z" fill="white"/>
<path fill-rule="evenodd" clip-rule="evenodd" d="M34.5799 75.2686V80.0924H47.5695V75.2686H34.5799ZM28.757 73.7777C29.832 73.3391 31.0861 73.1637 32.609 73.2514H49.3611C50.884 73.1637 52.1382 73.4268 53.2132 73.7777C54.1986 74.1285 54.7361 74.567 55.0049 75.1809L55.0944 75.7072V79.8293L55.0049 80.2679C54.8257 80.7941 54.1986 81.1449 53.3028 81.4957L49.4507 82.022H49.3611H32.609H32.5195C30.9965 82.022 29.7424 81.8466 28.6674 81.4957C27.682 81.1449 27.1445 80.7941 26.8757 80.2679L26.7861 79.8293V75.5318L26.8757 75.1809C27.234 74.567 27.8611 74.1285 28.757 73.7777Z" fill="white"/>
<path fill-rule="evenodd" clip-rule="evenodd" d="M67.9937 78.6909V76.586H78.2062V75.2704H65.3958V80.0942H78.2062V78.6909H67.9937ZM85.8208 80.3573C85.6417 80.8835 85.0146 81.2344 84.1187 81.5852L80.2667 82.1114H57.7812V73.1654H80.0875C81.6104 73.0777 82.8646 73.3408 83.9396 73.6917C84.925 74.0425 85.4625 74.481 85.7312 75.095C86 75.7089 85.8208 76.2351 85.1937 76.6737C84.5667 77.1999 83.4917 77.463 82.0583 77.6384C83.4917 77.9015 84.4771 78.3401 85.1937 78.8663C85.8208 79.3048 86.0896 79.8311 85.8208 80.3573Z" fill="white"/>
</svg>
