<svg width="158" height="90" viewBox="0 0 158 90" fill="none" xmlns="http://www.w3.org/2000/svg">
<path d="M12.3999 36.9015C16.6594 36.9015 19.9093 37.8646 22.1494 39.7909C24.3896 41.6862 25.5097 44.6067 25.5097 48.5526V62.5806H17.1327V59.3182C15.8391 61.7728 13.3149 63 9.56023 63C7.57246 63 5.85288 62.6582 4.40149 61.9747C2.9501 61.2912 1.84579 60.3746 1.08854 59.225C0.362847 58.0444 0 56.7084 0 55.217C0 52.8247 0.930781 50.976 2.79234 49.6711C4.65391 48.3351 7.52513 47.6671 11.406 47.6671H16.5174C16.3597 44.9951 14.5454 43.6591 11.0747 43.6591C9.84419 43.6591 8.59789 43.8611 7.33582 44.265C6.07374 44.6378 5.00098 45.166 4.11752 45.8495L1.08854 39.8376C2.50838 38.9055 4.22796 38.1909 6.24728 37.6937C8.29815 37.1656 10.349 36.9015 12.3999 36.9015ZM12.0686 57.4075C13.1098 57.4075 14.0248 57.1589 14.8136 56.6618C15.6024 56.1647 16.1704 55.4345 16.5174 54.4714V52.281H12.6365C10.0177 52.281 8.70833 53.1354 8.70833 54.8442C8.70833 55.6209 9.00807 56.2423 9.60756 56.7084C10.207 57.1744 11.0274 57.4075 12.0686 57.4075Z" fill="white"/>
<path d="M36.4391 40.3502C37.3541 39.2006 38.5373 38.3462 39.9887 37.787C41.4716 37.1966 43.1597 36.9015 45.0528 36.9015V44.8708C44.2324 44.7776 43.5541 44.731 43.0177 44.731C41.093 44.731 39.5785 45.2437 38.4742 46.269C37.4015 47.2943 36.8651 48.8633 36.8651 50.976V62.5806H27.8728V37.3209H36.4391V40.3502Z" fill="white"/>
<path d="M63.937 61.5553C63.1797 62.0213 62.2489 62.3786 61.1446 62.6272C60.0719 62.8757 58.9202 63 57.6897 63C54.3452 63 51.7737 62.1922 49.9753 60.5766C48.1768 58.9609 47.2776 56.553 47.2776 53.3529V44.8708H43.5387V38.253H47.2776V31.6818H56.2699V38.253H62.1385V44.8708H56.2699V53.2597C56.2699 54.1607 56.5065 54.8753 56.9798 55.4035C57.4846 55.9006 58.1472 56.1491 58.9675 56.1491C60.0088 56.1491 60.9238 55.885 61.7126 55.3569L63.937 61.5553Z" fill="white"/>
<path d="M75.7342 53.7257L73.0838 56.3822V62.5806H64.0915V28H73.0838V46.1292L82.2654 37.3209H92.9142L82.2654 48.1332L93.8134 62.5806H82.928L75.7342 53.7257Z" fill="white"/>
<path d="M118.288 49.9973C118.288 50.0595 118.241 50.7896 118.146 52.1877H99.4991C99.8777 53.4927 100.603 54.5024 101.676 55.217C102.78 55.9006 104.153 56.2423 105.794 56.2423C107.024 56.2423 108.081 56.0715 108.965 55.7297C109.88 55.3879 110.795 54.8287 111.71 54.0519L116.442 58.8988C113.95 61.6329 110.306 63 105.51 63C102.512 63 99.8777 62.4407 97.6059 61.3222C95.3342 60.2037 93.5673 58.6502 92.3052 56.6618C91.0747 54.6733 90.4594 52.4208 90.4594 49.9041C90.4594 47.4186 91.0589 45.1971 92.2579 43.2397C93.4884 41.2512 95.1764 39.6977 97.322 38.5792C99.4675 37.4607 101.881 36.9015 104.563 36.9015C107.119 36.9015 109.438 37.4297 111.52 38.486C113.603 39.5113 115.243 41.0182 116.442 43.0067C117.673 44.964 118.288 47.2943 118.288 49.9973ZM104.61 43.1931C103.222 43.1931 102.055 43.5814 101.108 44.3582C100.193 45.1349 99.6095 46.1913 99.3571 47.5273H109.864C109.611 46.1913 109.012 45.1349 108.065 44.3582C107.15 43.5814 105.999 43.1931 104.61 43.1931Z" fill="white"/>
<path d="M119.121 28H128.114V62.5806H119.121V28Z" fill="white"/>
<path d="M143.518 63C140.773 63 138.296 62.4407 136.087 61.3222C133.879 60.2037 132.143 58.6502 130.881 56.6618C129.651 54.6733 129.035 52.4208 129.035 49.9041C129.035 47.4186 129.651 45.1815 130.881 43.1931C132.143 41.2046 133.863 39.6667 136.04 38.5792C138.248 37.4607 140.741 36.9015 143.518 36.9015C146.294 36.9015 148.787 37.4607 150.995 38.5792C153.204 39.6667 154.924 41.2046 156.154 43.1931C157.385 45.1505 158 47.3875 158 49.9041C158 52.4208 157.385 54.6733 156.154 56.6618C154.924 58.6502 153.204 60.2037 150.995 61.3222C148.787 62.4407 146.294 63 143.518 63ZM143.518 55.9627C145.095 55.9627 146.389 55.4345 147.399 54.3782C148.408 53.2907 148.913 51.7994 148.913 49.9041C148.913 48.0399 148.408 46.5797 147.399 45.5233C146.389 44.4669 145.095 43.9387 143.518 43.9387C141.94 43.9387 140.646 44.4669 139.637 45.5233C138.627 46.5797 138.122 48.0399 138.122 49.9041C138.122 51.7994 138.627 53.2907 139.637 54.3782C140.646 55.4345 141.94 55.9627 143.518 55.9627Z" fill="white"/>
</svg>
