<svg width="158" height="90" viewBox="0 0 158 90" fill="none" xmlns="http://www.w3.org/2000/svg">
<path fill-rule="evenodd" clip-rule="evenodd" d="M42.7309 19.2653C44.7789 19.2929 46.8085 18.8545 48.8569 19.0507C50.1888 19.2193 51.4389 20.1299 51.9942 21.3655C52.1884 22.1933 52.1792 23.1529 51.7059 23.8856C51.1203 24.695 50.1039 25.0078 49.16 25.1273C46.8361 25.4125 44.4907 25.2868 42.1571 25.437C41.411 25.5014 40.6009 25.6301 40.0244 26.1544C39.4965 26.8289 39.217 27.6628 38.8411 28.4262C40.3248 28.509 42.0786 28.1963 43.2892 29.2908C44.1145 29.9469 44.011 31.1334 43.6442 32.0134C41.8416 36.7195 39.481 41.2846 38.7832 46.3434C38.744 46.6745 38.7076 47.0056 38.6709 47.3398C40.9954 46.0491 42.9585 44.2095 44.9792 42.5018C45.58 41.4778 45.935 40.2729 46.854 39.4666C48.5201 37.8171 51.0505 37.5442 53.2409 38.0164C55.8958 38.694 58.2294 40.5611 59.437 43.0537C59.7889 41.8886 59.9831 40.6469 60.6139 39.5923C61.127 38.6878 62.4283 38.6664 63.1902 39.2458C64.3341 40.0828 64.8074 41.6372 64.6557 43.0169C64.4312 44.7951 63.5206 46.4231 63.4511 48.232C64.0213 48.0726 64.5492 47.7905 64.9895 47.3919C67.2469 45.4573 69.2888 43.2499 70.903 40.7389C71.3126 40.0828 72.0014 39.4298 72.8388 39.6076C74.189 39.9203 75.518 40.8707 75.8912 42.2749C76.1612 44.1635 75.4239 46.0399 75.7516 47.9254C75.9003 48.7501 76.407 49.4307 76.9225 50.0623C76.1916 47.5575 76.4191 44.7277 77.654 42.419C79.432 39.0496 82.9847 36.7318 86.7383 36.3945C89.3689 36.1125 91.8417 37.578 93.5257 39.5156C94.5816 40.8125 94.8091 42.5539 94.8577 44.1789C97.1424 42.2075 99.7457 40.2729 102.831 39.9816C105.013 39.7425 107.14 41.5115 107.386 43.6975C107.522 45.1477 107.17 46.8186 105.914 47.7016C105.004 48.2964 103.869 48.3209 102.834 48.514C101.05 48.79 99.333 49.3725 97.6612 50.0378C97.6582 51.9877 99.7366 52.5334 101.056 53.4042C102.03 53.9407 102.316 55.1977 101.952 56.1941C101.22 57.5002 99.4787 57.6136 98.1707 57.4052C95.9651 57.1967 94.7846 55.0505 93.6774 53.3858C93.3103 54.8973 93.2526 56.4517 93.0581 57.9908C92.9279 60.9003 92.4665 63.7853 91.8266 66.6242C91.4503 68.1786 90.8401 69.914 89.3385 70.6958C87.7669 71.4501 85.9373 70.702 84.7749 69.5431C83.1489 67.9119 82.7271 65.4623 82.6846 63.2395C82.5815 60.8451 83.0669 58.4813 83.6889 56.1849C84.1532 54.8145 84.6629 53.4471 85.4366 52.2177C83.9469 52.5089 82.5144 53.1957 80.9673 53.0669C80.1299 53.0516 79.3653 52.6775 78.6098 52.3618C78.7099 52.4476 78.9099 52.6193 79.01 52.7051C79.0133 53.3888 79.0133 54.0756 79.0133 54.7593C78.5339 55.768 77.654 56.7491 76.4555 56.7153C74.9961 56.9422 73.7579 55.9673 72.8115 54.9678C71.5341 53.6249 71.0638 51.7762 70.3417 50.1114C67.9417 51.6413 66.4458 54.4404 63.6575 55.3694C62.4256 55.6239 60.8961 55.7557 59.916 54.793C59.0604 54.0143 58.6602 52.8891 58.2685 51.8314C56.9914 53.7414 55.9386 55.8722 54.1181 57.3408C52.6253 58.7204 50.404 58.7235 48.5504 58.2667C46.8422 57.8375 45.9377 56.1727 45.1977 54.7102C44.4391 53.2969 44.0687 51.7056 44.0386 50.1052C43.274 50.5191 42.5853 51.0587 41.945 51.6474C40.1792 53.0393 39.0866 55.1272 37.2451 56.4363C36.5564 56.8441 35.658 57.163 34.9146 56.7C33.4312 55.9734 32.8362 54.2412 32.6211 52.699C32.2327 49.2192 32.8669 45.7302 33.6193 42.3454C33.8985 41.0087 34.3839 39.7149 34.4989 38.3444C31.814 44.323 30.0815 50.7706 26.5406 56.3321C24.7019 59.1221 22.332 61.8078 19.125 62.9575C15.8451 64.1747 12.1374 63.5737 9.10023 61.9519C5.44101 60.0817 2.49478 56.6847 1.41778 52.6591C0.625806 49.6454 0.901853 46.1962 2.74665 43.6147C4.73402 40.791 8.17791 39.3746 11.5093 39.0803C13.8092 38.8994 16.2669 38.9362 18.3513 40.0613C19.6561 40.7634 20.7514 42.0573 20.8121 43.6025C21.2127 47.4195 17.7505 51.1569 13.9427 50.9085C12.192 50.9422 10.3534 49.9611 9.72223 48.2504C9.30658 47.3797 9.95277 46.3311 10.8237 46.092C12.0009 45.7363 13.351 45.7639 14.2583 44.7982C12.7564 43.9918 10.9662 44.2371 9.38541 44.6295C7.49213 45.0956 5.85368 46.8063 5.85368 48.839C5.71715 50.2401 6.08125 51.6106 6.57584 52.9044C7.58613 55.118 9.26107 57.1231 11.5762 57.9846C14.0489 59.0945 17.0649 58.6131 19.125 56.8564C22.2382 54.3178 24.086 50.5989 25.7606 47.0118C28.258 41.3429 30.4972 35.5637 32.8059 29.8151C33.2583 28.6562 33.7619 27.5157 34.0741 26.3046C29.5445 26.2617 25.0569 27.0129 20.5814 27.6444C18.679 27.9664 16.7705 28.2484 14.8833 28.6593C13.3025 28.9842 11.6337 29.2755 10.0438 28.8647C8.6208 28.5428 7.95329 26.6971 8.7179 25.4768C9.48554 24.2995 10.8692 23.7691 12.1282 23.3185C17.4229 21.6475 22.9452 20.9056 28.4367 20.2771C33.1942 19.8294 37.9612 19.5167 42.7309 19.2653ZM84.4111 42.7685C83.0151 43.7282 81.826 45.1661 81.6834 46.929C83.783 46.7144 85.2907 44.9791 86.8778 43.7404C87.4601 43.0537 88.7469 42.462 88.3828 41.392C86.9052 41.0394 85.561 41.9561 84.4111 42.7685ZM51.5603 43.4032C50.2131 45.8896 49.2968 48.9739 50.2462 51.7547C50.6136 51.7823 51.0323 51.9509 51.3658 51.7026C52.6404 50.7859 53.4566 49.3694 54.0817 47.9499C54.4913 46.5519 54.8341 44.7798 53.663 43.6515C53.1714 43.0659 51.9729 42.4037 51.5603 43.4032ZM99.0903 45.8007C100.389 45.3316 101.709 44.9392 103.074 44.7062C102.959 44.3352 103.029 43.7312 102.476 43.8018C101.117 43.8232 99.7457 44.5713 99.0903 45.8007ZM86.3287 64.1471C86.4531 64.3616 86.6958 64.7878 86.8202 65.0024C87.5454 64.0551 87.6303 62.8257 87.782 61.6852C87.8973 60.094 88.049 58.4905 87.8518 56.8993C86.8354 59.1711 86.1891 61.6361 86.3284 64.1471H86.3287ZM154.928 27.0067C155.975 26.8473 157.003 27.8039 156.994 28.8677C157.094 31.486 155.893 33.905 155.11 36.3424C153.845 40.0583 152.421 43.722 150.686 47.2386C150.088 48.7011 147.71 48.4497 147.33 46.9443C147.115 45.5371 147.23 44.0838 147.625 42.7195C148.702 38.7277 150.374 34.9106 151.15 30.836C151.505 28.9658 153.083 27.3746 154.928 27.0067ZM97.9128 30.0481C99.0418 28.5213 101.46 29.3491 102.067 30.9679C102.176 32.3107 102.252 33.7609 101.521 34.9536C100.908 36.2106 99.3601 37.2775 97.9889 36.5693C96.129 34.9413 96.5871 31.8754 97.9128 30.0481ZM64.3159 30.4835C67.4195 29.2264 70.9061 29.0118 74.1587 29.7568C75.1812 29.9899 76.1521 30.4559 76.9076 31.2009C77.0168 32.2709 76.9167 33.4972 76.0034 34.2024C74.2103 35.3 72.0378 34.6807 70.0838 35.0885C68.1814 35.2969 66.5611 36.7931 64.5768 36.4344C63.4056 36.2903 62.7442 35.2142 62.1856 34.2883L62.0706 34.184C61.5335 34.0491 61.5636 33.0159 62.2129 33.065C62.1434 31.7711 63.2418 30.9127 64.3159 30.4835ZM108.129 30.3087C109.385 30.0634 110.751 30.8851 111.087 32.1452C111.47 33.9909 110.787 36.0849 109.227 37.1733C108.505 37.6699 107.383 37.86 106.724 37.1579C105.677 36.1585 105.604 34.5213 105.896 33.1815C106.202 31.995 106.809 30.5908 108.129 30.3087H108.129ZM114.58 38.9147C115.35 38.1605 116.497 38.4517 117.422 38.6817C117.647 39.0833 117.869 39.488 118.093 39.8927C118.184 40.2177 118.287 40.5427 118.397 40.8677C118.527 42.2075 118.33 43.5411 117.957 44.8288C117.495 46.3434 117.049 47.861 116.731 49.4154C116.71 49.7895 116.691 50.1604 116.679 50.5345C118.712 50.3413 120.991 49.63 122.007 47.6771C122.963 45.5401 122.405 43.0261 123.439 40.9137C123.888 39.9847 124.953 39.5432 125.94 39.7088C127.05 39.7272 127.69 40.8554 128.057 41.7752C128.834 44.4149 127.056 47.1007 127.857 49.7435C128.027 50.4333 128.558 50.933 129.037 51.4236C130.934 51.3684 132.812 50.8503 134.426 49.8293C136.046 48.9402 137.63 47.4594 139.621 47.8487C140.604 48.1124 140.373 49.2713 140.324 50.0409C139.757 52.7818 137.588 54.8881 135.176 56.096C133.006 57.2396 130.457 58.3648 127.994 57.537C125.906 56.8318 124.556 54.931 123.461 53.1129C121.331 54.9003 118.785 56.7644 115.857 56.4057C114.81 56.4394 114.125 55.4644 113.156 55.2989C111.919 56.5375 110.848 58.2728 108.918 58.3985C105.113 58.981 102.431 54.4036 103.484 51.0373C103.893 49.9305 104.986 49.0261 106.208 49.2192C107.559 49.1977 108.259 50.5713 108.93 51.5401C109.628 51.1998 110.277 50.7 110.644 49.9918C111.718 48.0051 111.797 45.6811 112.526 43.5718C113.093 41.9837 113.351 40.1564 114.58 38.9147ZM144.257 58.4629C141.271 56.3198 143.986 50.8073 147.424 51.4359C148.368 51.7332 148.857 52.791 148.85 53.7353C148.975 55.5166 148.177 57.4205 146.651 58.3832C145.895 58.8339 145.052 58.6469 144.257 58.4629Z" fill="white"/>
</svg>
