<svg width="158" height="90" viewBox="0 0 158 90" fill="none" xmlns="http://www.w3.org/2000/svg">
<g clip-path="url(#clip0_2966_3412)">
<path d="M58.9497 22.1016C58.9497 24.3296 57.2588 26.1287 54.6255 26.1287C52.0938 26.1287 50.4122 24.3296 50.4584 22.1016C50.4029 19.7711 52.0938 18.0186 54.6717 18.0186C57.2681 18.0186 58.9035 19.7618 58.9497 22.1016Z" fill="white"/>
<path d="M69.9634 22.1016C69.9634 24.3296 68.2725 26.1287 65.6392 26.1287C63.1075 26.1287 61.4258 24.3296 61.472 22.1016C61.4166 19.7711 63.1075 18.0186 65.6854 18.0186C68.2817 18.0186 69.9172 19.7618 69.9634 22.1016Z" fill="white"/>
<path d="M38.9361 41.5286C38.7791 37.2405 38.622 32.0388 38.622 26.8464H38.4649C37.3561 31.4049 35.8778 36.4947 34.5103 40.6803L30.1861 54.6167H23.9123L20.1147 40.7828C18.9598 36.5972 17.7401 31.5074 16.8993 26.8464H16.7977C16.5851 31.6659 16.4281 37.1845 16.1694 41.6311L15.541 55.1947H8.1123L10.376 19.4727H21.0757L24.5498 31.3955C25.6586 35.5252 26.7674 39.9811 27.5527 44.1667H27.7098C28.7077 40.0371 29.9274 35.3201 31.0823 31.3396L34.8799 19.4727H45.367L47.3166 55.1947H39.4628L38.9361 41.5286Z" fill="white"/>
<path d="M65.3989 55.2047L64.9277 52.6038H64.7706C63.0797 54.6733 60.4464 55.7827 57.388 55.7827C52.1676 55.7827 49.063 51.9699 49.063 47.831C49.063 41.1005 55.0688 37.8657 64.1885 37.9216V37.5488C64.1885 36.1691 63.4493 34.2115 59.4947 34.2115C56.8614 34.2115 54.0709 35.1157 52.3801 36.1691L50.9017 30.9767C52.6942 29.9699 56.2238 28.7021 60.9176 28.7021C69.5106 28.7021 72.2456 33.792 72.2456 39.8886V48.903C72.2456 51.392 72.3472 53.7784 72.6152 55.214H65.3989V55.2047ZM64.4472 42.9649C60.2339 42.9089 56.963 43.9157 56.963 47.0479C56.963 49.1174 58.3305 50.1242 60.123 50.1242C62.128 50.1242 63.7635 48.8005 64.2901 47.1598C64.3918 46.731 64.4472 46.2555 64.4472 45.7801V42.9649Z" fill="white"/>
<path d="M84.4697 21.8682V29.2885H90.2169V35.2266H84.4697V44.6046C84.4697 47.7275 85.2089 49.1631 87.6297 49.1631C88.6276 49.1631 89.4223 49.0605 90.0044 48.9487L90.0598 55.0453C89.0065 55.4741 87.1123 55.7351 84.8393 55.7351C82.2614 55.7351 80.0993 54.8309 78.8335 53.5072C77.3551 51.969 76.6159 49.48 76.6159 45.8258V35.2266H73.188V29.2885H76.6159V23.6673L84.4697 21.8682Z" fill="white"/>
<path d="M101.175 21.8682V29.2885H106.922V35.2266H101.175V44.6046C101.175 47.7275 101.915 49.1631 104.335 49.1631C105.333 49.1631 106.128 49.0605 106.71 48.9487L106.765 55.0453C105.712 55.4741 103.818 55.7351 101.545 55.7351C98.967 55.7351 96.8049 54.8309 95.5391 53.5072C94.0607 51.969 93.3215 49.48 93.3215 45.8258V35.2266H89.9028V29.2885H93.3215V23.6673L101.175 21.8682Z" fill="white"/>
<path d="M117.197 22.0831C117.197 24.311 115.516 26.1102 112.873 26.1102C110.341 26.1102 108.66 24.311 108.706 22.0831C108.66 19.7525 110.351 18 112.929 18C115.516 18 117.142 19.7525 117.197 22.0831ZM108.928 55.2042V29.289H116.939V55.2042H108.928Z" fill="white"/>
<path fill-rule="evenodd" clip-rule="evenodd" d="M0 65.8218C0 65.8218 1.10877 71.1074 4.49053 72.9531C36.072 58.8116 125.762 77.754 139.142 56.248C116.135 72.487 61.5646 54.1786 0 65.8218Z" fill="white"/>
<path fill-rule="evenodd" clip-rule="evenodd" d="M134.54 36.8682C137.83 46.0877 135.584 54.1232 128.22 58.6071C122.917 47.3275 128.248 41.4639 134.54 36.8682Z" fill="white"/>
<path fill-rule="evenodd" clip-rule="evenodd" d="M139.539 55.9129C137.404 45.5655 142.967 38.2663 157.288 35.7773C157.298 50.5994 148.621 54.179 139.539 55.9129Z" fill="white"/>
<path d="M129.486 66.7263C135.113 72.1331 141.794 76.356 151.893 69.0848C146.183 62.5967 137.654 62.317 129.486 66.7263Z" fill="white"/>
</g>
<defs>
<clipPath id="clip0_2966_3412">
<rect width="158" height="55" fill="white" transform="translate(0 18)"/>
</clipPath>
</defs>
</svg>
