<svg xmlns="http://www.w3.org/2000/svg" width="48" height="48" fill="none"><rect width="48" height="48" fill="#394550" rx="16"/><path fill="#4285F4" d="M16.813 33.6V23.17L10.8 18.544v12.854c0 1.469.733 2.203 2.2 2.203"/><path fill="#EA4335" d="M16.52 23.097 24 28.752l7.48-5.655v-7.198L24 21.554 16.52 15.9"/><path fill="#34A853" d="M31.186 33.6V23.17l6.014-4.627v12.854c0 1.469-.734 2.203-2.2 2.203"/><path fill="#C5221F" d="m10.8 18.69 6.013 4.627V16.12l-2.2-1.69c-1.98-1.542-3.813 0-3.813 1.91"/><path fill="#FBBC04" d="m37.2 18.69-6.014 4.627V16.12l2.2-1.69c1.98-1.542 3.814 0 3.814 1.91"/></svg>