<svg width="54" height="76" viewBox="0 0 54 76" fill="none" xmlns="http://www.w3.org/2000/svg">
<path d="M26.6667 75.8812C11.9184 75.8812 0 64.0907 0 49.5419C0 40.1852 4.95239 31.9643 12.4626 27.2588C13.9864 26.3393 18.3945 22.0125 18.3401 14.3325C18.3401 12.3855 18.6667 10.6547 18.0136 8.86993C17.3061 7.08513 15.6227 6.97696 15.4049 4.43497C15.1328 0.64902 18.3473 0.10817 19.7623 0C19.8711 0 25.5783 0 26.9932 0C28.4625 0 33.8432 0 33.8976 0C35.8024 0.0540849 38.6359 0.324509 38.2549 4.11045C37.9828 6.59837 36.5171 7.19331 35.7007 8.86993C35.0476 10.2761 35.3741 12.4936 35.3197 14.3325C35.1564 21.4717 39.4013 26.3393 40.8708 27.2588C48.3265 31.9101 53.3333 40.1852 53.3333 49.5419C53.3333 64.0907 41.4149 75.8812 26.6667 75.8812ZM23.5556 5.35632C22.3111 5.35632 21.3333 6.33832 21.3333 7.58812C21.3333 8.83793 22.3111 9.81992 23.5556 9.81992C24.8 9.81992 25.7777 8.83793 25.7777 7.58812C25.7777 6.33832 24.7111 5.35632 23.5556 5.35632ZM29.3333 16.0689C27.3641 16.0689 25.7777 17.6621 25.7777 19.6399C25.7777 21.6176 27.3641 23.2107 29.3333 23.2107C31.3025 23.2107 32.8889 21.6176 32.8889 19.6399C32.8889 17.6621 31.3025 16.0689 29.3333 16.0689ZM44.3801 36.2328C42.7493 36.1783 41.7708 35.9603 40.6293 36.2328C30.8988 38.414 27.2023 34.1608 24.4843 32.5795C20.2441 30.1257 15.5148 29.5804 12.6881 31.5435C7.08897 35.524 3.55556 41.304 3.55556 50.0285C3.55556 62.8427 13.884 73.2031 26.6587 73.2031C39.4333 73.2031 50.2511 62.7881 49.7619 50.0285C49.49 42.2309 47.4787 37.6505 44.3801 36.2328Z" fill="#FFF"/>
</svg>
