<svg width="114" height="35" viewBox="0 0 114 35" fill="none" xmlns="http://www.w3.org/2000/svg">
<path d="M1.89844 0.625V12H0.390625V0.625H1.89844ZM8.90625 0.625L3.96875 6.88281H1.29688L1.0625 5.63281H3.07031L7.03906 0.625H8.90625ZM7.39062 12L3.11719 6.6875L3.96094 5.36719L9.23438 12H7.39062ZM11.2213 7.86719V7.6875C11.2213 7.07812 11.3098 6.51302 11.4869 5.99219C11.664 5.46615 11.9192 5.01042 12.2525 4.625C12.5858 4.23438 12.9895 3.93229 13.4634 3.71875C13.9374 3.5 14.4686 3.39062 15.0572 3.39062C15.6509 3.39062 16.1848 3.5 16.6588 3.71875C17.1379 3.93229 17.5442 4.23438 17.8775 4.625C18.216 5.01042 18.4739 5.46615 18.6509 5.99219C18.828 6.51302 18.9166 7.07812 18.9166 7.6875V7.86719C18.9166 8.47656 18.828 9.04167 18.6509 9.5625C18.4739 10.0833 18.216 10.5391 17.8775 10.9297C17.5442 11.3151 17.1405 11.6172 16.6666 11.8359C16.1978 12.0495 15.6666 12.1562 15.0728 12.1562C14.4791 12.1562 13.9452 12.0495 13.4713 11.8359C12.9973 11.6172 12.591 11.3151 12.2525 10.9297C11.9192 10.5391 11.664 10.0833 11.4869 9.5625C11.3098 9.04167 11.2213 8.47656 11.2213 7.86719ZM12.6666 7.6875V7.86719C12.6666 8.28906 12.716 8.6875 12.815 9.0625C12.914 9.43229 13.0624 9.76042 13.2603 10.0469C13.4634 10.3333 13.716 10.5599 14.0181 10.7266C14.3202 10.888 14.6718 10.9688 15.0728 10.9688C15.4686 10.9688 15.815 10.888 16.1119 10.7266C16.414 10.5599 16.664 10.3333 16.8619 10.0469C17.0598 9.76042 17.2082 9.43229 17.3072 9.0625C17.4114 8.6875 17.4634 8.28906 17.4634 7.86719V7.6875C17.4634 7.27083 17.4114 6.8776 17.3072 6.50781C17.2082 6.13281 17.0572 5.80208 16.8541 5.51562C16.6561 5.22396 16.4061 4.99479 16.1041 4.82812C15.8072 4.66146 15.4582 4.57812 15.0572 4.57812C14.6614 4.57812 14.3124 4.66146 14.0103 4.82812C13.7134 4.99479 13.4634 5.22396 13.2603 5.51562C13.0624 5.80208 12.914 6.13281 12.815 6.50781C12.716 6.8776 12.6666 7.27083 12.6666 7.6875ZM27.0284 10.0781L29.9034 3.54688H31.2941L27.5284 12H26.5284L22.7784 3.54688H24.1691L27.0284 10.0781ZM23.7472 3.54688V12H22.3019V3.54688H23.7472ZM30.2628 12V3.54688H31.7159V12H30.2628ZM41.1169 3.54688V4.74219H36.8434V3.54688H41.1169ZM37.0544 3.54688V12H35.6091V3.54688H37.0544ZM42.3981 3.54688V12H40.945V3.54688H42.3981ZM51.8069 3.54688V4.74219H47.7209V3.54688H51.8069ZM53.0803 3.54688V12H51.635V3.54688H53.0803ZM47.3694 3.54688H48.8225L48.6038 7.625C48.5673 8.25521 48.5074 8.8125 48.4241 9.29688C48.3459 9.77604 48.2366 10.1875 48.0959 10.5312C47.9605 10.875 47.7886 11.1562 47.5803 11.375C47.3772 11.5885 47.1324 11.7474 46.8459 11.8516C46.5595 11.9505 46.2288 12 45.8538 12H45.4006V10.7266L45.7131 10.7031C45.9371 10.6875 46.1272 10.6354 46.2834 10.5469C46.4449 10.4583 46.5803 10.3281 46.6897 10.1562C46.7991 9.97917 46.8876 9.7526 46.9553 9.47656C47.0282 9.20052 47.0829 8.8724 47.1194 8.49219C47.161 8.11198 47.1923 7.66927 47.2131 7.16406L47.3694 3.54688ZM60.3563 12.1562C59.7677 12.1562 59.2339 12.0573 58.7547 11.8594C58.2807 11.6562 57.8719 11.3724 57.5281 11.0078C57.1896 10.6432 56.9292 10.2109 56.7469 9.71094C56.5646 9.21094 56.4734 8.66406 56.4734 8.07031V7.74219C56.4734 7.05469 56.575 6.44271 56.7781 5.90625C56.9813 5.36458 57.2573 4.90625 57.6063 4.53125C57.9552 4.15625 58.351 3.8724 58.7938 3.67969C59.2365 3.48698 59.6948 3.39062 60.1688 3.39062C60.7729 3.39062 61.2938 3.49479 61.7313 3.70312C62.174 3.91146 62.5359 4.20312 62.8172 4.57812C63.0984 4.94792 63.3068 5.38542 63.4422 5.89062C63.5776 6.39062 63.6453 6.9375 63.6453 7.53125V8.17969H57.3328V7H62.2V6.89062C62.1792 6.51562 62.101 6.15104 61.9656 5.79688C61.8354 5.44271 61.6271 5.15104 61.3406 4.92188C61.0542 4.69271 60.6635 4.57812 60.1688 4.57812C59.8406 4.57812 59.5385 4.64844 59.2625 4.78906C58.9865 4.92448 58.7495 5.1276 58.5516 5.39844C58.3536 5.66927 58.2 6 58.0906 6.39062C57.9813 6.78125 57.9266 7.23177 57.9266 7.74219V8.07031C57.9266 8.47135 57.9813 8.84896 58.0906 9.20312C58.2052 9.55208 58.3693 9.85938 58.5828 10.125C58.8016 10.3906 59.0646 10.599 59.3719 10.75C59.6844 10.901 60.0385 10.9766 60.4344 10.9766C60.9448 10.9766 61.3771 10.8724 61.7313 10.6641C62.0854 10.4557 62.3953 10.1771 62.6609 9.82812L63.5359 10.5234C63.3536 10.7995 63.1219 11.0625 62.8406 11.3125C62.5594 11.5625 62.213 11.7656 61.8016 11.9219C61.3953 12.0781 60.9135 12.1562 60.3563 12.1562ZM68.3431 3.54688V12H66.8978V3.54688H68.3431ZM73.89 3.54688L69.8822 8.39062H67.8587L67.64 7.125H69.2962L72.1322 3.54688H73.89ZM72.3353 12L69.2259 8.17188L70.1556 7.125L74.1712 12H72.3353ZM80.1269 10.9688C80.4706 10.9688 80.7883 10.8984 81.08 10.7578C81.3717 10.6172 81.6113 10.4245 81.7988 10.1797C81.9863 9.92969 82.093 9.64583 82.1191 9.32812H83.4941C83.468 9.82812 83.2988 10.2943 82.9863 10.7266C82.679 11.1536 82.2753 11.5 81.7753 11.7656C81.2753 12.026 80.7258 12.1562 80.1269 12.1562C79.4915 12.1562 78.9368 12.0443 78.4628 11.8203C77.9941 11.5964 77.6034 11.2891 77.2909 10.8984C76.9836 10.5078 76.7519 10.0599 76.5956 9.55469C76.4446 9.04427 76.3691 8.50521 76.3691 7.9375V7.60938C76.3691 7.04167 76.4446 6.50521 76.5956 6C76.7519 5.48958 76.9836 5.03906 77.2909 4.64844C77.6034 4.25781 77.9941 3.95052 78.4628 3.72656C78.9368 3.5026 79.4915 3.39062 80.1269 3.39062C80.7883 3.39062 81.3665 3.52604 81.8613 3.79688C82.356 4.0625 82.7441 4.42708 83.0253 4.89062C83.3118 5.34896 83.468 5.86979 83.4941 6.45312H82.1191C82.093 6.10417 81.9941 5.78906 81.8222 5.50781C81.6555 5.22656 81.4264 5.0026 81.1347 4.83594C80.8482 4.66406 80.5123 4.57812 80.1269 4.57812C79.6842 4.57812 79.3118 4.66667 79.0097 4.84375C78.7128 5.01562 78.4758 5.25 78.2988 5.54688C78.1269 5.83854 78.0019 6.16406 77.9238 6.52344C77.8508 6.8776 77.8144 7.23958 77.8144 7.60938V7.9375C77.8144 8.30729 77.8508 8.67188 77.9238 9.03125C77.9967 9.39062 78.1191 9.71615 78.2909 10.0078C78.468 10.2995 78.705 10.5339 79.0019 10.7109C79.304 10.8828 79.679 10.9688 80.1269 10.9688ZM92.2934 7.21094V8.38281H87.8247V7.21094H92.2934ZM88.1294 3.54688V12H86.6841V3.54688H88.1294ZM93.4653 3.54688V12H92.0122V3.54688H93.4653ZM102.218 10.5547V6.20312C102.218 5.86979 102.15 5.58073 102.015 5.33594C101.884 5.08594 101.687 4.89323 101.421 4.75781C101.155 4.6224 100.827 4.55469 100.437 4.55469C100.072 4.55469 99.7517 4.61719 99.4756 4.74219C99.2048 4.86719 98.9912 5.03125 98.835 5.23438C98.684 5.4375 98.6084 5.65625 98.6084 5.89062H97.1631C97.1631 5.58854 97.2412 5.28906 97.3975 4.99219C97.5537 4.69531 97.7777 4.42708 98.0694 4.1875C98.3662 3.94271 98.7204 3.75 99.1319 3.60938C99.5485 3.46354 100.012 3.39062 100.522 3.39062C101.137 3.39062 101.679 3.49479 102.147 3.70312C102.621 3.91146 102.991 4.22656 103.257 4.64844C103.528 5.0651 103.663 5.58854 103.663 6.21875V10.1562C103.663 10.4375 103.687 10.737 103.733 11.0547C103.786 11.3724 103.861 11.6458 103.96 11.875V12H102.452C102.379 11.8333 102.322 11.612 102.28 11.3359C102.239 11.0547 102.218 10.7943 102.218 10.5547ZM102.468 6.875L102.483 7.89062H101.022C100.611 7.89062 100.244 7.92448 99.9209 7.99219C99.598 8.05469 99.3272 8.15104 99.1084 8.28125C98.8897 8.41146 98.723 8.57552 98.6084 8.77344C98.4939 8.96615 98.4366 9.19271 98.4366 9.45312C98.4366 9.71875 98.4965 9.96094 98.6162 10.1797C98.736 10.3984 98.9157 10.5729 99.1553 10.7031C99.4001 10.8281 99.6996 10.8906 100.054 10.8906C100.496 10.8906 100.887 10.7969 101.226 10.6094C101.564 10.4219 101.832 10.1927 102.03 9.92188C102.233 9.65104 102.343 9.38802 102.358 9.13281L102.976 9.82812C102.939 10.0469 102.84 10.2891 102.679 10.5547C102.517 10.8203 102.301 11.0755 102.03 11.3203C101.765 11.5599 101.447 11.7604 101.077 11.9219C100.713 12.0781 100.301 12.1562 99.8428 12.1562C99.2699 12.1562 98.7673 12.0443 98.335 11.8203C97.9079 11.5964 97.5746 11.2969 97.335 10.9219C97.1006 10.5417 96.9834 10.1172 96.9834 9.64844C96.9834 9.19531 97.072 8.79688 97.2491 8.45312C97.4261 8.10417 97.6814 7.8151 98.0147 7.58594C98.348 7.35156 98.7491 7.17448 99.2178 7.05469C99.6866 6.9349 100.21 6.875 100.788 6.875H102.468ZM109.088 7.96875H110.65L108.205 12H106.642L109.088 7.96875ZM110.298 3.54688H113.83V12H112.384V4.71875H110.298C109.887 4.71875 109.551 4.78906 109.291 4.92969C109.03 5.0651 108.84 5.24219 108.72 5.46094C108.601 5.67969 108.541 5.90625 108.541 6.14062C108.541 6.36979 108.595 6.59115 108.705 6.80469C108.814 7.01302 108.986 7.1849 109.22 7.32031C109.455 7.45573 109.757 7.52344 110.127 7.52344H112.775V8.71094H110.127C109.642 8.71094 109.213 8.64583 108.838 8.51562C108.463 8.38542 108.145 8.20573 107.884 7.97656C107.624 7.74219 107.426 7.46875 107.291 7.15625C107.155 6.83854 107.088 6.49479 107.088 6.125C107.088 5.75521 107.158 5.41406 107.298 5.10156C107.444 4.78906 107.653 4.51562 107.923 4.28125C108.199 4.04688 108.535 3.86719 108.931 3.74219C109.332 3.61198 109.788 3.54688 110.298 3.54688ZM1.54688 24.1719V34.25H0.09375V22.5469H1.42188L1.54688 24.1719ZM7.24219 26.7031V26.8672C7.24219 27.4818 7.16927 28.0521 7.02344 28.5781C6.8776 29.099 6.66406 29.5521 6.38281 29.9375C6.10677 30.3229 5.76562 30.6224 5.35938 30.8359C4.95312 31.0495 4.48698 31.1562 3.96094 31.1562C3.42448 31.1562 2.95052 31.0677 2.53906 30.8906C2.1276 30.7135 1.77865 30.4557 1.49219 30.1172C1.20573 29.7786 0.976562 29.3724 0.804688 28.8984C0.638021 28.4245 0.523438 27.8906 0.460938 27.2969V26.4219C0.523438 25.7969 0.640625 25.237 0.8125 24.7422C0.984375 24.2474 1.21094 23.8255 1.49219 23.4766C1.77865 23.1224 2.125 22.8542 2.53125 22.6719C2.9375 22.4844 3.40625 22.3906 3.9375 22.3906C4.46875 22.3906 4.9401 22.4948 5.35156 22.7031C5.76302 22.9062 6.10938 23.1979 6.39062 23.5781C6.67188 23.9583 6.88281 24.4141 7.02344 24.9453C7.16927 25.4714 7.24219 26.0573 7.24219 26.7031ZM5.78906 26.8672V26.7031C5.78906 26.2812 5.74479 25.8854 5.65625 25.5156C5.56771 25.1406 5.42969 24.8125 5.24219 24.5312C5.0599 24.2448 4.82552 24.0208 4.53906 23.8594C4.2526 23.6927 3.91146 23.6094 3.51562 23.6094C3.15104 23.6094 2.83333 23.6719 2.5625 23.7969C2.29688 23.9219 2.07031 24.0911 1.88281 24.3047C1.69531 24.513 1.54167 24.7526 1.42188 25.0234C1.30729 25.2891 1.22135 25.5651 1.16406 25.8516V27.875C1.26823 28.2396 1.41406 28.5833 1.60156 28.9062C1.78906 29.224 2.03906 29.4818 2.35156 29.6797C2.66406 29.8724 3.05729 29.9688 3.53125 29.9688C3.92188 29.9688 4.25781 29.888 4.53906 29.7266C4.82552 29.5599 5.0599 29.3333 5.24219 29.0469C5.42969 28.7604 5.56771 28.4323 5.65625 28.0625C5.74479 27.6875 5.78906 27.2891 5.78906 26.8672ZM15.5103 29.5547V25.2031C15.5103 24.8698 15.4426 24.5807 15.3072 24.3359C15.177 24.0859 14.9791 23.8932 14.7134 23.7578C14.4478 23.6224 14.1197 23.5547 13.7291 23.5547C13.3645 23.5547 13.0442 23.6172 12.7681 23.7422C12.4973 23.8672 12.2838 24.0312 12.1275 24.2344C11.9765 24.4375 11.9009 24.6562 11.9009 24.8906H10.4556C10.4556 24.5885 10.5338 24.2891 10.69 23.9922C10.8463 23.6953 11.0702 23.4271 11.3619 23.1875C11.6588 22.9427 12.0129 22.75 12.4244 22.6094C12.841 22.4635 13.3046 22.3906 13.815 22.3906C14.4296 22.3906 14.9713 22.4948 15.44 22.7031C15.914 22.9115 16.2838 23.2266 16.5494 23.6484C16.8202 24.0651 16.9556 24.5885 16.9556 25.2188V29.1562C16.9556 29.4375 16.9791 29.737 17.0259 30.0547C17.078 30.3724 17.1535 30.6458 17.2525 30.875V31H15.7447C15.6718 30.8333 15.6145 30.612 15.5728 30.3359C15.5311 30.0547 15.5103 29.7943 15.5103 29.5547ZM15.7603 25.875L15.7759 26.8906H14.315C13.9035 26.8906 13.5364 26.9245 13.2134 26.9922C12.8905 27.0547 12.6197 27.151 12.4009 27.2812C12.1822 27.4115 12.0155 27.5755 11.9009 27.7734C11.7864 27.9661 11.7291 28.1927 11.7291 28.4531C11.7291 28.7188 11.789 28.9609 11.9088 29.1797C12.0285 29.3984 12.2082 29.5729 12.4478 29.7031C12.6926 29.8281 12.9921 29.8906 13.3463 29.8906C13.789 29.8906 14.1796 29.7969 14.5181 29.6094C14.8567 29.4219 15.1249 29.1927 15.3228 28.9219C15.5259 28.651 15.6353 28.388 15.6509 28.1328L16.2681 28.8281C16.2317 29.0469 16.1327 29.2891 15.9713 29.5547C15.8098 29.8203 15.5936 30.0755 15.3228 30.3203C15.0572 30.5599 14.7395 30.7604 14.3697 30.9219C14.0051 31.0781 13.5936 31.1562 13.1353 31.1562C12.5624 31.1562 12.0598 31.0443 11.6275 30.8203C11.2004 30.5964 10.8671 30.2969 10.6275 29.9219C10.3931 29.5417 10.2759 29.1172 10.2759 28.6484C10.2759 28.1953 10.3645 27.7969 10.5416 27.4531C10.7186 27.1042 10.9739 26.8151 11.3072 26.5859C11.6405 26.3516 12.0416 26.1745 12.5103 26.0547C12.9791 25.9349 13.5025 25.875 14.0806 25.875H15.7603ZM23.8253 26.9609H22.2706V26.0703H23.7081C24.1092 26.0703 24.4269 26.0208 24.6613 25.9219C24.8956 25.8177 25.0623 25.6745 25.1613 25.4922C25.2602 25.3099 25.3097 25.0964 25.3097 24.8516C25.3097 24.6328 25.2524 24.4271 25.1378 24.2344C25.0284 24.0365 24.8514 23.8776 24.6066 23.7578C24.3618 23.6328 24.0336 23.5703 23.6222 23.5703C23.2889 23.5703 22.9868 23.6302 22.7159 23.75C22.4451 23.8646 22.229 24.0234 22.0675 24.2266C21.9113 24.4245 21.8331 24.6484 21.8331 24.8984H20.3878C20.3878 24.3828 20.5336 23.9401 20.8253 23.5703C21.1222 23.1953 21.5154 22.9062 22.005 22.7031C22.4998 22.5 23.0389 22.3984 23.6222 22.3984C24.1118 22.3984 24.5493 22.4531 24.9347 22.5625C25.3253 22.6667 25.656 22.8229 25.9269 23.0312C26.1977 23.2344 26.4034 23.4896 26.5441 23.7969C26.6899 24.099 26.7628 24.4505 26.7628 24.8516C26.7628 25.138 26.6951 25.4089 26.5597 25.6641C26.4243 25.9193 26.229 26.1458 25.9738 26.3438C25.7185 26.5365 25.4086 26.6875 25.0441 26.7969C24.6847 26.9062 24.2784 26.9609 23.8253 26.9609ZM22.2706 26.4141H23.8253C24.3305 26.4141 24.7758 26.4635 25.1613 26.5625C25.5467 26.6562 25.8696 26.7969 26.13 26.9844C26.3904 27.1719 26.5857 27.4036 26.7159 27.6797C26.8514 27.9505 26.9191 28.263 26.9191 28.6172C26.9191 29.013 26.8383 29.3698 26.6769 29.6875C26.5206 30 26.2967 30.2656 26.005 30.4844C25.7133 30.7031 25.3644 30.8698 24.9581 30.9844C24.5571 31.099 24.1118 31.1562 23.6222 31.1562C23.0753 31.1562 22.5441 31.0625 22.0284 30.875C21.5128 30.6875 21.0883 30.3984 20.755 30.0078C20.4217 29.612 20.255 29.1094 20.255 28.5H21.7003C21.7003 28.7552 21.781 28.9974 21.9425 29.2266C22.104 29.4557 22.3279 29.6406 22.6144 29.7812C22.906 29.9219 23.242 29.9922 23.6222 29.9922C24.0284 29.9922 24.367 29.9297 24.6378 29.8047C24.9086 29.6797 25.1118 29.513 25.2472 29.3047C25.3878 29.0964 25.4581 28.8698 25.4581 28.625C25.4581 28.3073 25.3956 28.0521 25.2706 27.8594C25.1456 27.6667 24.9529 27.526 24.6925 27.4375C24.4373 27.3438 24.1092 27.2969 23.7081 27.2969H22.2706V26.4141ZM31.6794 24.1719V34.25H30.2262V22.5469H31.5544L31.6794 24.1719ZM37.3747 26.7031V26.8672C37.3747 27.4818 37.3018 28.0521 37.1559 28.5781C37.0101 29.099 36.7966 29.5521 36.5153 29.9375C36.2393 30.3229 35.8981 30.6224 35.4919 30.8359C35.0856 31.0495 34.6195 31.1562 34.0934 31.1562C33.557 31.1562 33.083 31.0677 32.6716 30.8906C32.2601 30.7135 31.9111 30.4557 31.6247 30.1172C31.3382 29.7786 31.1091 29.3724 30.9372 28.8984C30.7705 28.4245 30.6559 27.8906 30.5934 27.2969V26.4219C30.6559 25.7969 30.7731 25.237 30.945 24.7422C31.1169 24.2474 31.3434 23.8255 31.6247 23.4766C31.9111 23.1224 32.2575 22.8542 32.6637 22.6719C33.07 22.4844 33.5387 22.3906 34.07 22.3906C34.6012 22.3906 35.0726 22.4948 35.4841 22.7031C35.8955 22.9062 36.2419 23.1979 36.5231 23.5781C36.8044 23.9583 37.0153 24.4141 37.1559 24.9453C37.3018 25.4714 37.3747 26.0573 37.3747 26.7031ZM35.9216 26.8672V26.7031C35.9216 26.2812 35.8773 25.8854 35.7887 25.5156C35.7002 25.1406 35.5622 24.8125 35.3747 24.5312C35.1924 24.2448 34.958 24.0208 34.6716 23.8594C34.3851 23.6927 34.044 23.6094 33.6481 23.6094C33.2835 23.6094 32.9658 23.6719 32.695 23.7969C32.4294 23.9219 32.2028 24.0911 32.0153 24.3047C31.8278 24.513 31.6742 24.7526 31.5544 25.0234C31.4398 25.2891 31.3539 25.5651 31.2966 25.8516V27.875C31.4007 28.2396 31.5466 28.5833 31.7341 28.9062C31.9216 29.224 32.1716 29.4818 32.4841 29.6797C32.7966 29.8724 33.1898 29.9688 33.6637 29.9688C34.0544 29.9688 34.3903 29.888 34.6716 29.7266C34.958 29.5599 35.1924 29.3333 35.3747 29.0469C35.5622 28.7604 35.7002 28.4323 35.7887 28.0625C35.8773 27.6875 35.9216 27.2891 35.9216 26.8672ZM45.6428 29.5547V25.2031C45.6428 24.8698 45.5751 24.5807 45.4397 24.3359C45.3095 24.0859 45.1116 23.8932 44.8459 23.7578C44.5803 23.6224 44.2522 23.5547 43.8616 23.5547C43.497 23.5547 43.1767 23.6172 42.9006 23.7422C42.6298 23.8672 42.4163 24.0312 42.26 24.2344C42.109 24.4375 42.0334 24.6562 42.0334 24.8906H40.5881C40.5881 24.5885 40.6663 24.2891 40.8225 23.9922C40.9788 23.6953 41.2027 23.4271 41.4944 23.1875C41.7913 22.9427 42.1454 22.75 42.5569 22.6094C42.9735 22.4635 43.4371 22.3906 43.9475 22.3906C44.5621 22.3906 45.1038 22.4948 45.5725 22.7031C46.0465 22.9115 46.4163 23.2266 46.6819 23.6484C46.9527 24.0651 47.0881 24.5885 47.0881 25.2188V29.1562C47.0881 29.4375 47.1116 29.737 47.1584 30.0547C47.2105 30.3724 47.286 30.6458 47.385 30.875V31H45.8772C45.8043 30.8333 45.747 30.612 45.7053 30.3359C45.6636 30.0547 45.6428 29.7943 45.6428 29.5547ZM45.8928 25.875L45.9084 26.8906H44.4475C44.036 26.8906 43.6689 26.9245 43.3459 26.9922C43.023 27.0547 42.7522 27.151 42.5334 27.2812C42.3147 27.4115 42.148 27.5755 42.0334 27.7734C41.9189 27.9661 41.8616 28.1927 41.8616 28.4531C41.8616 28.7188 41.9215 28.9609 42.0413 29.1797C42.161 29.3984 42.3407 29.5729 42.5803 29.7031C42.8251 29.8281 43.1246 29.8906 43.4788 29.8906C43.9215 29.8906 44.3121 29.7969 44.6506 29.6094C44.9892 29.4219 45.2574 29.1927 45.4553 28.9219C45.6584 28.651 45.7678 28.388 45.7834 28.1328L46.4006 28.8281C46.3642 29.0469 46.2652 29.2891 46.1038 29.5547C45.9423 29.8203 45.7261 30.0755 45.4553 30.3203C45.1897 30.5599 44.872 30.7604 44.5022 30.9219C44.1376 31.0781 43.7261 31.1562 43.2678 31.1562C42.6949 31.1562 42.1923 31.0443 41.76 30.8203C41.3329 30.5964 40.9996 30.2969 40.76 29.9219C40.5256 29.5417 40.4084 29.1172 40.4084 28.6484C40.4084 28.1953 40.497 27.7969 40.6741 27.4531C40.8511 27.1042 41.1064 26.8151 41.4397 26.5859C41.773 26.3516 42.1741 26.1745 42.6428 26.0547C43.1116 25.9349 43.635 25.875 44.2131 25.875H45.8928ZM56.2234 18.8672H57.4109C57.4109 19.3776 57.3328 19.7839 57.1766 20.0859C57.0203 20.3828 56.8068 20.612 56.5359 20.7734C56.2703 20.9349 55.9682 21.0573 55.6297 21.1406C55.2964 21.224 54.95 21.3047 54.5906 21.3828C54.1427 21.4766 53.726 21.625 53.3406 21.8281C52.9604 22.026 52.6323 22.3073 52.3563 22.6719C52.0854 23.0365 51.8849 23.5104 51.7547 24.0938C51.6297 24.6771 51.5958 25.3984 51.6531 26.2578V26.9766H50.4656V26.2578C50.4656 25.2943 50.5568 24.4531 50.7391 23.7344C50.9266 23.0156 51.1896 22.4089 51.5281 21.9141C51.8667 21.4193 52.2677 21.026 52.7313 20.7344C53.2 20.4427 53.7156 20.2422 54.2781 20.1328C54.6844 20.0547 55.0333 19.9714 55.325 19.8828C55.6167 19.7891 55.838 19.6641 55.9891 19.5078C56.1453 19.3516 56.2234 19.138 56.2234 18.8672ZM54.5125 23.0312C55.0646 23.0312 55.5568 23.1276 55.9891 23.3203C56.4214 23.513 56.7885 23.7812 57.0906 24.125C57.3927 24.4688 57.6219 24.875 57.7781 25.3438C57.9396 25.8073 58.0203 26.3125 58.0203 26.8594V27.0312C58.0203 27.6198 57.9344 28.1667 57.7625 28.6719C57.5958 29.1719 57.3484 29.6094 57.0203 29.9844C56.6974 30.3542 56.3016 30.6432 55.8328 30.8516C55.3693 31.0599 54.8406 31.1641 54.2469 31.1641C53.6531 31.1641 53.1219 31.0599 52.6531 30.8516C52.1896 30.6432 51.7938 30.3542 51.4656 29.9844C51.1375 29.6094 50.8875 29.1719 50.7156 28.6719C50.549 28.1667 50.4656 27.6198 50.4656 27.0312V26.8594C50.4656 26.7292 50.4891 26.6016 50.5359 26.4766C50.5828 26.3516 50.6401 26.224 50.7078 26.0938C50.7807 25.9635 50.8458 25.8255 50.9031 25.6797C51.0958 25.2109 51.3589 24.776 51.6922 24.375C52.0307 23.974 52.4344 23.651 52.9031 23.4062C53.3771 23.1562 53.9135 23.0312 54.5125 23.0312ZM54.2313 24.2109C53.7 24.2109 53.2625 24.3333 52.9188 24.5781C52.5802 24.8229 52.3276 25.1484 52.1609 25.5547C51.9943 25.9557 51.9109 26.3906 51.9109 26.8594V27.0312C51.9109 27.4271 51.9578 27.8021 52.0516 28.1562C52.1453 28.5104 52.2859 28.8255 52.4734 29.1016C52.6661 29.3724 52.9083 29.5859 53.2 29.7422C53.4969 29.8984 53.8458 29.9766 54.2469 29.9766C54.6479 29.9766 54.9943 29.8984 55.2859 29.7422C55.5776 29.5859 55.8172 29.3724 56.0047 29.1016C56.1922 28.8255 56.3328 28.5104 56.4266 28.1562C56.5203 27.8021 56.5672 27.4271 56.5672 27.0312V26.8594C56.5672 26.5052 56.5203 26.1693 56.4266 25.8516C56.3328 25.5339 56.1896 25.2526 55.9969 25.0078C55.8094 24.763 55.5672 24.5703 55.2703 24.4297C54.9786 24.2839 54.6323 24.2109 54.2313 24.2109ZM60.7181 26.8672V26.6875C60.7181 26.0781 60.8067 25.513 60.9837 24.9922C61.1608 24.4661 61.416 24.0104 61.7494 23.625C62.0827 23.2344 62.4864 22.9323 62.9603 22.7188C63.4343 22.5 63.9655 22.3906 64.5541 22.3906C65.1478 22.3906 65.6817 22.5 66.1556 22.7188C66.6348 22.9323 67.041 23.2344 67.3744 23.625C67.7129 24.0104 67.9707 24.4661 68.1478 24.9922C68.3249 25.513 68.4134 26.0781 68.4134 26.6875V26.8672C68.4134 27.4766 68.3249 28.0417 68.1478 28.5625C67.9707 29.0833 67.7129 29.5391 67.3744 29.9297C67.041 30.3151 66.6374 30.6172 66.1634 30.8359C65.6947 31.0495 65.1634 31.1562 64.5697 31.1562C63.9759 31.1562 63.4421 31.0495 62.9681 30.8359C62.4942 30.6172 62.0879 30.3151 61.7494 29.9297C61.416 29.5391 61.1608 29.0833 60.9837 28.5625C60.8067 28.0417 60.7181 27.4766 60.7181 26.8672ZM62.1634 26.6875V26.8672C62.1634 27.2891 62.2129 27.6875 62.3119 28.0625C62.4108 28.4323 62.5593 28.7604 62.7572 29.0469C62.9603 29.3333 63.2129 29.5599 63.515 29.7266C63.8171 29.888 64.1686 29.9688 64.5697 29.9688C64.9655 29.9688 65.3119 29.888 65.6087 29.7266C65.9108 29.5599 66.1608 29.3333 66.3587 29.0469C66.5567 28.7604 66.7051 28.4323 66.8041 28.0625C66.9082 27.6875 66.9603 27.2891 66.9603 26.8672V26.6875C66.9603 26.2708 66.9082 25.8776 66.8041 25.5078C66.7051 25.1328 66.5541 24.8021 66.3509 24.5156C66.153 24.224 65.903 23.9948 65.6009 23.8281C65.3041 23.6615 64.9551 23.5781 64.5541 23.5781C64.1582 23.5781 63.8093 23.6615 63.5072 23.8281C63.2103 23.9948 62.9603 24.224 62.7572 24.5156C62.5593 24.8021 62.4108 25.1328 62.3119 25.5078C62.2129 25.8776 62.1634 26.2708 62.1634 26.6875ZM74.9394 22.5469V31H73.4863V22.5469H74.9394ZM77.7753 22.5469V23.7188H70.705V22.5469H77.7753ZM82.2075 22.5469V31H80.7622V22.5469H82.2075ZM87.7544 22.5469L83.7466 27.3906H81.7231L81.5044 26.125H83.1606L85.9966 22.5469H87.7544ZM86.1997 31L83.0903 27.1719L84.02 26.125L88.0356 31H86.1997ZM95.7178 29.5547V25.2031C95.7178 24.8698 95.6501 24.5807 95.5147 24.3359C95.3845 24.0859 95.1866 23.8932 94.9209 23.7578C94.6553 23.6224 94.3272 23.5547 93.9366 23.5547C93.572 23.5547 93.2517 23.6172 92.9756 23.7422C92.7048 23.8672 92.4912 24.0312 92.335 24.2344C92.184 24.4375 92.1084 24.6562 92.1084 24.8906H90.6631C90.6631 24.5885 90.7412 24.2891 90.8975 23.9922C91.0537 23.6953 91.2777 23.4271 91.5694 23.1875C91.8662 22.9427 92.2204 22.75 92.6319 22.6094C93.0485 22.4635 93.5121 22.3906 94.0225 22.3906C94.6371 22.3906 95.1787 22.4948 95.6475 22.7031C96.1215 22.9115 96.4912 23.2266 96.7569 23.6484C97.0277 24.0651 97.1631 24.5885 97.1631 25.2188V29.1562C97.1631 29.4375 97.1866 29.737 97.2334 30.0547C97.2855 30.3724 97.361 30.6458 97.46 30.875V31H95.9522C95.8793 30.8333 95.822 30.612 95.7803 30.3359C95.7386 30.0547 95.7178 29.7943 95.7178 29.5547ZM95.9678 25.875L95.9834 26.8906H94.5225C94.111 26.8906 93.7439 26.9245 93.4209 26.9922C93.098 27.0547 92.8272 27.151 92.6084 27.2812C92.3897 27.4115 92.223 27.5755 92.1084 27.7734C91.9939 27.9661 91.9366 28.1927 91.9366 28.4531C91.9366 28.7188 91.9965 28.9609 92.1162 29.1797C92.236 29.3984 92.4157 29.5729 92.6553 29.7031C92.9001 29.8281 93.1996 29.8906 93.5537 29.8906C93.9965 29.8906 94.3871 29.7969 94.7256 29.6094C95.0642 29.4219 95.3324 29.1927 95.5303 28.9219C95.7334 28.651 95.8428 28.388 95.8584 28.1328L96.4756 28.8281C96.4392 29.0469 96.3402 29.2891 96.1787 29.5547C96.0173 29.8203 95.8011 30.0755 95.5303 30.3203C95.2647 30.5599 94.947 30.7604 94.5772 30.9219C94.2126 31.0781 93.8011 31.1562 93.3428 31.1562C92.7699 31.1562 92.2673 31.0443 91.835 30.8203C91.4079 30.5964 91.0746 30.2969 90.835 29.9219C90.6006 29.5417 90.4834 29.1172 90.4834 28.6484C90.4834 28.1953 90.572 27.7969 90.7491 27.4531C90.9261 27.1042 91.1814 26.8151 91.5147 26.5859C91.848 26.3516 92.2491 26.1745 92.7178 26.0547C93.1866 25.9349 93.71 25.875 94.2881 25.875H95.9678Z" fill="#9C9C9C"/>
</svg>
