<svg width="127" height="180" viewBox="0 0 127 180" fill="none" xmlns="http://www.w3.org/2000/svg">
<path d="M26.6667 75.8812C11.9184 75.8812 0 64.0907 0 49.5419C0 40.1852 4.95239 31.9643 12.4626 27.2588C13.9864 26.3393 18.3945 22.0125 18.3401 14.3325C18.3401 12.3855 18.6667 10.6547 18.0136 8.86993C17.3061 7.08513 15.6227 6.97696 15.4049 4.43497C15.1328 0.64902 18.3473 0.10817 19.7623 0C19.8711 0 25.5783 0 26.9932 0C28.4625 0 33.8432 0 33.8976 0C35.8024 0.0540849 38.6359 0.324509 38.2549 4.11045C37.9828 6.59837 36.5171 7.19331 35.7007 8.86993C35.0476 10.2761 35.3741 12.4936 35.3197 14.3325C35.1564 21.4717 39.4013 26.3393 40.8708 27.2588C48.3265 31.9101 53.3333 40.1852 53.3333 49.5419C53.3333 64.0907 41.4149 75.8812 26.6667 75.8812ZM23.5556 5.35632C22.3111 5.35632 21.3333 6.33832 21.3333 7.58812C21.3333 8.83793 22.3111 9.81992 23.5556 9.81992C24.8 9.81992 25.7777 8.83793 25.7777 7.58812C25.7777 6.33832 24.7111 5.35632 23.5556 5.35632ZM29.3333 16.0689C27.3641 16.0689 25.7777 17.6621 25.7777 19.6399C25.7777 21.6176 27.3641 23.2107 29.3333 23.2107C31.3025 23.2107 32.8889 21.6176 32.8889 19.6399C32.8889 17.6621 31.3025 16.0689 29.3333 16.0689ZM44.3801 36.2328C42.7493 36.1783 41.7708 35.9603 40.6293 36.2328C30.8988 38.414 27.2023 34.1608 24.4843 32.5795C20.2441 30.1257 15.5148 29.5804 12.6881 31.5435C7.08897 35.524 3.55556 41.304 3.55556 50.0285C3.55556 62.8427 13.884 73.2031 26.6587 73.2031C39.4333 73.2031 50.2511 62.7881 49.7619 50.0285C49.49 42.2309 47.4787 37.6505 44.3801 36.2328Z" fill="#11E2C7"/>
<path fill-rule="evenodd" clip-rule="evenodd" d="M10.296 124.979L3.98667 105.669C4.264 107.715 4.81867 111.701 4.81867 115.931V124.979H0V100.955H7.10667L13.208 120.195C12.8613 117.976 12.376 114.475 12.376 110.141V100.955H17.1947V124.979H10.296ZM27.04 117.387C27.4213 120.403 29.12 121.581 31.4773 121.581C33.1413 121.581 34.736 120.992 36.192 120.056L38.376 123.037C36.6427 124.528 34.1467 125.568 31.0267 125.568C24.7173 125.568 21.4587 121.512 21.4587 115.792C21.4587 110.349 24.648 105.947 30.4373 105.947C35.7067 105.947 39.0693 109.483 39.0693 115.411C39.0693 116.035 39.0347 116.832 38.9653 117.387H27.04ZM30.4373 109.621C28.496 109.621 27.2133 111.008 26.9707 114.059H33.7307C33.696 111.389 32.76 109.621 30.4373 109.621ZM60.528 123.904C59.072 124.84 57.0267 125.568 54.496 125.568C49.6773 125.568 47.3893 122.933 47.3893 118.704V110.349H43.5413V106.571H47.3893V102.584L52.8667 101.925V106.571H58.7947L58.24 110.349H52.8667V118.704C52.8667 120.541 53.664 121.235 55.5013 121.235C56.784 121.235 57.8587 120.888 58.7253 120.403L60.528 123.904ZM66.4213 124.979V100.955H72.1067V120.472H82.5067L81.952 124.979H66.4213ZM102.787 119.675C102.787 121.061 103.133 121.581 104 121.893L102.856 125.499C100.707 125.291 99.216 124.597 98.3493 123.072C96.928 124.771 94.6053 125.568 92.3173 125.568C88.504 125.568 86.0773 123.176 86.0773 119.779C86.0773 115.792 89.3707 113.504 95.056 113.504H97.5173V112.845C97.5173 110.904 96.2347 110.003 93.8773 110.003C92.6987 110.003 90.6533 110.349 88.816 110.973L87.568 107.333C89.96 106.432 92.6987 105.947 94.744 105.947C100.221 105.947 102.787 108.235 102.787 112.464V119.675ZM94.1893 121.651C95.368 121.651 96.824 120.923 97.5173 119.64V116.624H96.1653C93.1147 116.624 91.728 117.595 91.728 119.397C91.728 120.819 92.6293 121.651 94.1893 121.651ZM114.435 108.443C115.579 106.917 117.277 105.947 119.149 105.947C123.864 105.947 125.944 109.725 125.944 115.723C125.944 121.408 123.344 125.568 118.56 125.568C116.723 125.568 115.093 124.771 114.019 123.315L113.811 124.979H108.957V99.256L114.435 98.6667V108.443ZM117.139 121.581C119.08 121.581 120.293 119.952 120.293 115.792C120.293 111.216 119.149 110.003 117.416 110.003C116.168 110.003 115.232 110.8 114.435 112.152V119.917C115.128 120.992 115.96 121.581 117.139 121.581Z" fill="white"/>
<path opacity="0.6" fill-rule="evenodd" clip-rule="evenodd" d="M2.04 143.023H1.08V146.935H0.0479991V138.667H1.08V142.147H2.052L4.596 138.667H5.724L2.94 142.567L5.952 146.935H4.692L2.04 143.023ZM10.92 140.479C12.696 140.479 13.632 141.775 13.632 143.767C13.632 145.711 12.672 147.067 10.908 147.067C9.132 147.067 8.184 145.771 8.184 143.779C8.184 141.835 9.144 140.479 10.92 140.479ZM10.92 141.307C9.828 141.307 9.276 142.099 9.276 143.779C9.276 145.459 9.816 146.239 10.908 146.239C12 146.239 12.54 145.459 12.54 143.767C12.54 142.099 12 141.307 10.92 141.307ZM21.936 140.611L22.404 146.935H21.432L21.192 143.851C21.144 143.167 21.108 142.471 21.132 141.619H21.084L19.824 145.879H18.828L17.436 141.619H17.388C17.412 142.315 17.388 143.155 17.352 143.827L17.172 146.935H16.212L16.668 140.611H17.988L19.344 144.931L20.592 140.611H21.936ZM29.1 146.935V141.439H26.316V146.935H25.308V140.611H30.108V146.935H29.1ZM38.628 140.611V146.935H37.62V141.463H35.256L35.112 143.131C34.884 145.939 34.548 146.443 33.444 147.067L33.012 146.419C33.6 146.059 33.96 145.711 34.152 143.167L34.344 140.611H38.628ZM42.912 144.127C42.96 145.591 43.776 146.227 44.748 146.227C45.396 146.227 45.876 146.035 46.44 145.663L46.908 146.335C46.32 146.791 45.528 147.067 44.748 147.067C42.9 147.067 41.856 145.747 41.856 143.779C41.856 141.871 42.924 140.479 44.604 140.479C46.2 140.479 47.184 141.667 47.184 143.587C47.184 143.803 47.172 143.995 47.16 144.127H42.912ZM44.616 141.307C43.68 141.307 42.996 141.967 42.912 143.359H46.2C46.176 142.003 45.576 141.307 44.616 141.307ZM50.58 146.935V140.611H51.588V143.179H52.848L54.672 140.611H55.812L53.676 143.539L56.136 146.935H54.912L52.824 143.995H51.588V146.935H50.58ZM61.776 146.203C62.412 146.203 62.94 145.975 63.42 145.651L63.9 146.311C63.36 146.779 62.508 147.067 61.776 147.067C59.88 147.067 58.8 145.783 58.8 143.803C58.8 141.907 59.892 140.479 61.776 140.479C62.592 140.479 63.3 140.731 63.888 141.223L63.396 141.883C62.856 141.523 62.328 141.331 61.764 141.331C60.672 141.331 59.892 142.135 59.892 143.803C59.892 145.495 60.684 146.203 61.776 146.203ZM71.1 146.935V144.127H68.316V146.935H67.308V140.611H68.316V143.299H71.1V140.611H72.108V146.935H71.1ZM80.244 145.555C80.244 146.059 80.4 146.251 80.76 146.359L80.508 147.079C79.968 147.007 79.524 146.755 79.356 146.179C78.9 146.767 78.192 147.067 77.376 147.067C76.104 147.067 75.336 146.299 75.336 145.123C75.336 143.827 76.38 143.095 78.288 143.095H79.224V142.579C79.224 141.655 78.66 141.319 77.724 141.319C77.304 141.319 76.728 141.415 76.08 141.643L75.804 140.875C76.584 140.599 77.256 140.479 77.88 140.479C79.452 140.479 80.244 141.271 80.244 142.519V145.555ZM77.628 146.311C78.252 146.311 78.852 145.975 79.224 145.411V143.791H78.312C76.92 143.791 76.416 144.295 76.416 145.111C76.416 145.903 76.8 146.311 77.628 146.311ZM86.424 140.611H88.74V146.935H87.732V144.487H86.028L84.684 146.935H83.544L85.044 144.259C84.288 143.899 83.928 143.323 83.928 142.531C83.928 141.259 84.864 140.611 86.424 140.611ZM86.364 143.683H87.732V141.427H86.4C85.476 141.427 84.996 141.751 84.996 142.531C84.996 143.347 85.392 143.683 86.364 143.683ZM2.94 155.145C4.62 155.145 5.232 156.453 5.232 158.433C5.232 160.353 4.44 161.733 2.796 161.733C2.1 161.733 1.548 161.493 1.116 161.013V164.025L0.108002 164.145V155.277H0.972L1.056 156.165C1.512 155.517 2.184 155.145 2.94 155.145ZM2.7 155.961C2.004 155.961 1.464 156.465 1.116 156.969V160.101C1.452 160.593 1.968 160.893 2.568 160.893C3.612 160.893 4.14 160.113 4.14 158.433C4.14 156.789 3.696 155.961 2.7 155.961ZM13.044 160.221C13.044 160.725 13.2 160.917 13.56 161.025L13.308 161.745C12.768 161.673 12.324 161.421 12.156 160.845C11.7 161.433 10.992 161.733 10.176 161.733C8.904 161.733 8.136 160.965 8.136 159.789C8.136 158.493 9.18 157.761 11.088 157.761H12.024V157.245C12.024 156.321 11.46 155.985 10.524 155.985C10.104 155.985 9.528 156.081 8.88 156.309L8.604 155.541C9.384 155.265 10.056 155.145 10.68 155.145C12.252 155.145 13.044 155.937 13.044 157.185V160.221ZM10.428 160.977C11.052 160.977 11.652 160.641 12.024 160.077V158.457H11.112C9.72 158.457 9.216 158.961 9.216 159.777C9.216 160.569 9.6 160.977 10.428 160.977ZM18 157.893H19.14C19.992 157.893 20.508 157.509 20.508 156.933C20.508 156.261 19.968 155.961 19.02 155.961C18.384 155.961 17.652 156.153 17.064 156.513L16.584 155.913C17.22 155.433 18.168 155.145 19.056 155.145C20.436 155.145 21.564 155.721 21.564 156.873C21.564 157.581 21.024 158.013 20.28 158.229C21.012 158.241 21.912 158.769 21.912 159.717C21.912 161.049 20.688 161.733 19.044 161.733C17.796 161.733 16.944 161.337 16.356 160.857L16.836 160.209C17.424 160.629 18.12 160.905 19.08 160.905C20.232 160.905 20.82 160.449 20.82 159.741C20.82 159.045 20.256 158.709 19.212 158.709H17.94L18 157.893ZM28.14 155.145C29.82 155.145 30.432 156.453 30.432 158.433C30.432 160.353 29.64 161.733 27.996 161.733C27.3 161.733 26.748 161.493 26.316 161.013V164.025L25.308 164.145V155.277H26.172L26.256 156.165C26.712 155.517 27.384 155.145 28.14 155.145ZM27.9 155.961C27.204 155.961 26.664 156.465 26.316 156.969V160.101C26.652 160.593 27.168 160.893 27.768 160.893C28.812 160.893 29.34 160.113 29.34 158.433C29.34 156.789 28.896 155.961 27.9 155.961ZM38.244 160.221C38.244 160.725 38.4 160.917 38.76 161.025L38.508 161.745C37.968 161.673 37.524 161.421 37.356 160.845C36.9 161.433 36.192 161.733 35.376 161.733C34.104 161.733 33.336 160.965 33.336 159.789C33.336 158.493 34.38 157.761 36.288 157.761H37.224V157.245C37.224 156.321 36.66 155.985 35.724 155.985C35.304 155.985 34.728 156.081 34.08 156.309L33.804 155.541C34.584 155.265 35.256 155.145 35.88 155.145C37.452 155.145 38.244 155.937 38.244 157.185V160.221ZM35.628 160.977C36.252 160.977 36.852 160.641 37.224 160.077V158.457H36.312C34.92 158.457 34.416 158.961 34.416 159.777C34.416 160.569 34.8 160.977 35.628 160.977ZM44.892 155.697C46.272 155.697 47.196 156.789 47.196 158.577C47.196 160.617 46.08 161.733 44.496 161.733C42.984 161.733 41.808 160.653 41.808 158.133C41.808 155.505 42.288 154.161 44.124 153.525C45.048 153.189 45.504 153.009 46.104 152.601L46.536 153.381C46.116 153.645 45.564 153.945 44.628 154.293C43.596 154.665 43.056 155.109 42.888 156.873C43.296 156.165 44.004 155.697 44.892 155.697ZM44.496 160.905C45.372 160.905 46.092 160.449 46.092 158.613C46.092 157.077 45.54 156.525 44.736 156.525C44.064 156.525 43.356 156.873 42.912 157.773V158.541C42.912 160.065 43.524 160.905 44.496 160.905ZM52.92 155.145C54.696 155.145 55.632 156.441 55.632 158.433C55.632 160.377 54.672 161.733 52.908 161.733C51.132 161.733 50.184 160.437 50.184 158.445C50.184 156.501 51.144 155.145 52.92 155.145ZM52.92 155.973C51.828 155.973 51.276 156.765 51.276 158.445C51.276 160.125 51.816 160.905 52.908 160.905C54 160.905 54.54 160.125 54.54 158.433C54.54 156.765 54 155.973 52.92 155.973ZM64.2 155.277L64.068 156.117H61.812V161.601H60.804V156.117H58.488V155.277H64.2ZM67.38 161.601V155.277H68.388V157.845H69.648L71.472 155.277H72.612L70.476 158.205L72.936 161.601H71.712L69.624 158.661H68.388V161.601H67.38ZM80.244 160.221C80.244 160.725 80.4 160.917 80.76 161.025L80.508 161.745C79.968 161.673 79.524 161.421 79.356 160.845C78.9 161.433 78.192 161.733 77.376 161.733C76.104 161.733 75.336 160.965 75.336 159.789C75.336 158.493 76.38 157.761 78.288 157.761H79.224V157.245C79.224 156.321 78.66 155.985 77.724 155.985C77.304 155.985 76.728 156.081 76.08 156.309L75.804 155.541C76.584 155.265 77.256 155.145 77.88 155.145C79.452 155.145 80.244 155.937 80.244 157.185V160.221ZM77.628 160.977C78.252 160.977 78.852 160.641 79.224 160.077V158.457H78.312C76.92 158.457 76.416 158.961 76.416 159.777C76.416 160.569 76.8 160.977 77.628 160.977ZM2.976 175.536C3.612 175.536 4.14 175.308 4.62 174.984L5.1 175.644C4.56 176.112 3.708 176.4 2.976 176.4C1.08 176.4 0 175.116 0 173.136C0 171.24 1.092 169.812 2.976 169.812C3.792 169.812 4.5 170.064 5.088 170.556L4.596 171.216C4.056 170.856 3.528 170.664 2.964 170.664C1.872 170.664 1.092 171.468 1.092 173.136C1.092 174.828 1.884 175.536 2.976 175.536ZM9.312 173.46C9.36 174.924 10.176 175.56 11.148 175.56C11.796 175.56 12.276 175.368 12.84 174.996L13.308 175.668C12.72 176.124 11.928 176.4 11.148 176.4C9.3 176.4 8.256 175.08 8.256 173.112C8.256 171.204 9.324 169.812 11.004 169.812C12.6 169.812 13.584 171 13.584 172.92C13.584 173.136 13.572 173.328 13.56 173.46H9.312ZM11.016 170.64C10.08 170.64 9.396 171.3 9.312 172.692H12.6C12.576 171.336 11.976 170.64 11.016 170.64ZM19.74 169.812C21.42 169.812 22.032 171.12 22.032 173.1C22.032 175.02 21.24 176.4 19.596 176.4C18.9 176.4 18.348 176.16 17.916 175.68V178.692L16.908 178.812V169.944H17.772L17.856 170.832C18.312 170.184 18.984 169.812 19.74 169.812ZM19.5 170.628C18.804 170.628 18.264 171.132 17.916 171.636V174.768C18.252 175.26 18.768 175.56 19.368 175.56C20.412 175.56 20.94 174.78 20.94 173.1C20.94 171.456 20.496 170.628 19.5 170.628ZM28.884 172.848C29.976 172.944 30.492 173.448 30.492 174.396C30.492 175.716 29.208 176.268 27.792 176.268H25.452V170.04C26.1 169.908 26.832 169.812 27.588 169.812C29.172 169.812 30.168 170.4 30.168 171.468C30.168 172.116 29.868 172.596 28.884 172.848ZM27.612 170.628C27.132 170.628 26.832 170.652 26.46 170.7V172.524H27.756C28.584 172.524 29.124 172.296 29.124 171.552C29.124 170.88 28.632 170.628 27.612 170.628ZM27.6 175.452C28.44 175.452 29.424 175.392 29.424 174.408C29.424 173.484 28.584 173.328 27.828 173.328H26.46V175.452H27.6ZM38.508 169.944V176.268H37.5V173.316C37.5 172.188 37.608 171.228 37.608 171.144L34.944 176.268H33.708V169.944H34.716V172.908C34.716 173.892 34.62 174.948 34.62 175.032L37.248 169.944H38.508ZM44.976 175.536C45.612 175.536 46.14 175.308 46.62 174.984L47.1 175.644C46.56 176.112 45.708 176.4 44.976 176.4C43.08 176.4 42 175.116 42 173.136C42 171.24 43.092 169.812 44.976 169.812C45.792 169.812 46.5 170.064 47.088 170.556L46.596 171.216C46.056 170.856 45.528 170.664 44.964 170.664C43.872 170.664 43.092 171.468 43.092 173.136C43.092 174.828 43.884 175.536 44.976 175.536ZM52.92 169.812C54.696 169.812 55.632 171.108 55.632 173.1C55.632 175.044 54.672 176.4 52.908 176.4C51.132 176.4 50.184 175.104 50.184 173.112C50.184 171.168 51.144 169.812 52.92 169.812ZM52.92 170.64C51.828 170.64 51.276 171.432 51.276 173.112C51.276 174.792 51.816 175.572 52.908 175.572C54 175.572 54.54 174.792 54.54 173.1C54.54 171.432 54 170.64 52.92 170.64ZM62.484 172.848C63.576 172.944 64.092 173.448 64.092 174.396C64.092 175.716 62.808 176.268 61.392 176.268H59.052V170.04C59.7 169.908 60.432 169.812 61.188 169.812C62.772 169.812 63.768 170.4 63.768 171.468C63.768 172.116 63.468 172.596 62.484 172.848ZM61.212 170.628C60.732 170.628 60.432 170.652 60.06 170.7V172.524H61.356C62.184 172.524 62.724 172.296 62.724 171.552C62.724 170.88 62.232 170.628 61.212 170.628ZM61.2 175.452C62.04 175.452 63.024 175.392 63.024 174.408C63.024 173.484 62.184 173.328 61.428 173.328H60.06V175.452H61.2Z" fill="white"/>
</svg>
