<svg width="133" height="24" viewBox="0 0 133 24" fill="none" xmlns="http://www.w3.org/2000/svg">
<path d="M18.2627 1.67188V23H13.8682L5.29883 8.70312V23H0.904297V1.67188H5.29883L13.8828 15.9834V1.67188H18.2627ZM29.1172 23.293C27.8867 23.293 26.7832 23.0977 25.8066 22.707C24.8301 22.3066 24 21.7549 23.3164 21.0518C22.6426 20.3486 22.125 19.5332 21.7637 18.6055C21.4023 17.668 21.2217 16.6719 21.2217 15.6172V15.0312C21.2217 13.8301 21.3926 12.7314 21.7344 11.7354C22.0762 10.7393 22.5645 9.875 23.1992 9.14258C23.8438 8.41016 24.625 7.84863 25.543 7.45801C26.4609 7.05762 27.4961 6.85742 28.6484 6.85742C29.7715 6.85742 30.7676 7.04297 31.6367 7.41406C32.5059 7.78516 33.2334 8.3125 33.8193 8.99609C34.415 9.67969 34.8643 10.5 35.167 11.457C35.4697 12.4043 35.6211 13.459 35.6211 14.6211V16.3789H23.0234V13.5664H31.4756V13.2441C31.4756 12.6582 31.3682 12.1357 31.1533 11.6768C30.9482 11.208 30.6357 10.8369 30.2158 10.5635C29.7959 10.29 29.2588 10.1533 28.6045 10.1533C28.0479 10.1533 27.5693 10.2754 27.1689 10.5195C26.7686 10.7637 26.4414 11.1055 26.1875 11.5449C25.9434 11.9844 25.7578 12.502 25.6309 13.0977C25.5137 13.6836 25.4551 14.3281 25.4551 15.0312V15.6172C25.4551 16.252 25.543 16.8379 25.7188 17.375C25.9043 17.9121 26.1631 18.376 26.4951 18.7666C26.8369 19.1572 27.2471 19.46 27.7256 19.6748C28.2139 19.8896 28.7656 19.9971 29.3809 19.9971C30.1426 19.9971 30.8506 19.8506 31.5049 19.5576C32.1689 19.2549 32.7402 18.8008 33.2188 18.1953L35.2695 20.4219C34.9375 20.9004 34.4834 21.3594 33.9072 21.7988C33.3408 22.2383 32.6572 22.5996 31.8564 22.8828C31.0557 23.1562 30.1426 23.293 29.1172 23.293ZM45.7871 7.15039V10.1387H36.5586V7.15039H45.7871ZM38.8438 3.23926H43.0625V18.2246C43.0625 18.6836 43.1211 19.0352 43.2383 19.2793C43.3652 19.5234 43.5508 19.6943 43.7949 19.792C44.0391 19.8799 44.3467 19.9238 44.7178 19.9238C44.9814 19.9238 45.2158 19.9141 45.4209 19.8945C45.6357 19.8652 45.8164 19.8359 45.9629 19.8066L45.9775 22.9121C45.6162 23.0293 45.2256 23.1221 44.8057 23.1904C44.3857 23.2588 43.9219 23.293 43.4141 23.293C42.4863 23.293 41.6758 23.1416 40.9824 22.8389C40.2988 22.5264 39.7715 22.0283 39.4004 21.3447C39.0293 20.6611 38.8438 19.7627 38.8438 18.6494V3.23926ZM62.1641 19.5723V23H51.4268V19.5723H62.1641ZM52.8477 1.67188V23H48.4531V1.67188H52.8477ZM72.9746 19.4258V12.3652C72.9746 11.8574 72.8916 11.4229 72.7256 11.0615C72.5596 10.6904 72.3008 10.4023 71.9492 10.1973C71.6074 9.99219 71.1631 9.88965 70.6162 9.88965C70.1475 9.88965 69.7422 9.97266 69.4004 10.1387C69.0586 10.2949 68.7949 10.5244 68.6094 10.8271C68.4238 11.1201 68.3311 11.4668 68.3311 11.8672H64.1123C64.1123 11.1934 64.2686 10.5537 64.5811 9.94824C64.8936 9.34277 65.3477 8.81055 65.9434 8.35156C66.5391 7.88281 67.2471 7.5166 68.0674 7.25293C68.8975 6.98926 69.8252 6.85742 70.8506 6.85742C72.0811 6.85742 73.1748 7.0625 74.1318 7.47266C75.0889 7.88281 75.8408 8.49805 76.3877 9.31836C76.9443 10.1387 77.2227 11.1641 77.2227 12.3945V19.1768C77.2227 20.0459 77.2764 20.7588 77.3838 21.3154C77.4912 21.8623 77.6475 22.3408 77.8525 22.751V23H73.5898C73.3848 22.5703 73.2285 22.0332 73.1211 21.3887C73.0234 20.7344 72.9746 20.0801 72.9746 19.4258ZM73.5312 13.3467L73.5605 15.7344H71.2021C70.6455 15.7344 70.1621 15.7979 69.752 15.9248C69.3418 16.0518 69.0049 16.2324 68.7412 16.4668C68.4775 16.6914 68.2822 16.9551 68.1553 17.2578C68.0381 17.5605 67.9795 17.8926 67.9795 18.2539C67.9795 18.6152 68.0625 18.9424 68.2285 19.2354C68.3945 19.5186 68.6338 19.7432 68.9463 19.9092C69.2588 20.0654 69.625 20.1436 70.0449 20.1436C70.6797 20.1436 71.2314 20.0166 71.7002 19.7627C72.1689 19.5088 72.5303 19.1963 72.7842 18.8252C73.0479 18.4541 73.1846 18.1025 73.1943 17.7705L74.3076 19.5576C74.1514 19.958 73.9365 20.373 73.6631 20.8027C73.3994 21.2324 73.0625 21.6377 72.6523 22.0186C72.2422 22.3896 71.749 22.6973 71.1729 22.9414C70.5967 23.1758 69.9131 23.293 69.1221 23.293C68.1162 23.293 67.2031 23.0928 66.3828 22.6924C65.5723 22.2822 64.9277 21.7207 64.4492 21.0078C63.9805 20.2852 63.7461 19.4648 63.7461 18.5469C63.7461 17.7168 63.9023 16.9795 64.2148 16.335C64.5273 15.6904 64.9863 15.1484 65.5918 14.709C66.207 14.2598 66.9736 13.9229 67.8916 13.6982C68.8096 13.4639 69.874 13.3467 71.085 13.3467H73.5312ZM80.4746 0.5H84.6934V19.3672L84.2686 23H80.4746V0.5ZM94.7275 14.9141V15.2217C94.7275 16.4033 94.6006 17.4873 94.3467 18.4736C94.1025 19.46 93.7217 20.3145 93.2041 21.0371C92.6865 21.75 92.042 22.3066 91.2705 22.707C90.5088 23.0977 89.6104 23.293 88.5752 23.293C87.6084 23.293 86.7686 23.0977 86.0557 22.707C85.3525 22.3164 84.7617 21.7646 84.2832 21.0518C83.8047 20.3389 83.4189 19.5039 83.126 18.5469C82.833 17.5898 82.6133 16.5449 82.4668 15.4121V14.7383C82.6133 13.6055 82.833 12.5605 83.126 11.6035C83.4189 10.6465 83.8047 9.81152 84.2832 9.09863C84.7617 8.38574 85.3525 7.83398 86.0557 7.44336C86.7588 7.05273 87.5889 6.85742 88.5459 6.85742C89.5908 6.85742 90.499 7.05762 91.2705 7.45801C92.0518 7.84863 92.6963 8.40527 93.2041 9.12793C93.7217 9.84082 94.1025 10.6904 94.3467 11.6768C94.6006 12.6533 94.7275 13.7324 94.7275 14.9141ZM90.5088 15.2217V14.9141C90.5088 14.2695 90.46 13.6641 90.3623 13.0977C90.2744 12.5215 90.1182 12.0186 89.8936 11.5889C89.6689 11.1494 89.3613 10.8027 88.9707 10.5488C88.5898 10.2949 88.0967 10.168 87.4912 10.168C86.915 10.168 86.4268 10.2656 86.0264 10.4609C85.626 10.6562 85.2939 10.9297 85.0303 11.2812C84.7764 11.6328 84.5859 12.0527 84.459 12.541C84.332 13.0195 84.2539 13.5469 84.2246 14.123V16.042C84.2539 16.8135 84.3809 17.4971 84.6055 18.0928C84.8398 18.6787 85.1914 19.1426 85.6602 19.4844C86.1387 19.8164 86.7588 19.9824 87.5205 19.9824C88.1162 19.9824 88.6094 19.8652 89 19.6309C89.3906 19.3965 89.6934 19.0645 89.9082 18.6348C90.1328 18.2051 90.2891 17.7021 90.377 17.126C90.4648 16.54 90.5088 15.9053 90.5088 15.2217ZM109.977 15.9248H114.356C114.269 17.3604 113.873 18.6348 113.17 19.748C112.477 20.8613 111.505 21.7305 110.255 22.3555C109.015 22.9805 107.521 23.293 105.772 23.293C104.405 23.293 103.18 23.0586 102.096 22.5898C101.012 22.1113 100.084 21.4277 99.3125 20.5391C98.5508 19.6504 97.9697 18.5762 97.5693 17.3164C97.1689 16.0566 96.9688 14.6455 96.9688 13.083V11.6035C96.9688 10.041 97.1738 8.62988 97.584 7.37012C98.0039 6.10059 98.5996 5.02148 99.3711 4.13281C100.152 3.24414 101.085 2.56055 102.169 2.08203C103.253 1.60352 104.464 1.36426 105.802 1.36426C107.579 1.36426 109.078 1.68652 110.299 2.33105C111.529 2.97559 112.481 3.86426 113.155 4.99707C113.839 6.12988 114.249 7.41895 114.386 8.86426H109.991C109.942 8.00488 109.771 7.27734 109.479 6.68164C109.186 6.07617 108.741 5.62207 108.146 5.31934C107.56 5.00684 106.778 4.85059 105.802 4.85059C105.069 4.85059 104.43 4.9873 103.883 5.26074C103.336 5.53418 102.877 5.94922 102.506 6.50586C102.135 7.0625 101.856 7.76562 101.671 8.61523C101.495 9.45508 101.407 10.4414 101.407 11.5742V13.083C101.407 14.1865 101.49 15.1582 101.656 15.998C101.822 16.8281 102.076 17.5312 102.418 18.1074C102.77 18.6738 103.219 19.1035 103.766 19.3965C104.322 19.6797 104.991 19.8213 105.772 19.8213C106.69 19.8213 107.447 19.6748 108.043 19.3818C108.639 19.0889 109.093 18.6543 109.405 18.0781C109.728 17.502 109.918 16.7842 109.977 15.9248ZM128.346 17.4189C128.346 17.0381 128.287 16.6963 128.17 16.3936C128.062 16.0811 127.857 15.7979 127.555 15.5439C127.252 15.2803 126.827 15.0215 126.28 14.7676C125.733 14.5137 125.025 14.25 124.156 13.9766C123.189 13.6641 122.271 13.3125 121.402 12.9219C120.543 12.5312 119.781 12.0771 119.117 11.5596C118.463 11.0322 117.945 10.4219 117.564 9.72852C117.193 9.03516 117.008 8.22949 117.008 7.31152C117.008 6.42285 117.203 5.61719 117.594 4.89453C117.984 4.16211 118.531 3.53711 119.234 3.01953C119.938 2.49219 120.768 2.08691 121.725 1.80371C122.691 1.52051 123.751 1.37891 124.903 1.37891C126.476 1.37891 127.848 1.66211 129.02 2.22852C130.191 2.79492 131.1 3.57129 131.744 4.55762C132.398 5.54395 132.726 6.67187 132.726 7.94141H128.36C128.36 7.31641 128.229 6.76953 127.965 6.30078C127.711 5.82227 127.32 5.44629 126.793 5.17285C126.275 4.89941 125.621 4.7627 124.83 4.7627C124.068 4.7627 123.434 4.87988 122.926 5.11426C122.418 5.33887 122.037 5.64648 121.783 6.03711C121.529 6.41797 121.402 6.84766 121.402 7.32617C121.402 7.6875 121.49 8.01465 121.666 8.30762C121.852 8.60059 122.125 8.87402 122.486 9.12793C122.848 9.38184 123.292 9.62109 123.819 9.8457C124.347 10.0703 124.957 10.29 125.65 10.5049C126.812 10.8564 127.833 11.252 128.712 11.6914C129.601 12.1309 130.343 12.624 130.938 13.1709C131.534 13.7178 131.983 14.3379 132.286 15.0312C132.589 15.7246 132.74 16.5107 132.74 17.3896C132.74 18.3174 132.56 19.1475 132.198 19.8799C131.837 20.6123 131.314 21.2324 130.631 21.7402C129.947 22.248 129.132 22.6338 128.185 22.8975C127.237 23.1611 126.178 23.293 125.006 23.293C123.951 23.293 122.911 23.1562 121.886 22.8828C120.86 22.5996 119.928 22.1748 119.088 21.6084C118.258 21.042 117.594 20.3193 117.096 19.4404C116.598 18.5615 116.349 17.5215 116.349 16.3203H120.758C120.758 16.9844 120.86 17.5459 121.065 18.0049C121.271 18.4639 121.559 18.835 121.93 19.1182C122.311 19.4014 122.76 19.6064 123.277 19.7334C123.805 19.8604 124.381 19.9238 125.006 19.9238C125.768 19.9238 126.393 19.8164 126.881 19.6016C127.379 19.3867 127.745 19.0889 127.979 18.708C128.224 18.3271 128.346 17.8975 128.346 17.4189Z" fill="white"/>
</svg>
