<svg width="48" height="48" viewBox="0 0 48 48" fill="none" xmlns="http://www.w3.org/2000/svg">
<rect width="48" height="48" rx="16" fill="#5AC049"/>
<path d="M20.4734 17.3542L17.3775 12.0204C17.3775 12.0204 15.1796 11.7076 13.363 13.5334C11.5463 15.3592 10.3519 22.1065 17.8793 29.6712C25.4066 37.2359 32.4315 36.7316 34.4388 34.7143C36.446 32.6971 35.9443 30.6798 35.9443 30.6798L30.6455 27.5734C30.2273 27.3282 29.6934 27.4183 29.3789 27.7871L27.415 30.0897C27.1188 30.437 26.6228 30.5401 26.2163 30.3325C21.9418 28.1492 19.8998 26.134 17.7158 21.7872C17.5129 21.3834 17.6154 20.893 17.9578 20.598L20.2612 18.6138C20.6258 18.2997 20.715 17.7704 20.4734 17.3542Z" fill="white"/>
</svg>
