<svg width="72" height="72" viewBox="0 0 72 72" fill="none" xmlns="http://www.w3.org/2000/svg">
<rect width="72" height="72" rx="20" fill="#5AC049"/>
<path d="M31.1409 26.8136L26.5395 18.8862C26.5395 18.8862 23.3997 18.4394 20.8045 21.0477C18.2093 23.6559 16.503 33.2949 27.2564 44.1016C38.0098 54.9083 48.0453 54.1879 50.9128 51.3061C53.7803 48.4244 53.0635 45.5425 53.0635 45.5425L45.184 40.9232C44.7658 40.678 44.232 40.7681 43.9174 41.1369L40.6632 44.9524C40.367 45.2997 39.8723 45.4029 39.4646 45.1976C33.0563 41.9702 30.1023 39.0599 26.8753 32.543C26.6747 32.1379 26.7774 31.6492 27.1198 31.3542L30.9286 28.0732C31.2933 27.7591 31.3825 27.2298 31.1409 26.8136Z" fill="white"/>
</svg>
