<svg width="158" height="90" viewBox="0 0 158 90" fill="none" xmlns="http://www.w3.org/2000/svg">
<path d="M77.8668 51.5682H71.6844V55.9756H77.6371V57.8643H71.6844V62.3865H78.0374V64.2764H69.624V49.6817H77.8668V51.5682Z" fill="white"/>
<path d="M82.5869 49.6816H84.4756V64.2773H82.5869V49.6816Z" fill="white"/>
<path d="M94.4353 56.0912C95.7532 56.0912 96.6106 57.0055 96.6685 58.4951H91.8598C92.0883 56.9497 92.948 56.0912 94.4353 56.0912ZM91.8029 59.7549H98.5561C98.5561 56.205 96.8971 54.4879 94.3784 54.4879C91.7461 54.4879 89.9131 56.4335 89.9131 59.3525C89.9131 61.986 91.5732 64.4478 94.5501 64.4478C96.1523 64.4478 97.1825 64.0453 98.3844 63.3016V61.472C97.2405 62.2134 96.1523 62.6159 95.0073 62.6159C93.1765 62.6159 92.0883 61.6414 91.8029 59.7549Z" fill="white"/>
<path d="M110.548 57.1772C109.46 56.4335 108.717 56.205 107.914 56.205C106.141 56.205 104.996 57.5228 104.996 59.4684C104.996 61.472 106.254 62.6739 108.201 62.6739C109 62.6739 109.803 62.4442 110.775 62.045V63.8747C110.09 64.1601 108.887 64.4478 107.914 64.4478C105.051 64.4478 103.049 62.4442 103.049 59.6379C103.049 56.4915 104.882 54.4879 107.743 54.4879C108.887 54.4879 109.631 54.7165 110.548 55.1201V57.1772Z" fill="white"/>
<path d="M119.075 54.6608H122.11V56.3778H119.075V61.2991C119.075 62.3862 119.876 62.7307 120.45 62.7307C121.137 62.7307 121.822 62.5022 122.623 62.045V63.8178C121.937 64.1601 120.908 64.4478 120.276 64.4478C118.215 64.4478 117.186 63.1321 117.186 61.4129V56.3778H115.527V56.147L119.075 52.6572V54.6608Z" fill="white"/>
<path d="M128.95 54.6611V56.891C129.922 55.1751 130.837 54.4883 131.753 54.4883C132.497 54.4883 133.241 54.8317 134.042 55.5765L133.01 57.2366C132.439 56.6635 131.695 56.3201 131.238 56.3201C129.922 56.3201 128.95 57.6369 128.95 59.239V64.2764H127.062V54.6611H128.95Z" fill="white"/>
<path d="M139.421 54.6611H141.31V64.2764H139.421V54.6611Z" fill="white"/>
<path d="M153.588 57.1772C152.501 56.4335 151.756 56.205 150.954 56.205C149.181 56.205 148.036 57.5228 148.036 59.4684C148.036 61.472 149.295 62.6739 151.24 62.6739C152.041 62.6739 152.843 62.4442 153.816 62.045V63.8747C153.13 64.1601 151.927 64.4478 150.954 64.4478C148.092 64.4478 146.089 62.4442 146.089 59.6379C146.089 56.4915 147.921 54.4879 150.784 54.4879C151.927 54.4879 152.671 54.7165 153.588 55.1201V57.1772Z" fill="white"/>
<path d="M17.9841 28.2522C14.3705 26.6467 12.2042 26.0848 10.1159 26.0848C7.86817 26.0848 6.4232 26.8864 6.4232 28.0917C6.4232 31.8635 19.1079 30.8222 19.1079 39.4909C19.1079 44.2283 15.093 47.0391 9.55508 47.0391C5.13767 47.0391 2.97133 45.9141 0.563046 44.6297V39.2501C4.09519 41.6595 6.26265 42.4622 9.07231 42.4622C11.4806 42.4622 12.765 41.6595 12.765 40.1353C12.765 36.1193 0 37.5654 0 28.6536C0 24.3176 3.77409 21.5079 9.55508 21.5079C12.3647 21.5079 14.8533 22.0699 17.9841 23.4368V28.2522Z" fill="white"/>
<path d="M35.8069 45.9141C33.6406 46.6366 31.8734 47.0391 30.1062 47.0391C24.1658 47.0391 20.3125 43.5861 20.3125 38.2879C20.3125 33.1502 24.3274 29.5355 29.8665 29.5355C31.5523 29.5355 33.8011 29.9391 35.5672 30.6605V34.594C34.1222 33.8716 32.5145 33.3899 31.2312 33.3899C28.0212 33.3899 26.0132 35.3154 26.0132 38.2879C26.0132 41.2581 28.0212 43.2661 31.0706 43.2661C32.355 43.2661 33.48 42.9428 35.8069 42.0619V45.9141Z" fill="white"/>
<path d="M49.5361 43.828V37.0837C49.5361 34.594 48.4936 33.3899 46.8067 33.3899C45.6015 33.3899 44.559 34.1926 43.2735 35.9598V46.7168H37.9741V21.8279H43.2735V32.3463H43.3537C44.8801 30.4196 46.5648 29.5355 48.652 29.5355C51.785 29.5355 54.8332 31.383 54.8332 35.9598V42.7822C53.0683 42.7822 50.9008 43.4255 49.5361 43.828Z" fill="white"/>
<path d="M57.3237 42.4622V29.8577H62.6219V32.2671C64.3077 30.3394 65.9935 29.5355 68.1632 29.5355C70.8112 29.5355 74.2631 31.063 74.2631 35.9598V46.7168H68.9638V36.4415C68.9638 34.0321 67.8399 33.0699 66.3146 33.0699C65.0291 33.0699 64.0669 33.7924 62.6219 35.8795V43.266C60.8559 42.7822 59.0106 42.6227 57.3237 42.4622Z" fill="white"/>
<path d="M81.9707 36.3612C82.2104 34.0321 83.5762 32.6674 85.6645 32.6674C87.6725 32.6674 89.1152 34.1146 89.2758 36.3612H81.9707ZM85.262 29.5355C80.0452 29.5355 76.3491 33.2305 76.3491 38.3681C76.3491 43.5861 80.2035 47.0391 86.145 47.0391C87.5097 47.0391 90.6427 47.0391 93.691 44.7913V41.4989C91.2047 43.2661 89.5166 43.9061 87.4295 43.9061C84.137 43.9061 82.0521 42.14 81.8893 39.1709H93.934C94.254 32.9896 90.16 29.5355 85.262 29.5355Z" fill="white"/>
<path d="M96.0205 29.8577H101.319V46.7168H96.0205V29.8577Z" fill="white"/>
<path d="M116.013 42.14C114.968 43.1055 114.006 43.5058 112.881 43.5058C110.392 43.5058 108.787 41.4186 108.787 38.3681C108.787 34.9954 110.392 33.0699 113.042 33.0699C114.006 33.0699 115.289 33.4724 116.013 34.0321V42.14ZM116.013 21.8279V30.5814C114.646 29.9391 113.202 29.5355 111.677 29.5355C106.859 29.5355 103.487 33.0699 103.487 38.2879C103.487 43.3452 106.859 47.0391 111.354 47.0391C113.12 47.0391 114.565 46.5574 116.013 45.3533V46.7168H121.311V21.8279H116.013Z" fill="white"/>
<path d="M129.18 36.3612C129.419 34.0321 130.704 32.6674 132.792 32.6674C134.877 32.6674 136.242 34.1146 136.483 36.3612H129.18ZM132.47 29.5355C127.25 29.5355 123.56 33.2305 123.56 38.3681C123.56 43.5861 127.413 47.0391 133.353 47.0391C134.639 47.0391 137.848 47.0391 140.9 44.7913V41.4989C138.411 43.2661 136.725 43.9061 134.639 43.9061C131.266 43.9061 129.259 42.14 129.017 39.1709H141.14C141.38 32.9896 137.367 29.5355 132.47 29.5355Z" fill="white"/>
<path d="M149.087 34.6754H149.167C150.692 31.1421 152.458 29.5355 154.547 29.5355C155.589 29.5355 156.476 29.9391 158 31.063L156.555 35.719C155.189 34.8348 154.306 34.5137 153.424 34.5137C151.496 34.5137 150.212 36.3612 149.087 39.4106V46.7168H143.789V29.8577H149.087V34.6754Z" fill="white"/>
<path d="M101.561 22.7113C102.042 24.0771 101.158 25.9223 99.5536 26.8076C97.9459 27.7709 96.2612 27.4498 95.7795 26.1654C95.2968 24.8809 96.182 23.0324 97.7875 22.0702C99.3931 21.108 101.078 21.428 101.561 22.7113Z" fill="white"/>
<path d="M141.424 51.226C141.597 51.6842 141.253 52.3142 140.68 52.6576C140.107 52.9999 139.535 52.8873 139.363 52.4279C139.193 51.9697 139.478 51.3408 140.05 50.9974C140.623 50.654 141.194 50.7678 141.424 51.226Z" fill="white"/>
<path d="M44.7067 50.0361C50.2268 44.2998 58.0861 42.5025 62.2047 46.0324C66.3233 49.5623 65.1816 57.1183 59.6637 62.8513C54.1459 68.5877 46.2844 70.3828 42.1658 66.854C38.0472 63.3241 39.1889 55.7692 44.7067 50.0361Z" fill="white"/>
<path d="M48.6311 63.7197H43.0898L43.9684 60.3303L47.0557 60.3604C47.5518 60.3637 48.1885 60.0259 48.2966 59.542L49.6602 53.547C50.2199 51.0774 53.305 49.1262 55.8381 49.1262H61.317L60.59 52.1867L57.7146 52.2146C57.0735 52.2224 56.8505 52.3674 56.7156 52.8791L54.9897 59.3915C54.333 61.87 51.1944 63.7197 48.6311 63.7197Z" fill="white"/>
<path d="M41.5845 54.3633C41.978 53.6352 42.4341 52.9083 42.9503 52.1969H46.1357L45.4333 54.3633H41.5845Z" fill="#1A1A1A"/>
<path d="M40.0352 58.4795C40.1879 57.7659 40.4064 57.0412 40.6852 56.3143H45.116L44.4124 58.4795H40.0352Z" fill="#1A1A1A"/>
<path d="M63.1141 58.1398C62.7418 58.869 62.3103 59.5948 61.8152 60.3062H57.5483L58.2508 58.1398H63.1141Z" fill="#1A1A1A"/>
<path d="M64.5451 54.0241C64.4124 54.7365 64.2162 55.4624 63.9575 56.1904H58.5679L59.2692 54.0241H64.5451Z" fill="#1A1A1A"/>
<path d="M48.6311 63.7197H43.0898L43.9684 60.3303L47.0557 60.3604C47.5518 60.3637 48.1885 60.0259 48.2966 59.542L49.6602 53.547C50.2199 51.0774 53.305 49.1262 55.8381 49.1262H61.317L60.59 52.1867L57.7146 52.2146C57.0735 52.2224 56.8505 52.3674 56.7156 52.8791L54.9897 59.3915C54.333 61.87 51.1944 63.7197 48.6311 63.7197Z" fill="#1A1A1A"/>
</svg>
