<svg width="72" height="72" viewBox="0 0 72 72" fill="none" xmlns="http://www.w3.org/2000/svg">
<rect width="72" height="72" rx="20" fill="#202020"/>
<g clip-path="url(#clip0_3130_6579)">
<path d="M28.8016 58.6286C32.7752 58.6286 36.0001 55.3262 36.0001 51.2572V43.8857H28.8016C24.828 43.8857 21.603 47.1881 21.603 51.2572C21.603 55.3262 24.828 58.6286 28.8016 58.6286Z" fill="#0ACF83"/>
<path d="M21.603 36.514C21.603 32.445 24.828 29.1426 28.8016 29.1426H36.0001V43.8854H28.8016C24.828 43.8854 21.603 40.583 21.603 36.514Z" fill="#A259FF"/>
<path d="M21.603 21.7713C21.603 17.7023 24.828 14.3999 28.8016 14.3999H36.0001V29.1428H28.8016C24.828 29.1428 21.603 25.8404 21.603 21.7713Z" fill="#F24E1E"/>
<path d="M36 14.3999H43.1986C47.1722 14.3999 50.3971 17.7023 50.3971 21.7713C50.3971 25.8404 47.1722 29.1428 43.1986 29.1428H36V14.3999Z" fill="#FF7262"/>
<path d="M50.3971 36.514C50.3971 40.583 47.1722 43.8854 43.1986 43.8854C39.225 43.8854 36 40.583 36 36.514C36 32.445 39.225 29.1426 43.1986 29.1426C47.1722 29.1426 50.3971 32.445 50.3971 36.514Z" fill="#1ABCFE"/>
</g>
<defs>
<clipPath id="clip0_3130_6579">
<rect width="28.8" height="44.2286" fill="white" transform="translate(21.6001 14.3999)"/>
</clipPath>
</defs>
</svg>
