<svg width="72" height="72" viewBox="0 0 72 72" fill="none" xmlns="http://www.w3.org/2000/svg">
<rect width="72" height="72" rx="20" fill="#FFDE00"/>
<g clip-path="url(#clip0_3130_6626)">
<mask id="mask0_3130_6626" style="mask-type:luminance" maskUnits="userSpaceOnUse" x="-190" y="-32" width="455" height="467">
<path d="M-189.708 434.483H264.788V-31.4708H-189.708V434.483Z" fill="white"/>
</mask>
<g mask="url(#mask0_3130_6626)">
<path d="M36.907 44.8071C35.9794 44.7437 34.9097 44.577 34.066 44.3265C33.908 44.2796 33.2537 44.033 33.0872 43.9547C30.15 42.5599 28.1038 39.515 28.1038 35.9824C28.1038 31.1371 31.9488 27.1905 36.678 27.1905C41.3652 27.1905 45.1842 31.0698 45.2499 35.8603H48.3474C48.2817 29.3196 43.0739 24.0188 36.678 24.0188C30.2439 24.0188 25.0071 29.3846 25.0071 35.9824C25.0071 40.531 27.5022 44.487 31.1556 46.5081C31.8152 46.8658 32.762 47.2345 33.0834 47.3354C34.1248 47.6532 35.4029 47.8646 36.5406 47.953C36.9269 47.9828 38.276 47.9984 38.6692 48H60V44.8369H38.7051C38.4218 44.8369 37.1842 44.8259 36.907 44.8071ZM38.7051 39.8406C38.4799 39.8406 37.3018 39.8328 37.0842 39.814C36.7154 39.7819 36.181 39.7255 35.8374 39.6449C35.4495 39.5384 35.0853 39.3975 34.9212 39.3052C33.7706 38.6672 32.9865 37.4195 32.9865 35.9824C32.9865 33.8917 34.6379 32.1962 36.678 32.1962C38.6753 32.1962 40.2993 33.8251 40.3642 35.8603H43.3403C43.2777 32.1422 40.3214 29.1458 36.678 29.1458C32.9941 29.1458 30.008 32.2064 30.008 35.9824C30.008 38.6453 31.4969 40.945 33.6652 42.0714C33.9989 42.2718 34.6265 42.4816 34.8051 42.5293C35.4174 42.6945 36.2397 42.8072 36.907 42.8573C37.1537 42.8784 38.3615 42.8878 38.6165 42.8894V42.8941H59.9992V39.8406H38.7051ZM23.0983 47.9883H19.9802V27.1975H15.4236V24H23.0983V47.9883ZM12 28.7951V31.8698H15.4236V47.9883H18.4195V28.7951H12Z" fill="#D91920"/>
<path d="M54.4901 24.2233C53.367 24.2233 52.4355 25.1415 52.4355 26.2937C52.4355 27.4459 53.367 28.4009 54.4901 28.4009C55.6476 28.4009 56.5432 27.4459 56.5432 26.2937C56.5432 25.1415 55.6476 24.2233 54.4901 24.2233ZM54.4901 28.0612C53.5625 28.0612 52.7631 27.3136 52.7631 26.2937C52.7631 25.3254 53.5625 24.5591 54.4901 24.5591C55.417 24.5591 56.2126 25.3254 56.2126 26.2937C56.2126 27.3136 55.417 28.0612 54.4901 28.0612Z" fill="#D91920"/>
<path d="M55.2725 26.8608C55.2725 26.6283 55.2389 26.4123 54.9793 26.327C55.3045 26.2111 55.3366 25.9927 55.3366 25.8605C55.3366 25.3258 54.8632 25.2577 54.6685 25.2577H53.7729V27.3281H54.1463V26.4788H54.4403C54.8632 26.4788 54.8984 26.6784 54.8984 26.8608C54.8984 27.2138 54.8984 27.2804 54.9793 27.3281H55.3534C55.2725 27.2444 55.3045 27.1794 55.2725 26.8608ZM54.5868 26.1767H54.1463V25.5247H54.5235C54.7846 25.5247 54.9617 25.6092 54.9617 25.8605C54.9617 25.9927 54.8984 26.1767 54.5868 26.1767Z" fill="#D91920"/>
</g>
</g>
<defs>
<clipPath id="clip0_3130_6626">
<rect width="48" height="24" fill="white" transform="translate(12 24)"/>
</clipPath>
</defs>
</svg>
