<svg width="72" height="72" viewBox="0 0 72 72" fill="none" xmlns="http://www.w3.org/2000/svg">
<rect width="72" height="72" rx="20" fill="#3F2B99"/>
<rect x="35" y="36" width="23" height="21" rx="3" fill="#7B66DC"/>
<path d="M43.2581 53L45.25 41H46.7742L44.7903 53H43.2581ZM46.2258 53L48.2177 41H49.75L47.7581 53H46.2258ZM51 45.8791H42.6129V44.4286H51V45.8791ZM50.3952 49.6209H42V48.1703H50.3952V49.6209Z" fill="#3F2B99"/>
<path d="M14 19C14 16.7909 15.7909 15 18 15H41C43.2091 15 45 16.7909 45 19V37.6129C45 39.822 43.2091 41.6129 41 41.6129H27.1963C26.9583 41.6129 26.7281 41.6978 26.5471 41.8523L20.1694 47.2961C19.8449 47.5732 19.3448 47.3425 19.3448 46.9158V42.1129C19.3448 41.8368 19.121 41.6129 18.8448 41.6129H18C15.7909 41.6129 14 39.822 14 37.6129V19Z" fill="#B2A3F9"/>
<path d="M29.5 37C30.5 37 39 30.0973 39 26.1528C39 21.2543 32.5845 18.7894 29.5591 23.592C29.5317 23.6356 29.4647 23.6379 29.4343 23.5962C25.9254 18.7897 20 21.4084 20 26.1528C20 30.0973 28.5 37 29.5 37Z" fill="#3F2B99"/>
</svg>
