<svg width="158" height="90" viewBox="0 0 158 90" fill="none" xmlns="http://www.w3.org/2000/svg">
<path fill-rule="evenodd" clip-rule="evenodd" d="M0 29.2138C0 26.8877 1.88768 25 4.21383 25H153.786C156.112 25 158 26.8877 158 29.2138V60.2862C158 62.6123 156.112 64.5 153.786 64.5H4.21383C1.88768 64.5 0 62.6123 0 60.2862V29.2138Z" fill="#202020"/>
<path fill-rule="evenodd" clip-rule="evenodd" d="M1.31543 29.4778C1.31543 27.7314 2.73119 26.3193 4.47394 26.3193H153.519C155.265 26.3193 156.677 27.7351 156.677 29.4778V60.0262C156.677 61.7727 155.261 63.1848 153.519 63.1848H4.47766C2.73119 63.1848 1.31915 61.769 1.31915 60.0262V29.4778H1.31543Z" fill="white"/>
<path fill-rule="evenodd" clip-rule="evenodd" d="M122.454 31.5361H129.685C129.982 34.5237 132.505 36.8536 135.575 36.8536C138.644 36.8536 141.171 34.52 141.464 31.5361H148.762V44.0067H141.505C141.141 41.0934 138.652 38.8342 135.63 38.8342C132.609 38.8342 130.12 41.0897 129.756 44.0067H122.45V31.5361H122.454Z" fill="#1A1A1A"/>
<path fill-rule="evenodd" clip-rule="evenodd" d="M122.476 45.4004H129.748C130.075 48.3545 132.583 50.651 135.63 50.651C138.677 50.651 141.185 48.3545 141.512 45.4004H148.784V57.8709H141.464C141.17 54.8834 138.643 52.5535 135.574 52.5535C132.505 52.5535 129.978 54.8871 129.684 57.8709H122.476V45.4004Z" fill="#1A1A1A"/>
<path fill-rule="evenodd" clip-rule="evenodd" d="M23.1874 34.1973H28.4343V55.2515H23.1874V46.8313L14.4588 46.8425V55.2664H9.21191V34.2121H14.4588V42.6324L23.1874 42.6212V34.1973Z" fill="#1A1A1A"/>
<path fill-rule="evenodd" clip-rule="evenodd" d="M29.8936 44.6827C29.8936 38.4288 34.962 33.3604 41.2159 33.3604C47.4698 33.3604 52.5382 38.4288 52.5382 44.6827C52.5382 50.9366 47.4698 56.005 41.2159 56.005C34.962 56.005 29.8936 50.9328 29.8936 44.6827ZM34.9769 44.7496C34.9769 48.1608 37.7415 50.9254 41.1527 50.9254C44.5639 50.9254 47.3286 48.1608 47.3286 44.7496C47.3286 41.3384 44.5639 38.5738 41.1527 38.5738C37.7415 38.5738 34.9769 41.3384 34.9769 44.7496Z" fill="#1A1A1A"/>
<path fill-rule="evenodd" clip-rule="evenodd" d="M53.9883 55.2627H59.2574V42.4726H59.3169L69.6954 55.2664H75.0574L75.0537 34.1973H69.6954L69.7883 46.9391H69.7325L59.4915 34.2047H53.9883V55.2627Z" fill="#1A1A1A"/>
<path fill-rule="evenodd" clip-rule="evenodd" d="M108.504 47.4184L106.267 40.7187L103.948 47.4184H108.504ZM109.987 51.6062H102.44L100.987 55.2627H90.8201L82.9646 46.2925V55.2478H77.6992V34.1973H82.9646V43.1823L90.8201 34.2493L97.4269 34.2158L88.2078 44.7356L95.8588 53.4753L103.276 34.2158H109.258L117.196 55.2664H111.354L109.987 51.6062Z" fill="#1A1A1A"/>
</svg>
