<svg width="158" height="90" viewBox="0 0 158 90" fill="none" xmlns="http://www.w3.org/2000/svg">
<path d="M0 86.5376V74.4587C0 74.3431 0.115589 74.2275 0.231176 74.2275H10.923C11.0386 74.2275 11.1542 74.3431 11.1542 74.4587V86.5376C11.1542 86.6532 11.0386 86.7688 10.923 86.7688H8.32232C8.20673 86.7688 8.09114 86.6532 8.09114 86.5376V77.0594C8.09114 76.9439 7.97556 76.8283 7.85997 76.8283H3.35205C3.23646 76.8283 3.12087 76.9439 3.12087 77.0594V86.5376C3.12087 86.6532 3.00528 86.7688 2.88969 86.7688H0.288969C0.115588 86.8266 0 86.711 0 86.5376Z" fill="white"/>
<path d="M13.521 79.082C13.521 75.6721 15.8328 73.9961 19.416 73.9961C22.9992 73.9961 25.311 75.6721 25.311 79.082V81.9716C25.311 85.3815 22.9992 86.9419 19.416 86.9419C15.8328 86.9419 13.521 85.3815 13.521 81.9716V79.082ZM16.7575 81.6827C16.7575 83.4743 17.5666 84.6302 19.416 84.6302C21.381 84.6302 22.0745 83.4165 22.0745 81.6827V79.3709C22.0745 77.6949 21.381 76.4234 19.416 76.4234C17.5666 76.4234 16.7575 77.6371 16.7575 79.3709V81.6827Z" fill="white"/>
<path d="M37.6788 74.4589V86.5378C37.6788 86.6534 37.5632 86.769 37.4476 86.769H34.8469C34.7313 86.769 34.6157 86.6534 34.6157 86.5378V77.0018C34.6157 76.8862 34.5001 76.7706 34.3846 76.7706H31.7838C31.6682 76.7706 31.5527 76.8862 31.5527 77.0018C31.3793 82.7234 30.6857 87.0002 27.5071 87.0002C27.2181 87.0002 26.698 86.9424 26.3512 86.8846C26.2356 86.8846 26.1778 86.769 26.12 86.6534L25.8311 84.6884C25.8311 84.515 25.9466 84.3994 26.0622 84.3994C26.1778 84.3994 26.3512 84.3994 26.4668 84.3994C28.2006 84.3994 28.4896 80.5272 28.4896 74.4589C28.4896 74.3433 28.6052 74.1699 28.7208 74.1699H37.3898C37.5632 74.2277 37.6788 74.3433 37.6788 74.4589Z" fill="white"/>
<path d="M43.6378 74.4587V81.2206C43.6378 81.4518 43.9845 81.5674 44.1001 81.394L49.0704 74.3431C49.1282 74.2853 49.186 74.2275 49.3016 74.2275H51.4399C51.5555 74.2275 51.6711 74.3431 51.6711 74.4587V86.5376C51.6711 86.6532 51.5555 86.7688 51.4399 86.7688H48.8392C48.7236 86.7688 48.6081 86.6532 48.6081 86.5376V79.7758C48.6081 79.5446 48.2613 79.429 48.1457 79.6024L43.1754 86.6532C43.1176 86.711 43.0598 86.7688 42.9443 86.7688H40.8059C40.6903 86.7688 40.5747 86.6532 40.5747 86.5376V74.4587C40.5747 74.3431 40.6903 74.2275 40.8059 74.2275H43.4066C43.5222 74.2275 43.6378 74.3431 43.6378 74.4587Z" fill="white"/>
<path d="M57.5601 77.8109H57.5023L57.2712 86.5378C57.2712 86.6534 57.1556 86.769 57.04 86.769H54.3815C54.2081 86.769 54.0925 86.6534 54.1503 86.48L55.1328 74.4011C55.1328 74.2855 55.2484 74.1699 55.364 74.1699H58.6582C58.7738 74.1699 58.8894 74.2277 58.8894 74.3433L61.7791 83.6481H61.8369L64.7266 74.3433C64.7844 74.2277 64.8421 74.1699 64.9577 74.1699H68.252C68.3676 74.1699 68.4832 74.2855 68.4832 74.4011L69.4657 86.48C69.4657 86.6534 69.3501 86.769 69.2345 86.769H66.576C66.4604 86.769 66.3448 86.6534 66.3448 86.5378L66.1136 77.8109H66.0558L63.2239 86.6534C63.1661 86.769 63.1083 86.8268 62.9927 86.8268H60.5076C60.392 86.8268 60.2764 86.769 60.2764 86.6534L57.5601 77.8109Z" fill="white"/>
<path d="M75.4222 84.4571H80.219C80.3346 84.4571 80.4502 84.5726 80.4502 84.6882V86.5376C80.4502 86.6532 80.3346 86.7688 80.219 86.7688H72.3591C72.2435 86.7688 72.1279 86.6532 72.1279 86.5376V74.4587C72.1279 74.3431 72.2435 74.2275 72.3591 74.2275H80.219C80.3346 74.2275 80.4502 74.3431 80.4502 74.4587V76.3081C80.4502 76.4237 80.3346 76.5393 80.219 76.5393H75.4222C75.3066 76.5393 75.191 76.6549 75.191 76.7705V78.851C75.191 78.9666 75.3066 79.0822 75.4222 79.0822H79.2366C79.3521 79.0822 79.4677 79.1978 79.4677 79.3134V81.1628C79.4677 81.2784 79.3521 81.394 79.2366 81.394H75.4222C75.3066 81.394 75.191 81.5096 75.191 81.6252V84.0525C75.191 84.3415 75.3066 84.4571 75.4222 84.4571Z" fill="white"/>
<path d="M87.3868 74.2275C91.0279 74.2275 92.5305 75.3256 92.5305 78.6777C92.5305 82.0297 91.0279 83.2434 87.3868 83.2434H86.1732C86.0576 83.2434 85.942 83.359 85.942 83.4746V86.5954C85.942 86.711 85.8264 86.8266 85.7108 86.8266H83.1101C82.9945 86.8266 82.8789 86.711 82.8789 86.5954V74.4587C82.8789 74.3431 82.9945 74.2275 83.1101 74.2275H87.3868ZM85.8842 80.5271C85.8842 80.6427 85.9998 80.7582 86.1154 80.7582H87.329C88.4849 80.7582 89.3518 80.4115 89.3518 78.5621C89.3518 76.9439 88.6583 76.5393 87.329 76.5393H86.1154C85.9998 76.5393 85.8842 76.6549 85.8842 76.7705V80.5271Z" fill="white"/>
<path d="M97.9617 78.7933C97.9617 78.9088 98.0773 79.0244 98.1929 79.0244H100.62C103.337 79.0244 104.319 80.3537 104.319 82.8966C104.319 85.2662 103.452 86.7688 100.562 86.7688H95.072C94.9564 86.7688 94.8408 86.6532 94.8408 86.5376V74.4587C94.8408 74.3431 94.9564 74.2275 95.072 74.2275H103.105C103.221 74.2275 103.336 74.3431 103.336 74.4587V76.3081C103.336 76.4237 103.221 76.5393 103.105 76.5393H98.1929C98.0773 76.5393 97.9617 76.6549 97.9617 76.7705V78.7933ZM97.9617 81.4518V84.3993C97.9617 84.5148 98.0773 84.6304 98.1929 84.6304H99.7533C100.736 84.6304 101.372 84.1103 101.372 82.8966C101.372 81.6829 100.736 81.1628 99.7533 81.1628H98.1929C98.0773 81.1628 97.9617 81.2784 97.9617 81.4518Z" fill="white"/>
<path d="M111.368 86.8266H107.034C106.918 86.8266 106.803 86.711 106.803 86.5954V74.4587C106.803 74.3431 106.918 74.2275 107.034 74.2275H109.635C109.75 74.2275 109.866 74.3431 109.866 74.4587V78.5621C109.866 78.7355 109.981 78.851 110.155 78.7933C110.848 78.7355 111.542 78.6777 112.178 78.6777C115.298 78.6777 116.512 80.1225 116.512 82.7232C116.512 85.6129 115.125 86.8266 111.368 86.8266ZM111.368 80.816C110.964 80.816 110.559 80.816 110.097 80.8738C109.981 80.8738 109.866 80.9894 109.866 81.105V84.4571C109.866 84.5726 109.981 84.6882 110.097 84.6882H111.311C112.64 84.6882 113.333 84.2837 113.333 82.7232C113.391 81.1628 112.64 80.816 111.368 80.816ZM118.246 86.8266H120.847C120.962 86.8266 121.078 86.711 121.078 86.5954V74.4587C121.078 74.3431 120.962 74.2275 120.847 74.2275H118.246C118.13 74.2275 118.015 74.3431 118.015 74.4587V86.5376C117.957 86.711 118.073 86.8266 118.246 86.8266Z" fill="white"/>
<path d="M123.273 74.2275H132.462C132.578 74.2275 132.693 74.3431 132.693 74.4587V76.4815C132.693 76.5971 132.578 76.7127 132.462 76.7127H129.688C129.572 76.7127 129.457 76.8283 129.457 76.9438V86.4798C129.457 86.5954 129.341 86.711 129.226 86.711H126.625C126.509 86.711 126.394 86.5954 126.394 86.4798V77.0016C126.394 76.8861 126.278 76.7705 126.163 76.7705H123.388C123.273 76.7705 123.157 76.6549 123.157 76.5393V74.5165C123.042 74.3431 123.157 74.2275 123.273 74.2275Z" fill="white"/>
<path d="M53.4553 10.152C56.9229 8.1292 63.338 4.48819 65.5342 3.21673C65.9965 2.92776 66.6323 2.92776 67.0946 3.21673L93.2752 18.0697C93.7954 18.3587 94.0843 18.8789 94.0843 19.4568V49.1628C94.0843 49.7408 93.7954 50.2609 93.2752 50.5499L81.3697 57.4851C80.3294 58.1209 79.0002 57.3118 79.0002 56.0981V28.1837C79.0002 27.6057 78.7112 27.0856 78.191 26.7966L53.5131 12.9261C52.415 12.3482 52.415 10.7877 53.4553 10.152Z" fill="white"/>
<path d="M53.0529 19.9771L71.7781 30.38C72.2982 30.669 72.5872 31.1891 72.5872 31.767V52.8618C72.5872 53.4397 72.2982 53.9599 71.7781 54.2488L61.144 60.5484C60.1037 61.1841 58.7167 60.4328 58.7167 59.1613V39.627C58.7167 39.0491 58.4277 38.5289 57.9075 38.2399L40.974 28.5884C39.8759 27.9526 39.8759 26.3922 40.974 25.8143L51.4924 19.9771C52.0126 19.7459 52.5905 19.7459 53.0529 19.9771Z" fill="white"/>
<path d="M38.4883 37.1417V49.394C38.4883 49.972 38.7773 50.4921 39.2974 50.7811L50.0471 56.9072C51.0873 57.4852 52.4166 56.7338 52.4166 55.5202V43.2679C52.4166 42.6899 52.1276 42.1698 51.6075 41.8808L40.8578 35.7547C39.8175 35.1189 38.4883 35.9281 38.4883 37.1417Z" fill="white"/>
</svg>
