<svg width="158" height="90" viewBox="0 0 158 90" fill="none" xmlns="http://www.w3.org/2000/svg">
<g clip-path="url(#clip0_2966_3377)">
<path d="M74.7002 3.6V15.3H86.4002L90.0002 11.7V0H78.3002L74.7002 3.6Z" fill="white"/>
<path d="M20.2686 55.693V42.8613H11.6011L11.2296 50.4465C11.1431 52.1361 10.8493 53.4077 9.57897 53.4077C9.35433 53.4077 9.12096 53.3632 9 53.3365V55.6842C9.16416 55.7374 9.51849 55.7997 9.94194 55.7997C12.5258 55.7997 13.4677 53.7812 13.6319 50.6244L13.9343 45.0755H17.6589V55.693H20.2686Z" fill="white"/>
<path d="M31.4853 55.693H34.3111L29.9817 42.8613H26.9139L22.5845 55.693H25.2028L26.1621 52.5807H30.5434L31.4853 55.693ZM28.2879 45.4668H28.4435L29.9903 50.571H26.7238L28.2879 45.4668Z" fill="white"/>
<path d="M38.8222 38.7002C38.8222 40.4431 40.127 41.5457 42.0887 41.5457C44.059 41.5457 45.3552 40.4431 45.3552 38.7002H43.4713C43.4454 39.5628 42.8837 40.1052 42.0887 40.1052C41.3023 40.1052 40.7406 39.5628 40.706 38.7002H38.8222ZM44.8799 55.6935H47.4897V42.8618H44.9749L39.3752 51.5229H39.2197V42.8618H36.6099V55.6935H39.1246L44.7244 47.0501H44.8799V55.6935Z" fill="white"/>
<path d="M63.9002 55.693V42.8613H60.8324L57.3758 51.7092H57.2202L53.7722 42.8613H50.6958V55.693H53.1155V47.0052H53.2537L56.4338 55.0616H58.1708L61.3423 47.0052H61.4805V55.693H63.9002Z" fill="white"/>
<path d="M13.4253 63.8508V61.2402H12.5329V63.8508H12.3199L10.2379 61.2402H9.18486L11.5764 64.1574L9 67.2195H10.1053L12.3199 64.5551H12.5329V67.2195H13.4253V64.5551H13.6383L15.8489 67.2195H16.9703L14.3779 64.1366L16.7613 61.2402H15.7163L13.6343 63.8508H13.4253Z" fill="white"/>
<path d="M21.8822 67.2195H22.7825V61.2402H21.9063L18.9641 65.7444H18.8999V61.2402H17.9995V67.2195H18.8758L21.8179 62.732H21.8822V67.2195Z" fill="white"/>
<path d="M28.7266 67.2195V61.2402H24.9847L24.7877 64.8908C24.7394 65.7734 24.5948 66.424 23.9598 66.424C23.8833 66.424 23.7748 66.4074 23.7266 66.3949V67.2153C23.795 67.2403 23.9236 67.261 24.0602 67.261C25.1495 67.261 25.5433 66.3866 25.6277 64.9364L25.7966 62.04H27.8263V67.2195H28.7266Z" fill="white"/>
<path d="M32.7383 61.0947C31.0743 61.0947 30.0293 62.3005 30.0293 64.2273C30.0293 66.1499 31.0502 67.364 32.7383 67.364C34.4144 67.364 35.4433 66.1458 35.4433 64.2273C35.4433 62.3046 34.4064 61.0947 32.7383 61.0947ZM32.7383 61.9152C33.8356 61.9152 34.5229 62.8101 34.5229 64.2273C34.5229 65.632 33.8396 66.5436 32.7383 66.5436C31.6209 66.5436 30.9497 65.632 30.9497 64.2273C30.9497 62.8101 31.641 61.9152 32.7383 61.9152Z" fill="white"/>
<path d="M37.7103 59.4004C37.7103 60.1877 38.281 60.6683 39.1411 60.6683C40.0013 60.6683 40.572 60.1877 40.572 59.4004H39.8526C39.8485 59.8355 39.5512 60.1172 39.1411 60.1172C38.7352 60.1172 38.4337 59.8355 38.4298 59.4004H37.7103ZM40.6283 67.2194H41.5287V61.2402H40.6524L37.7103 65.7443H37.646V61.2402H36.7456V67.2194H37.6218L40.564 62.7319H40.6283V67.2194Z" fill="white"/>
<path d="M45.5315 67.2195H49.6875V68.4005H50.5155V66.4157H49.792V61.2402H45.9455L45.7324 64.8659C45.6882 65.6573 45.5435 66.167 45.1296 66.4157H44.7075V68.4005H45.5315V67.2195ZM46.5685 64.9074L46.7454 62.04H48.8917V66.4157H46.1787V66.3618C46.4479 66.0262 46.5283 65.5745 46.5685 64.9074Z" fill="white"/>
<path d="M54.0244 61.0947C52.3604 61.0947 51.3154 62.3005 51.3154 64.2273C51.3154 66.1499 52.3363 67.364 54.0244 67.364C55.7005 67.364 56.7295 66.1458 56.7295 64.2273C56.7295 62.3046 55.6925 61.0947 54.0244 61.0947ZM54.0244 61.9152C55.1217 61.9152 55.809 62.8101 55.809 64.2273C55.809 65.632 55.1258 66.5436 54.0244 66.5436C52.9071 66.5436 52.2359 65.632 52.2359 64.2273C52.2359 62.8101 52.9271 61.9152 54.0244 61.9152Z" fill="white"/>
<path d="M63.8999 67.2195V61.2402H62.8468L60.998 65.9184H60.9297L59.0847 61.2402H58.0317V67.2195H58.8677V62.8397H58.924L60.6242 67.1117H61.3075L63.0077 62.8397H63.0639V67.2195H63.8999Z" fill="white"/>
<path d="M3.6 17.0996H0V89.9996H3.6V17.0996Z" fill="white"/>
<path d="M72.8998 17.0996H69.2998V89.9996H72.8998V17.0996Z" fill="white"/>
<path d="M69.3001 17.0996H3.6001V20.6996H69.3001V17.0996Z" fill="white"/>
<path d="M69.3001 86.4004H3.6001V90.0004H69.3001V86.4004Z" fill="white"/>
</g>
<defs>
<clipPath id="clip0_2966_3377">
<rect width="90" height="90" fill="white"/>
</clipPath>
</defs>
</svg>
