<svg width="48" height="48" viewBox="0 0 48 48" fill="none" xmlns="http://www.w3.org/2000/svg">
<g clip-path="url(#clip0_5835_3055)">
<path d="M24 0C37.2548 0 48 10.7452 48 24C48 37.2548 37.2548 48 24 48C10.7452 48 0 37.2548 0 24C0 10.7452 10.7452 0 24 0ZM33.9209 15.8398C34.2758 14.3638 33.3768 13.6958 32.4473 14.1318L12.0742 22.2773C10.6838 22.8564 10.6921 23.6609 11.8193 24.0195L17.0498 25.7109L29.1523 17.7939C29.7244 17.4333 30.2467 17.6271 29.8174 18.0225L20.0117 27.1982H20.0098L20.0117 27.1992L19.6514 32.7891C20.1797 32.789 20.4126 32.5378 20.709 32.2412L23.25 29.6797L28.5352 33.7275C29.5093 34.2836 30.2087 33.9973 30.4512 32.792L33.9209 15.8398Z" fill="white"/>
</g>
<defs>
<clipPath id="clip0_5835_3055">
<rect width="48" height="48" rx="24" fill="white"/>
</clipPath>
</defs>
</svg>
