<svg width="48" height="48" viewBox="0 0 48 48" fill="none" xmlns="http://www.w3.org/2000/svg">
<g clip-path="url(#clip0_5983_851)">
<mask id="mask0_5983_851" style="mask-type:luminance" maskUnits="userSpaceOnUse" x="0" y="0" width="48" height="48">
<path d="M48 0H0V48H48V0Z" fill="white"/>
</mask>
<g mask="url(#mask0_5983_851)">
<path fill-rule="evenodd" clip-rule="evenodd" d="M33.9926 4.13906L43.861 14.0074C49.3798 19.5262 49.3798 28.4738 43.861 33.9926L33.9926 43.861C28.4738 49.3798 19.5262 49.3798 14.0074 43.861L4.13906 33.9926C-1.37969 28.4738 -1.37969 19.5262 4.13906 14.0074L14.0074 4.13906C19.5262 -1.37969 28.4738 -1.37969 33.9926 4.13906ZM6.6 29.7518V18.2483C6.6 11.8151 11.8151 6.6 18.2483 6.6H29.7518C36.1848 6.6 41.4 11.8151 41.4 18.2483V29.7518C41.4 36.1848 36.1848 41.4 29.7518 41.4H18.2483C11.8151 41.4 6.6 36.1848 6.6 29.7518Z" fill="white"/>
<path d="M43.7853 1.20016C44.3066 1.2018 44.819 1.33476 45.2748 1.58662C45.7505 1.8392 46.1419 2.2238 46.4016 2.69358C46.6627 3.1509 46.8 3.66772 46.8 4.19353C46.8 4.71935 46.6627 5.23619 46.4016 5.69351C46.1412 6.16213 45.7529 6.54813 45.2813 6.80704C44.8229 7.0647 44.3054 7.20006 43.7786 7.20001C43.2653 7.18998 42.7622 7.05265 42.3158 6.80046C41.8461 6.54116 41.4602 6.1551 41.202 5.68696C40.9394 5.23249 40.8007 4.71767 40.8 4.19353C40.8005 3.66525 40.9392 3.14617 41.202 2.68703C41.4576 2.2136 41.844 1.82269 42.3158 1.56042C42.7673 1.31902 43.2727 1.19509 43.7853 1.20016ZM43.7853 1.69143C43.3512 1.69539 42.9252 1.80803 42.5465 2.01893C42.1502 2.23141 41.8233 2.55179 41.604 2.94246C41.3856 3.3237 41.2706 3.75484 41.2706 4.19353C41.2706 4.63223 41.3856 5.06339 41.604 5.44461C41.8209 5.83482 42.1457 6.15527 42.5397 6.36817C42.9204 6.58727 43.3521 6.70264 43.7918 6.70264C44.2317 6.70264 44.6635 6.58727 45.0441 6.36817C45.4382 6.15527 45.7629 5.83482 45.9799 5.44461C46.1983 5.06339 46.313 4.63223 46.313 4.19353C46.313 3.75484 46.1983 3.3237 45.9799 2.94246C45.7622 2.55042 45.4349 2.22961 45.0374 2.01893C44.6549 1.80589 44.2238 1.69318 43.7853 1.69143ZM42.5858 5.73937V2.5102H43.6997C43.9793 2.49719 44.2591 2.52587 44.5301 2.59532C44.6983 2.65076 44.8425 2.76169 44.9385 2.90973C45.0345 3.04871 45.0873 3.21275 45.0902 3.38133C45.0917 3.49593 45.0696 3.60959 45.0254 3.71543C44.9813 3.82129 44.9157 3.9171 44.8332 3.99705C44.6599 4.17611 44.4237 4.28171 44.1741 4.29181C44.2759 4.33156 44.3697 4.38923 44.4509 4.46209C44.6342 4.6629 44.7955 4.88245 44.9321 5.1171L45.3273 5.77211H44.6683L44.3784 5.2612C44.2428 4.97973 44.0575 4.72465 43.8314 4.50796C43.7064 4.42701 43.5585 4.38798 43.4097 4.3966H43.0999V5.77211L42.5858 5.73937ZM43.1066 3.91844H43.7657C43.9817 3.94103 44.1991 3.89274 44.3851 3.7809C44.4401 3.73993 44.4845 3.68641 44.5142 3.62485C44.544 3.56327 44.5584 3.49549 44.5565 3.42719C44.5596 3.33457 44.5291 3.24393 44.4708 3.17173C44.4173 3.09445 44.3414 3.0351 44.2533 3.00143C44.082 2.95242 43.9039 2.93248 43.7261 2.94246H43.1263L43.1066 3.91844Z" fill="white"/>
</g>
</g>
<defs>
<clipPath id="clip0_5983_851">
<rect width="48" height="48" fill="white"/>
</clipPath>
</defs>
</svg>
