<svg width="48" height="48" viewBox="0 0 48 48" fill="none" xmlns="http://www.w3.org/2000/svg">
<path fill-rule="evenodd" clip-rule="evenodd" d="M33.9926 4.13906L43.861 14.0074C49.3798 19.5262 49.3798 28.4738 43.861 33.9926L33.9926 43.861C28.4738 49.3798 19.5262 49.3798 14.0074 43.861L4.13906 33.9926C-1.37969 28.4738 -1.37969 19.5262 4.13906 14.0074L14.0074 4.13906C19.5262 -1.37969 28.4738 -1.37969 33.9926 4.13906ZM6.6 29.7518V18.2483C6.6 11.8151 11.8151 6.6 18.2483 6.6H29.7518C36.1848 6.6 41.4 11.8151 41.4 18.2483V29.7518C41.4 36.1848 36.1848 41.4 29.7518 41.4H18.2483C11.8151 41.4 6.6 36.1848 6.6 29.7518Z" fill="white"/>
</svg>
